<?xml version="1.0" standalone="no"?>
<!DOCTYPE svg PUBLIC "-//W3C//DTD SVG 20010904//EN"
 "http://www.w3.org/TR/2001/REC-SVG-20010904/DTD/svg10.dtd">
<svg version="1.0" xmlns="http://www.w3.org/2000/svg"
 width="1100.000000pt" height="1100.000000pt" viewBox="0 0 1100.000000 1100.000000"
 preserveAspectRatio="xMidYMid meet">

<g transform="translate(0.000000,1100.000000) scale(0.100000,-0.100000)"
fill="#000000" stroke="none">
<path d="M8330 10823 c-155 -26 -637 -127 -920 -193 -74 -17 -200 -44 -280
-59 -233 -46 -539 -111 -620 -133 -170 -45 -441 -133 -535 -173 -100 -43 -411
-197 -430 -213 -6 -4 -57 -27 -115 -51 -113 -46 -290 -140 -385 -204 -129 -87
-129 -87 -199 -67 -33 9 -106 37 -161 61 -95 41 -106 43 -212 47 -104 4 -243
-8 -288 -24 -36 -13 22 42 92 87 90 59 82 78 -17 40 -48 -18 -177 -109 -216
-152 -21 -23 -8 -25 18 -2 10 9 18 11 18 5 0 -6 -4 -13 -8 -16 -5 -3 -21 -36
-37 -73 -15 -37 -51 -105 -78 -151 -57 -94 -59 -121 -3 -36 50 75 159 181 226
221 78 46 182 66 295 58 163 -11 183 -29 44 -38 -50 -3 -125 -16 -167 -28 -70
-21 -81 -28 -145 -95 -37 -39 -75 -81 -83 -93 -25 -35 -1 -24 29 14 48 60 161
105 326 130 109 16 244 19 276 5 13 -6 -20 -9 -92 -9 -73 -1 -121 -6 -140 -15
-15 -7 -75 -29 -133 -47 -106 -34 -182 -70 -162 -77 6 -2 23 3 39 11 60 31
199 66 268 67 39 0 84 1 100 2 28 1 191 -60 182 -68 -2 -2 -30 5 -63 15 -93
30 -123 34 -155 21 -33 -14 -38 -30 -10 -30 43 0 27 -18 -27 -30 -96 -21 -91
-28 18 -23 87 4 120 1 190 -17 110 -28 252 -83 293 -113 18 -13 69 -45 114
-72 97 -56 117 -74 76 -68 -25 3 -26 2 -7 -6 23 -10 49 -15 160 -31 58 -9 87
-8 149 5 98 21 297 78 356 103 24 11 69 25 99 32 30 7 128 37 217 66 376 125
759 200 1138 223 132 8 461 -1 680 -19 359 -29 495 -33 713 -21 119 6 236 14
260 17 72 10 48 -13 -33 -31 -41 -9 -73 -20 -71 -24 7 -11 100 4 176 28 36 11
79 21 95 21 25 -1 22 -4 -25 -21 -114 -42 -227 -78 -285 -89 -128 -26 -92 -41
45 -19 133 20 130 5 -5 -28 -172 -42 -259 -54 -315 -43 -61 12 -110 12 -110 0
0 -5 21 -10 48 -10 47 0 47 0 20 -14 -33 -18 -267 -32 -478 -29 -85 0 -135 -2
-120 -7 14 -4 -47 -5 -135 -2 -88 3 -162 8 -165 12 -3 4 -30 11 -60 14 -39 5
-51 4 -40 -3 8 -6 25 -11 36 -11 12 0 28 -7 35 -16 12 -15 11 -16 -6 -11 -11
3 -42 9 -70 13 -27 3 -54 10 -60 14 -5 4 -30 10 -55 14 l-45 6 50 -20 50 -20
-57 5 c-67 6 -79 -10 -15 -19 45 -7 86 -26 56 -26 -9 0 -38 7 -65 15 -55 17
-244 21 -209 4 19 -9 -93 -5 -170 6 -27 4 -26 3 5 -6 19 -6 44 -14 55 -18 11
-5 -65 -10 -168 -13 -103 -3 -193 -10 -200 -16 -6 -5 -48 -13 -92 -17 -147
-12 -229 -25 -375 -60 -91 -21 -194 -38 -275 -45 -71 -5 -149 -13 -172 -16
-24 -3 -56 -1 -73 4 -19 7 -41 7 -62 1 -56 -16 -179 -14 -258 5 -129 30 -155
38 -171 52 -22 20 -83 31 -77 14 2 -8 13 -18 24 -24 10 -6 21 -12 23 -13 2 -2
-2 -9 -9 -18 -9 -11 -9 -15 -1 -15 7 0 11 -6 10 -12 -1 -7 1 -21 6 -31 12 -28
1 -30 -40 -6 l-38 23 17 -27 c10 -14 27 -29 37 -32 16 -5 18 -10 9 -20 -18
-21 -33 -10 -70 53 -43 72 -127 178 -173 219 -85 74 -217 127 -357 143 -85 9
-107 7 -210 -24 -117 -35 -286 -153 -356 -248 -29 -39 -114 -206 -114 -224 0
-16 24 14 51 64 22 42 28 49 24 27 -3 -16 -15 -47 -26 -69 -24 -47 -19 -55 17
-27 31 24 52 28 34 6 -10 -13 -9 -15 9 -15 11 0 21 -1 21 -3 0 -8 -49 -99 -61
-115 -8 -9 -23 -33 -33 -52 -19 -34 -46 -68 -96 -121 -14 -15 -26 -32 -28 -39
-5 -22 -87 -89 -108 -90 -12 0 -27 -7 -34 -15 -15 -18 1 -20 18 -3 6 6 14 9
18 5 11 -11 -5 -24 -37 -31 -27 -5 -30 -8 -19 -21 10 -12 9 -15 -5 -15 -9 0
-15 -6 -12 -12 2 -8 17 -12 36 -10 47 3 37 -11 -30 -43 -45 -22 -56 -31 -42
-36 14 -5 12 -8 -12 -17 -26 -9 -27 -11 -7 -11 12 -1 22 -6 22 -12 0 -6 -12
-8 -32 -5 -30 5 -28 4 11 -14 25 -12 56 -19 70 -17 14 2 20 2 14 0 -7 -3 -13
-11 -13 -19 0 -12 4 -12 20 -4 32 17 202 68 255 76 35 5 46 4 41 -5 -4 -6 -2
-11 4 -11 6 0 9 -4 5 -10 -3 -5 -11 -7 -18 -5 -7 3 -23 -4 -37 -15 l-25 -20
59 0 c51 0 57 2 46 15 -7 8 -8 15 -2 15 5 0 15 -6 21 -14 7 -8 24 -17 38 -21
15 -3 38 -14 52 -24 14 -10 57 -31 95 -46 85 -33 97 -32 366 25 107 23 218 45
245 49 28 4 88 24 135 43 158 66 311 109 387 108 26 -1 26 -1 8 -12 -72 -39
-106 -60 -102 -64 2 -3 37 4 78 16 40 11 103 22 139 25 64 5 64 5 -45 -24
-140 -37 -181 -54 -110 -45 28 3 163 9 302 13 138 3 255 9 259 13 9 10 -40 28
-74 28 -15 0 -43 5 -63 10 -43 12 -64 52 -98 187 -32 125 -39 117 87 108 175
-11 268 -31 655 -139 349 -97 484 -145 727 -256 196 -90 251 -109 364 -125 56
-8 123 -22 150 -30 27 -8 62 -15 79 -15 26 0 29 3 25 25 -4 20 -2 25 11 21
160 -45 172 -46 488 -46 170 1 326 5 348 9 245 51 686 223 827 323 35 25 95
63 133 85 73 41 137 82 240 154 56 39 94 73 316 284 182 173 402 476 516 708
38 77 39 81 18 73 -8 -3 -15 -4 -15 -3 0 1 11 32 24 70 l25 67 -22 0 c-12 0
-40 -12 -60 -26 -21 -14 -41 -23 -44 -21 -9 10 8 27 45 46 20 10 46 29 57 41
20 22 20 22 0 36 -56 39 -63 47 -59 58 5 13 -45 46 -70 46 -9 0 -25 5 -35 12
-41 26 -261 -31 -631 -162 -301 -106 -603 -182 -840 -209 -249 -29 -420 -33
-760 -17 -377 18 -734 46 -723 57 5 4 82 45 173 90 188 93 316 170 410 245
128 101 326 278 385 344 59 67 132 176 123 185 -3 3 -43 -18 -89 -46 -46 -28
-100 -60 -119 -71 l-35 -20 27 25 c14 13 68 48 120 78 95 54 108 64 108 88 0
10 -9 12 -37 7 l-38 -7 33 22 c24 15 30 25 22 34 -5 6 -7 15 -3 19 4 4 0 4 -9
1 -9 -4 -25 -2 -35 4 -16 9 -16 10 5 11 12 0 22 5 22 10 0 6 -7 10 -15 10 -8
0 -12 6 -9 13 7 18 -38 37 -86 37 -22 0 -40 5 -40 10 0 6 6 11 13 11 18 2 -65
18 -88 17 -11 0 -31 -3 -45 -5z m-1058 -295 c-4 -4 -59 -21 -121 -37 -62 -17
-116 -33 -119 -36 -9 -8 69 -5 113 5 22 5 41 7 43 5 8 -7 -43 -27 -79 -31 -47
-4 -159 -41 -176 -57 -10 -9 1 -12 47 -11 47 1 65 5 83 22 27 26 39 28 31 7
-5 -12 3 -11 42 5 26 12 62 20 78 18 27 -3 20 -7 -46 -30 -42 -16 -82 -28 -89
-28 -20 0 -99 -34 -99 -42 0 -11 28 -10 34 1 3 4 25 11 48 15 24 4 61 15 83
25 54 24 177 61 201 61 10 -1 -20 -14 -68 -30 -48 -15 -102 -40 -120 -53 -29
-23 -74 -42 -198 -88 -19 -7 -49 -18 -67 -26 -17 -7 -37 -13 -45 -12 -7 0 -4
4 7 9 18 8 18 9 -6 9 -14 1 -29 -2 -33 -6 -10 -10 -78 -33 -101 -33 -22 0
-127 -48 -108 -49 6 -1 31 7 55 18 24 10 66 21 93 24 l50 7 -40 -19 c-22 -11
-49 -20 -60 -20 -11 -1 -49 -10 -84 -21 -35 -10 -78 -17 -95 -15 -28 4 -29 4
-6 -4 23 -8 21 -9 -15 -10 -22 -1 -58 -11 -80 -22 l-40 -20 50 5 c28 3 66 7
85 11 l35 5 -35 -16 c-19 -9 -59 -18 -88 -21 -34 -4 -49 -9 -40 -14 9 -6 3 -9
-18 -9 -16 0 -39 -7 -50 -15 -10 -8 -33 -15 -51 -15 -17 0 -35 -4 -38 -10 -3
-5 -18 -10 -32 -10 -15 0 -24 -3 -20 -6 7 -8 138 16 152 28 5 4 21 8 35 8 14
0 57 9 95 19 38 11 71 18 73 17 8 -9 -83 -46 -112 -46 -18 0 -59 -9 -92 -19
-32 -11 -87 -24 -122 -30 -34 -5 -67 -13 -73 -17 -7 -4 -30 -8 -52 -10 -22 -2
-59 -10 -81 -18 -23 -8 -68 -20 -101 -26 -33 -7 -73 -18 -90 -25 -49 -21 -135
-44 -210 -55 -120 -18 -211 -38 -182 -39 15 0 27 -5 27 -9 0 -9 -123 -42 -155
-42 -9 0 -64 -16 -121 -35 -113 -38 -118 -40 -109 -25 11 17 -22 11 -68 -14
-45 -24 -97 -41 -97 -31 0 2 18 14 40 25 46 23 58 44 42 70 -9 16 -2 24 56 62
37 25 114 71 172 103 58 31 130 72 160 90 115 66 440 214 585 264 50 18 115
41 145 52 146 54 330 110 427 129 59 12 151 32 203 45 52 13 158 36 235 50 77
14 169 32 205 39 71 14 113 15 102 4z m1260 -61 c-28 -29 -77 -61 -222 -145
-16 -9 -12 -4 9 14 32 27 230 161 240 163 3 1 -10 -14 -27 -32z m-1252 13
c-34 -11 -60 -11 -35 0 11 5 29 8 40 8 16 0 15 -2 -5 -8z m-3 -56 c-3 -3 -12
-4 -19 -1 -8 3 -5 6 6 6 11 1 17 -2 13 -5z m23 -90 c0 -2 -19 -8 -42 -14 -24
-6 -50 -14 -59 -19 -9 -5 -36 -11 -60 -14 -24 -2 -35 -2 -24 0 11 3 22 9 25
13 13 21 160 53 160 34z m120 6 c0 -5 -6 -10 -14 -10 -7 0 -29 -3 -47 -6 -23
-5 -31 -3 -24 4 18 19 85 28 85 12z m960 -24 c0 -5 -139 -86 -147 -86 -4 0 2
10 13 21 25 28 134 81 134 65z m-305 -186 c-3 -5 -12 -10 -18 -10 -7 0 -6 4 3
10 19 12 23 12 15 0z m-44 -84 c-36 -44 -342 -215 -446 -250 -27 -10 -66 -26
-85 -36 -42 -22 -105 -38 -180 -44 l-55 -5 55 14 c30 8 80 25 110 38 115 52
178 77 193 77 24 0 199 88 222 111 11 12 58 40 105 64 101 51 95 48 81 31z
m-1646 -96 c-11 -5 -31 -8 -45 -8 -23 0 -22 1 5 8 42 11 65 11 40 0z m4175
-240 c-29 -27 -56 -48 -59 -44 -3 3 18 28 47 56 29 28 56 48 59 45 3 -3 -18
-29 -47 -57z m-6290 -34 c0 -3 -4 -8 -10 -11 -5 -3 -10 -1 -10 4 0 6 5 11 10
11 6 0 10 -2 10 -4z m2777 -2 c-3 -3 -12 -4 -19 -1 -8 3 -5 6 6 6 11 1 17 -2
13 -5z m-50 -10 c-3 -3 -12 -4 -19 -1 -8 3 -5 6 6 6 11 1 17 -2 13 -5z m3575
-26 c-30 -47 -127 -153 -165 -180 -21 -15 -1 14 57 82 83 98 114 130 124 130
2 0 -5 -14 -16 -32z m-3619 15 c-7 -2 -21 -2 -30 0 -10 3 -4 5 12 5 17 0 24
-2 18 -5z m-2386 -9 c-3 -3 -12 -4 -19 -1 -8 3 -5 6 6 6 11 1 17 -2 13 -5z
m2330 0 c-3 -3 -12 -4 -19 -1 -8 3 -5 6 6 6 11 1 17 -2 13 -5z m2378 -10 c-27
-7 -63 -13 -80 -13 -22 1 -15 4 25 14 75 17 117 17 55 -1z m-4575 -84 c12 -8
12 -10 -5 -10 -11 0 -27 5 -35 10 -12 8 -12 10 5 10 11 0 27 -5 35 -10z m1817
4 c-3 -3 -12 -4 -19 -1 -8 3 -5 6 6 6 11 1 17 -2 13 -5z m3569 -9 c-11 -8 -27
-15 -35 -15 -11 0 -10 4 5 15 10 8 26 14 34 14 11 0 10 -3 -4 -14z m-3621 -5
c-11 -5 -33 -9 -50 -9 -26 0 -27 2 -10 9 11 5 34 9 50 9 26 0 27 -2 10 -9z
m3633 -52 c-39 -51 -339 -295 -455 -370 -35 -23 -61 -43 -59 -45 9 -10 90 41
183 114 54 43 132 103 173 132 41 30 90 68 108 85 23 21 35 27 43 19 25 -25
-89 -181 -249 -340 -53 -53 -90 -93 -82 -88 30 15 -56 -56 -124 -103 -37 -26
-96 -68 -130 -93 -34 -26 -84 -61 -111 -79 -33 -21 -42 -30 -25 -26 35 9 131
35 152 42 12 4 18 0 18 -11 0 -12 5 -15 21 -10 15 5 19 4 15 -4 -4 -6 -12 -11
-19 -11 -17 0 -117 -54 -117 -63 0 -5 10 -5 23 -1 12 4 31 8 42 9 41 3 91 18
106 31 20 18 304 134 328 134 3 0 -13 -13 -35 -29 -69 -50 -167 -99 -269 -135
-55 -18 -140 -50 -190 -71 -49 -20 -101 -41 -114 -46 -13 -6 -21 -12 -18 -16
3 -3 48 8 99 25 97 31 207 57 214 49 19 -18 -300 -126 -431 -146 -38 -5 -123
-18 -188 -28 -70 -10 -116 -21 -114 -28 4 -12 40 -13 77 -3 72 19 84 20 71 4
-13 -16 -81 -31 -173 -39 -49 -5 -57 -3 -61 14 -4 16 -10 18 -39 11 -18 -4
-123 -7 -233 -7 -202 1 -386 15 -505 40 -36 8 -112 21 -170 31 -93 15 -189 36
-285 63 -25 7 -26 9 -7 10 12 1 22 5 22 9 0 8 33 -1 186 -49 51 -16 178 -28
134 -12 -87 31 -217 87 -237 103 -14 11 -32 20 -39 20 -17 0 -18 17 -1 23 9 3
9 7 -2 20 -12 15 -11 17 5 17 25 0 97 -23 158 -49 79 -35 66 -15 -15 22 -41
19 -84 38 -97 42 -32 9 -12 33 37 41 122 20 197 38 203 48 5 7 56 11 155 10
81 -1 139 1 128 3 -11 2 -27 6 -35 9 -29 10 12 21 125 35 61 7 114 16 119 21
6 4 18 8 27 8 10 0 19 5 21 11 2 6 24 15 48 19 85 14 205 44 210 52 3 4 55 19
115 34 142 34 424 125 545 176 138 58 400 187 437 216 28 21 37 23 62 14 28
-10 32 -8 68 35 21 25 37 50 35 55 -1 5 2 7 8 3 6 -3 19 -3 31 0 15 5 18 12
13 27 -5 17 -3 20 10 15 9 -4 27 3 43 18 37 31 42 23 11 -17z m-3963 10 c7 -7
-5 -9 -39 -4 -27 3 -72 7 -100 7 -45 1 -47 2 -21 9 37 10 146 2 160 -12z m-57
-27 c7 -4 -135 -13 -315 -20 -307 -12 -335 -15 -442 -42 -76 -20 -118 -26
-124 -20 -12 12 -15 11 138 52 105 28 143 33 300 40 190 7 421 2 443 -10z
m4391 -38 c-34 -49 -183 -199 -254 -256 -33 -26 -30 -20 20 34 178 192 259
278 263 274 2 -2 -11 -25 -29 -52z m-5869 -41 c0 -4 -33 -13 -72 -21 -127 -22
-241 -64 -269 -97 -6 -8 -16 -14 -22 -14 -16 0 54 69 88 87 67 36 132 52 203
53 39 0 72 -4 72 -8z m1295 -11 l30 -6 -30 -12 c-203 -80 -250 -92 -381 -100
-112 -7 -173 8 -214 52 l-22 24 43 11 c113 31 183 38 359 38 102 0 199 -3 215
-7z m1305 -131 c12 -8 11 -10 -7 -10 -12 0 -25 5 -28 10 -8 13 15 13 35 0z
m-2463 -86 c-3 -3 -12 -4 -19 -1 -8 3 -5 6 6 6 11 1 17 -2 13 -5z m104 -8
c109 -29 201 -81 272 -155 71 -73 78 -87 50 -95 -56 -16 -110 -17 -122 -2 -7
8 -10 19 -7 24 3 6 -9 13 -27 16 -17 3 -39 11 -47 16 -13 9 -13 11 0 20 11 7
7 10 -20 11 -27 0 -31 2 -15 8 18 7 17 8 -6 14 -14 4 -41 20 -60 37 -19 16
-49 37 -66 45 -36 17 -42 32 -16 37 15 3 15 4 -1 21 -22 22 -10 22 65 3z
m2686 -42 c-3 -3 -12 -4 -19 -1 -8 3 -5 6 6 6 11 1 17 -2 13 -5z m228 -20 c40
-9 44 -12 20 -13 -48 -2 -209 20 -219 29 -12 12 136 0 199 -16z m-2045 6 c-8
-5 -24 -10 -35 -10 -17 0 -17 2 -5 10 8 5 24 10 35 10 17 0 17 -2 5 -10z
m-1030 -15 c23 -8 61 -29 83 -47 57 -43 167 -150 167 -162 0 -6 -24 13 -52 41
-99 96 -221 139 -375 131 -51 -3 -93 -3 -93 -1 0 2 24 15 53 28 61 29 151 33
217 10z m2633 -2 c-13 -2 -35 -2 -50 0 -16 2 -5 4 22 4 28 0 40 -2 28 -4z
m2822 -82 c-52 -51 -285 -182 -322 -180 -14 0 -15 2 -3 6 8 3 41 24 74 46 32
21 95 58 140 80 44 22 97 53 116 69 53 43 50 34 -5 -21z m-3660 -1 c-72 -12
-107 -12 -100 0 3 6 39 9 78 9 l72 -2 -50 -7z m-1947 -122 c17 -17 15 -69 -4
-96 -46 -66 -185 -69 -184 -3 2 70 143 144 188 99z m5142 8 c0 -2 -8 -10 -17
-17 -16 -13 -17 -12 -4 4 13 16 21 21 21 13z m-4533 -22 c-3 -3 -12 -4 -19 -1
-8 3 -5 6 6 6 11 1 17 -2 13 -5z m-812 -67 c-66 -177 -27 -343 99 -421 40 -25
58 -30 114 -30 90 0 155 29 222 100 68 72 102 148 108 241 2 40 8 70 13 68 4
-3 15 -29 25 -58 36 -108 5 -266 -66 -337 -45 -45 -109 -70 -280 -112 -109
-26 -137 -30 -220 -25 -52 3 -119 10 -149 17 l-53 12 6 82 c16 196 45 314 107
425 28 51 73 101 91 101 4 0 -4 -29 -17 -63z m822 -3 c-8 -9 -60 10 -64 23 -7
20 51 20 61 0 5 -9 6 -20 3 -23z m-168 10 c16 -37 9 -39 -11 -3 -9 16 -14 29
-9 29 4 0 13 -12 20 -26z m-825 -51 c-1 -32 -11 -89 -23 -128 -19 -61 -35
-134 -45 -200 -2 -15 -10 -20 -30 -19 -17 1 -19 0 -6 -3 11 -2 20 -9 20 -15 0
-6 -10 -8 -24 -4 -20 5 -31 -1 -55 -26 -36 -39 -51 -32 -19 8 39 49 105 196
90 202 -9 3 -10 8 -3 16 6 7 12 37 15 68 5 59 48 158 69 158 8 0 12 -17 11
-57z m2571 19 c-3 -3 -11 0 -18 7 -9 10 -8 11 6 5 10 -3 15 -9 12 -12z m-1129
-225 c58 -175 59 -177 43 -177 -14 0 -34 51 -73 188 -70 244 -53 238 30 -11z
m-566 111 c5 -16 7 -28 4 -28 -6 0 -23 44 -29 78 l-5 27 11 -25 c6 -14 15 -37
19 -52z m693 55 c-7 -2 -19 -2 -25 0 -7 3 -2 5 12 5 14 0 19 -2 13 -5z m859
-43 l23 -22 -40 8 c-22 4 -41 11 -43 15 -2 5 -18 9 -35 9 -18 0 -39 5 -47 11
-11 8 3 9 52 6 50 -3 72 -10 90 -27z m127 -11 c108 -18 434 -90 453 -100 16
-9 150 -47 358 -104 346 -94 663 -130 1150 -130 l345 0 145 47 c168 55 217 67
206 49 -4 -6 -21 -18 -39 -27 -32 -17 -253 -99 -362 -135 -32 -11 -63 -25 -68
-32 -7 -9 -10 -9 -14 1 -6 14 -33 16 -33 2 0 -5 5 -10 12 -10 26 0 -4 -13 -74
-31 -40 -10 -109 -22 -153 -26 -55 -5 -72 -9 -55 -13 l25 -7 -28 -12 c-36 -14
-230 -14 -371 0 -80 8 -111 8 -121 -1 -16 -13 -132 1 -214 26 -57 17 -59 17
-35 0 17 -13 13 -13 -31 -5 -28 5 -59 12 -70 15 -40 13 -197 93 -230 118 -68
52 -47 23 45 -64 52 -48 92 -91 89 -94 -6 -7 -122 52 -179 90 -40 28 -55 30
-46 9 3 -8 2 -15 -2 -15 -11 0 -65 35 -88 58 -12 11 -43 32 -70 46 -27 14 -69
44 -94 68 -80 78 -134 116 -185 131 -27 8 -85 31 -127 51 -42 20 -84 36 -92
36 -9 0 -16 4 -16 9 0 6 -27 20 -60 32 -88 32 -81 36 29 18z m548 -6 c48 -22
126 -73 120 -79 -5 -5 -122 55 -160 81 -29 20 -6 19 40 -2z m-2877 -8 c0 -8
-2 -15 -4 -15 -2 0 -11 -3 -20 -6 -10 -4 -16 -1 -16 9 0 14 13 24 33 26 4 1 7
-6 7 -14z m2306 -27 c4 -6 -2 -7 -17 -3 -35 10 -45 23 -15 18 15 -3 29 -10 32
-15z m-341 -29 c61 -16 167 -43 237 -59 138 -32 275 -76 380 -121 80 -35 97
-37 65 -6 -28 25 -48 84 -24 70 8 -4 31 -23 52 -41 30 -27 35 -36 25 -47 -10
-12 -9 -15 6 -15 11 0 33 -9 49 -20 17 -12 44 -27 60 -35 17 -8 46 -28 65 -45
60 -51 7 -37 -146 39 -167 83 -367 150 -829 278 -33 9 -71 22 -85 30 l-25 13
30 -6 c17 -4 80 -20 140 -35z m1170 -30 c26 -11 33 -18 20 -18 -11 0 -40 11
-65 25 -48 26 -21 22 45 -7z m-2544 -130 c-11 -29 -18 -55 -16 -58 3 -2 20 4
38 14 19 10 40 15 48 12 10 -4 8 -8 -8 -12 -12 -4 -28 -19 -34 -34 -10 -22
-59 -60 -101 -79 -14 -6 -8 16 8 32 8 9 11 16 6 16 -5 0 -17 -9 -27 -20 -10
-11 -23 -20 -30 -20 -7 0 -25 -6 -41 -14 -16 -8 -47 -18 -69 -21 -34 -6 -26 0
51 40 80 40 96 53 128 101 20 30 41 67 47 81 5 14 12 23 15 21 3 -3 -4 -29
-15 -59z m-1061 -99 c0 -5 -4 -10 -10 -10 -5 0 -10 5 -10 10 0 6 5 10 10 10 6
0 10 -4 10 -10z"/>
<path d="M6960 10290 c-12 -8 -12 -10 5 -9 11 0 29 4 40 9 18 8 18 9 -5 9 -14
0 -32 -4 -40 -9z"/>
<path d="M6120 9980 c-58 -24 -22 -25 50 0 45 15 50 18 25 18 -16 1 -50 -8
-75 -18z"/>
<path d="M5935 9933 c-38 -9 -42 -26 -5 -19 19 3 39 11 44 16 11 11 -3 12 -39
3z"/>
<path d="M5318 9753 c7 -3 16 -2 19 1 4 3 -2 6 -13 5 -11 0 -14 -3 -6 -6z"/>
<path d="M5238 9723 c7 -3 16 -2 19 1 4 3 -2 6 -13 5 -11 0 -14 -3 -6 -6z"/>
<path d="M9470 8995 c-14 -8 -20 -14 -15 -14 6 0 21 6 35 14 14 8 21 14 15 14
-5 0 -21 -6 -35 -14z"/>
<path d="M9350 8950 c-25 -10 -38 -19 -30 -19 17 1 101 37 85 38 -5 0 -30 -9
-55 -19z"/>
<path d="M9218 8513 c7 -3 16 -2 19 1 4 3 -2 6 -13 5 -11 0 -14 -3 -6 -6z"/>
<path d="M8840 8380 c0 -5 7 -10 16 -10 8 0 12 5 9 10 -3 6 -10 10 -16 10 -5
0 -9 -4 -9 -10z"/>
<path d="M8620 8221 c-59 -5 -62 -7 -31 -13 42 -10 138 -9 171 2 25 8 24 8 -5
9 -16 1 -39 3 -50 5 -11 1 -49 0 -85 -3z"/>
<path d="M4940 8350 c0 -5 5 -10 10 -10 6 0 10 5 10 10 0 6 -4 10 -10 10 -5 0
-10 -4 -10 -10z"/>
<path d="M4188 9979 c-111 -26 -236 -110 -305 -204 l-22 -30 20 59 c24 69 22
79 -11 63 -30 -15 -70 -123 -78 -210 -5 -63 16 -200 30 -191 4 3 8 32 8 64 0
124 87 284 192 351 58 38 186 88 248 99 l45 8 -45 0 c-25 0 -62 -4 -82 -9z"/>
<path d="M3802 9837 c-33 -35 -51 -87 -71 -207 -11 -61 -25 -118 -32 -127 -8
-9 -13 -24 -11 -35 2 -10 -4 -21 -12 -24 -29 -11 -17 -25 17 -19 29 5 35 1 65
-40 44 -61 56 -57 26 9 -13 29 -29 89 -36 132 -13 97 -2 160 47 263 19 39 33
71 31 71 -1 0 -12 -10 -24 -23z"/>
<path d="M4006 9723 c-6 -14 -5 -15 5 -6 7 7 10 15 7 18 -3 3 -9 -2 -12 -12z"/>
<path d="M3967 9639 c-22 -51 -23 -59 -7 -39 11 14 20 32 20 41 0 8 5 20 11
26 6 6 9 17 7 23 -2 7 -16 -16 -31 -51z"/>
<path d="M4082 9560 c-13 -16 -19 -30 -14 -30 4 0 16 14 25 30 10 17 16 30 14
30 -2 0 -13 -13 -25 -30z"/>
<path d="M4460 9550 c-13 -9 -13 -10 0 -9 8 0 24 4 35 9 l20 9 -20 0 c-11 0
-27 -4 -35 -9z"/>
<path d="M4330 9530 c-13 -9 -13 -10 0 -9 8 0 24 4 35 9 l20 9 -20 0 c-11 0
-27 -4 -35 -9z"/>
<path d="M3880 9489 c0 -5 5 -7 10 -4 6 3 10 8 10 11 0 2 -4 4 -10 4 -5 0 -10
-5 -10 -11z"/>
<path d="M3315 9476 c-40 -18 -108 -86 -139 -139 -14 -24 -37 -85 -50 -137
-14 -52 -32 -115 -41 -140 -9 -25 -20 -82 -25 -126 -10 -95 -74 -311 -100
-338 -13 -13 -34 -19 -71 -20 l-54 -1 33 -29 c33 -29 36 -29 88 3 l31 19 7
-75 c3 -41 10 -82 15 -91 9 -16 -14 -62 -44 -87 -17 -14 -57 -95 -62 -125 -3
-14 -7 -56 -10 -95 -3 -38 -8 -73 -12 -77 -3 -4 -36 2 -71 13 -102 32 -202 48
-224 37 -33 -18 -37 6 -8 58 15 28 43 70 63 93 l37 42 63 -25 c102 -38 106
-39 69 -16 -44 29 -205 90 -235 90 -73 0 -6 55 92 75 37 8 78 15 91 15 39 0
24 28 -42 74 -35 26 -66 46 -70 46 -13 0 -5 -20 20 -50 15 -17 25 -32 23 -34
-2 -2 -40 -17 -84 -35 -144 -58 -155 -98 -32 -127 15 -3 27 -7 27 -9 0 -1 -16
-29 -35 -60 -19 -32 -38 -74 -41 -94 -3 -20 -12 -46 -20 -58 -11 -18 -11 -22
1 -27 8 -3 18 -20 23 -38 l9 -33 7 30 c12 50 15 55 27 55 6 0 8 -7 5 -16 -3
-9 -6 -35 -6 -60 0 -40 -3 -46 -40 -70 -47 -31 -46 -44 1 -20 18 9 33 16 34
16 2 0 8 -20 14 -44 6 -25 16 -57 22 -73 10 -26 12 -27 19 -8 5 11 9 38 10 60
1 40 1 40 46 -49 105 -211 267 -399 447 -521 48 -33 127 -89 175 -124 163
-120 238 -143 492 -157 96 -5 141 -11 159 -22 37 -25 138 -158 157 -208 17
-44 16 -46 -3 -72 -41 -55 -197 -112 -227 -82 -13 13 -111 13 -158 0 -29 -9
-38 -17 -43 -41 -6 -26 -17 -36 -68 -59 -74 -34 -60 -37 47 -10 43 11 90 20
105 20 25 1 25 1 7 15 -11 8 -32 15 -48 15 -31 0 -38 16 -10 24 13 4 110 2
220 -3 8 -1 4 -13 -12 -38 -28 -40 -77 -162 -97 -236 -6 -27 -18 -51 -26 -54
-7 -3 -13 -10 -13 -17 0 -6 -13 -25 -28 -43 -16 -17 -40 -59 -53 -94 -18 -47
-25 -58 -27 -41 l-3 23 -19 -23 c-10 -13 -25 -40 -33 -59 -13 -33 -97 -109
-118 -109 -17 0 -9 16 21 45 17 16 30 35 30 43 0 8 -33 -16 -72 -54 -54 -51
-99 -82 -171 -118 -53 -26 -100 -52 -103 -57 -3 -5 -15 -9 -28 -9 -12 0 -31
-7 -42 -15 -10 -8 -28 -15 -39 -15 -20 -1 -20 -1 0 -9 18 -7 16 -10 -15 -26
-19 -10 -39 -24 -43 -31 -5 -9 -26 -14 -57 -14 -46 0 -49 2 -55 31 -7 30 -102
155 -112 146 -3 -3 16 -37 41 -76 25 -38 46 -75 46 -82 0 -17 -38 19 -45 42
-4 11 -12 19 -20 19 -10 0 -11 -8 -3 -40 11 -43 3 -66 -13 -37 -14 23 -33 22
-26 -3 6 -23 -8 -27 -17 -5 -8 22 -26 18 -26 -5 0 -26 -8 -25 -32 5 -25 32
-38 32 -38 1 0 -14 -4 -28 -10 -31 -6 -4 -10 6 -10 23 0 24 -7 31 -49 50 -27
12 -52 26 -56 32 -3 5 -11 10 -16 10 -6 0 -7 -4 -4 -10 3 -5 4 -10 0 -10 -11
0 -85 53 -85 61 0 15 12 10 37 -13 13 -12 26 -19 29 -15 8 8 -70 84 -96 92
-11 3 -20 10 -20 15 0 4 -8 10 -17 12 -22 6 -51 80 -34 86 16 5 14 32 -4 38
-27 11 -16 21 18 17 l32 -4 -35 18 c-50 25 -60 37 -66 83 -7 48 3 51 48 11 38
-33 115 -73 203 -106 72 -27 169 -79 208 -111 48 -40 217 -135 228 -128 15 9
-14 37 -90 89 -36 24 -77 54 -91 65 l-25 21 35 -16 c19 -9 47 -22 62 -30 38
-22 61 -20 49 3 -9 17 -53 35 -266 109 -159 55 -283 130 -335 202 -18 27 -19
31 -5 65 20 47 19 90 -2 124 -26 40 -114 156 -124 163 -5 3 30 30 78 60 59 37
100 72 125 105 32 42 50 55 118 83 135 55 214 156 226 292 11 111 -37 247
-112 320 -31 30 -41 34 -104 37 -62 4 -71 7 -75 26 -2 11 -11 57 -20 101 -22
113 -62 191 -126 243 -67 54 -128 72 -250 72 -54 0 -131 7 -171 16 -102 21
-130 14 -202 -56 l-61 -58 -54 9 c-66 10 -130 -4 -164 -35 -13 -12 -34 -54
-47 -92 -13 -38 -27 -72 -33 -75 -5 -4 -27 -10 -49 -13 -55 -9 -109 -62 -143
-141 -28 -67 -49 -84 -132 -109 -31 -10 -70 -59 -83 -104 -16 -59 -12 -161 11
-242 25 -94 112 -275 182 -384 95 -145 187 -223 319 -270 62 -22 63 -23 88
-86 17 -41 43 -80 76 -114 27 -28 67 -74 88 -102 48 -64 83 -85 157 -91 56 -5
62 -9 92 -47 18 -23 69 -86 113 -141 90 -112 209 -276 285 -392 72 -110 115
-161 157 -182 89 -45 161 -38 229 20 25 22 68 51 96 65 l52 26 -30 -27 c-16
-14 -52 -39 -80 -55 -63 -38 -142 -106 -133 -115 12 -13 106 16 152 46 24 16
60 53 80 83 21 29 57 70 82 90 71 59 260 168 484 277 113 55 258 127 323 158
64 32 117 54 117 49 0 -5 -28 -26 -62 -48 -60 -39 -122 -70 -452 -230 -82 -40
-192 -102 -245 -138 -103 -69 -260 -193 -300 -236 -23 -25 -23 -26 -4 -26 20
0 105 55 183 120 80 66 207 147 312 198 353 173 582 282 592 282 13 0 27 -26
89 -160 50 -109 131 -249 209 -362 151 -219 412 -442 699 -598 51 -28 107 -62
126 -76 32 -24 63 -71 63 -95 0 -14 -106 -8 -285 16 -83 12 -140 15 -185 9
-115 -13 -210 -6 -380 29 -171 36 -252 66 -353 130 -70 45 -138 80 -143 74 -9
-9 83 -95 134 -126 135 -81 301 -129 518 -151 60 -6 147 -20 194 -32 84 -20
193 -69 170 -76 -6 -2 6 -20 27 -41 38 -36 95 -105 101 -120 1 -5 -12 -11 -29
-15 l-32 -6 24 -23 25 -22 -121 2 c-116 1 -198 11 -260 31 -73 24 -223 55
-259 53 -23 -1 -45 4 -55 13 -12 11 -45 16 -117 18 -76 2 -100 6 -97 16 3 6 9
12 14 12 5 0 9 5 9 10 0 6 -7 10 -15 10 -19 0 -19 9 2 32 15 17 14 18 -16 18
-18 0 -47 -10 -63 -22 -20 -13 -29 -16 -26 -8 2 8 25 26 50 40 56 30 72 45 38
35 -42 -13 -158 -94 -165 -115 -3 -11 -11 -20 -16 -20 -6 0 0 18 12 40 13 22
27 40 33 40 5 0 7 3 4 6 -11 11 -48 -16 -63 -47 -12 -22 -21 -28 -34 -24 -14
4 -23 -3 -35 -29 -9 -19 -16 -39 -16 -44 0 -6 -5 -14 -11 -18 -17 -10 -3 57
26 129 25 63 23 70 -8 30 -44 -56 -65 -91 -81 -139 -9 -27 -23 -60 -32 -74
-14 -24 -14 -24 -8 15 4 22 12 63 19 90 7 28 11 52 9 54 -6 6 -33 -32 -34 -46
0 -25 -35 -93 -47 -93 -7 0 -10 7 -6 17 5 13 2 15 -11 10 -10 -4 -22 -7 -27
-7 -5 0 -9 -6 -9 -14 0 -8 -7 -22 -15 -30 -15 -14 -45 -173 -45 -233 0 -27 11
-30 25 -5 24 43 50 82 56 82 4 0 9 -9 12 -20 8 -32 23 -24 69 37 63 83 60 43
-5 -77 -31 -55 -52 -100 -47 -100 10 0 62 89 117 200 44 90 60 82 18 -9 -14
-30 -24 -56 -22 -58 7 -6 103 111 127 154 27 49 34 50 21 5 -7 -24 -6 -32 4
-32 7 0 16 11 19 25 7 27 46 48 70 39 21 -8 22 -184 1 -184 -10 0 -15 -17 -17
-67 -3 -63 -4 -66 -15 -40 -7 15 -18 27 -24 27 -9 0 -10 -34 -7 -123 2 -67 1
-151 -2 -187 -5 -48 -7 -54 -9 -25 -2 73 -14 145 -22 145 -5 0 -13 -19 -20
-42 -6 -24 -15 -51 -20 -61 -5 -10 -14 -48 -19 -85 -20 -133 -26 -157 -38
-154 -14 2 -35 -45 -29 -62 2 -6 1 -20 -4 -31 -6 -17 -8 -17 -8 -2 -1 9 -6 17
-12 17 -7 0 -10 -14 -7 -35 2 -19 1 -35 -4 -35 -4 0 -5 -7 -2 -15 4 -10 2 -13
-8 -10 -10 4 -18 -7 -27 -37 -9 -30 -10 -43 -2 -46 16 -5 13 -22 -4 -22 -9 0
-15 -9 -15 -25 0 -40 -20 -29 -21 13 -1 36 -2 35 -15 -18 -8 -30 -19 -77 -24
-104 -6 -27 -17 -54 -26 -60 -8 -7 -18 -31 -21 -54 -3 -26 -11 -42 -19 -42
-17 0 -18 -27 -1 -33 7 -3 5 -6 -5 -6 -11 -1 -18 -9 -18 -20 0 -25 -25 -83
-32 -75 -3 3 -10 -10 -16 -28 -5 -18 -18 -61 -28 -95 -14 -46 -24 -63 -36 -63
-10 0 -18 -5 -18 -11 0 -6 -7 -17 -15 -25 -8 -9 -15 -26 -15 -39 0 -13 -4 -26
-9 -29 -4 -3 -11 -25 -15 -48 -4 -23 -11 -45 -16 -48 -10 -6 -41 -111 -44
-150 -5 -61 -19 -111 -31 -107 -7 3 -17 -21 -28 -68 -31 -130 -87 -261 -87
-201 0 8 -4 16 -9 18 -8 3 0 80 25 238 4 27 -7 13 -48 -63 -58 -107 -60 -107
-72 3 -4 36 -16 98 -27 138 -22 79 -21 88 23 177 105 210 211 466 254 616 30
105 134 585 185 859 11 58 28 150 39 205 11 55 21 147 24 205 3 73 11 122 25
159 11 30 19 56 17 58 -8 8 -59 -116 -78 -191 -22 -83 -46 -131 -33 -66 16 88
49 201 75 262 l28 67 -35 -26 c-18 -14 -39 -35 -44 -45 -17 -31 -22 -13 -9 29
17 53 93 167 127 190 41 28 96 51 139 59 32 6 35 8 19 14 -11 4 -31 6 -45 4
-14 -1 -47 -6 -75 -9 -47 -5 -49 -4 -32 12 14 14 35 18 105 18 83 0 92 -2 192
-48 58 -26 109 -47 114 -47 19 0 -99 101 -146 124 -98 49 -202 26 -314 -70
-49 -41 -104 -120 -104 -149 0 -6 -9 -20 -21 -31 -26 -23 -52 -71 -46 -87 2
-6 12 3 22 21 24 39 40 42 30 5 -22 -88 -26 -153 -14 -256 13 -122 8 -247 -15
-352 -8 -38 -47 -234 -86 -435 -70 -358 -95 -465 -147 -625 -112 -352 -191
-515 -247 -515 -34 0 -88 40 -109 80 -13 26 -17 55 -16 110 2 59 -2 84 -19
116 -30 59 -128 180 -193 238 -70 64 -119 86 -192 86 -51 0 -62 -4 -88 -29
-24 -24 -29 -38 -29 -76 0 -76 46 -130 144 -165 67 -25 138 -86 168 -143 17
-34 18 -43 7 -63 -11 -21 -20 -24 -65 -24 -36 0 -71 8 -106 25 -29 13 -80 31
-113 40 -49 12 -68 23 -100 59 -22 24 -74 80 -115 125 -55 60 -88 108 -122
178 -26 53 -59 116 -73 140 -14 24 -23 47 -20 53 3 5 0 12 -8 17 -7 4 -37 39
-66 76 -106 135 -271 238 -490 306 -63 20 -89 22 -180 19 -95 -4 -117 -9 -216
-47 -102 -40 -180 -75 -246 -111 -25 -14 -68 -65 -164 -194 -37 -49 -69 -129
-106 -266 -39 -143 -11 -379 60 -518 10 -21 35 -68 54 -107 116 -230 225 -374
467 -615 105 -105 125 -120 230 -174 146 -75 235 -133 281 -182 20 -22 85
-102 144 -179 149 -191 214 -264 325 -363 180 -161 366 -253 565 -282 179 -26
303 18 435 154 110 113 149 167 195 272 22 49 58 114 82 144 94 122 162 289
150 366 -3 19 -15 47 -26 63 -27 37 -26 43 5 160 57 211 171 510 228 596 20
29 36 60 36 68 0 8 7 17 15 21 8 3 15 15 15 27 0 24 53 134 79 164 10 11 32
45 50 75 60 99 219 293 325 395 39 37 86 100 86 115 0 6 13 37 29 69 33 64 61
162 61 210 0 35 15 42 23 10 3 -12 12 -19 19 -17 34 12 12 178 -52 383 -43
140 -67 241 -58 250 9 9 123 -20 278 -73 164 -55 138 -31 224 -212 90 -193
304 -452 416 -504 97 -45 146 -35 389 78 77 36 145 66 150 66 17 0 115 -117
241 -287 69 -93 136 -178 150 -189 20 -15 42 -19 110 -19 47 0 99 4 115 8 26
6 42 0 111 -41 44 -27 206 -113 360 -191 323 -164 340 -169 465 -131 42 13 86
34 102 49 22 20 30 23 36 12 10 -16 69 51 121 139 60 100 430 494 525 557 22
15 72 51 110 79 64 47 125 84 140 84 3 0 5 -7 5 -16 0 -14 3 -14 15 -4 8 7 15
19 15 26 0 8 5 14 10 14 6 0 10 -9 10 -20 0 -33 40 -108 71 -134 16 -14 47
-35 68 -47 l40 -22 -19 -36 c-37 -73 -51 -143 -40 -199 13 -72 23 -87 70 -106
63 -25 138 -21 201 12 75 39 92 73 97 188 l4 92 72 -54 c39 -30 87 -76 106
-102 52 -68 120 -185 120 -205 0 -9 11 -27 25 -39 14 -12 46 -50 70 -83 78
-105 168 -144 377 -160 66 -5 100 -3 141 9 102 29 186 132 217 264 21 92 18
246 -9 337 -13 44 -27 84 -32 89 -5 6 -9 17 -9 26 0 52 -201 281 -309 352 -40
26 -77 48 -82 48 -19 0 -163 95 -214 141 -66 61 -112 122 -160 214 -124 234
-195 315 -343 389 -116 57 -169 71 -277 71 -111 -1 -171 -24 -210 -82 -121
-178 -145 -222 -160 -292 -8 -39 -28 -95 -45 -124 -31 -55 -37 -95 -21 -126 7
-13 4 -27 -9 -49 -53 -87 -244 -183 -440 -221 -188 -36 -197 -40 -236 -85 -34
-39 -69 -96 -60 -96 2 0 24 18 47 40 63 59 117 81 232 96 118 15 229 49 325
101 93 51 116 71 233 211 22 25 74 30 104 8 39 -28 -14 -94 -129 -160 -27 -16
-65 -40 -85 -54 -35 -24 -32 -25 27 -6 13 4 18 0 18 -15 0 -15 -5 -19 -17 -16
-9 3 -21 -1 -28 -9 -7 -8 -23 -17 -37 -20 -14 -4 -22 -11 -19 -16 3 -6 -6 -10
-20 -10 -17 0 -24 -4 -19 -11 4 -7 0 -9 -12 -5 -20 6 -44 -5 -47 -20 -1 -5
-10 -8 -20 -7 -10 2 -15 -2 -12 -7 3 -6 -5 -10 -19 -10 -14 0 -27 -4 -30 -9
-3 -4 -34 -18 -68 -30 -101 -35 -113 -42 -100 -50 8 -5 -2 -16 -29 -34 -22
-15 -44 -27 -48 -27 -13 0 -85 -40 -109 -61 -13 -11 -27 -18 -30 -14 -3 3 -30
-18 -59 -47 -55 -54 -71 -51 -28 6 14 18 25 37 25 42 0 10 -54 -51 -77 -88
-18 -30 -38 -36 -46 -15 -3 8 -11 5 -25 -11 -15 -17 -26 -21 -46 -16 -14 3
-29 10 -31 15 -11 16 25 152 54 205 29 53 31 70 5 36 -8 -9 -32 -53 -55 -97
-22 -44 -51 -91 -64 -104 l-23 -23 -75 72 c-42 39 -79 80 -82 89 -3 10 7 44
21 77 50 111 71 214 55 257 -8 22 -31 37 -103 71 -51 24 -114 51 -140 60 -58
21 -128 71 -128 92 0 9 13 46 29 82 43 99 54 146 60 267 l6 110 97 -4 c93 -3
100 -2 150 26 29 17 78 38 108 48 78 25 114 51 204 144 53 55 76 86 72 97 -3
9 -6 20 -6 25 0 5 -13 9 -28 9 -16 0 -31 3 -35 6 -3 4 15 27 41 53 54 52 102
131 127 208 15 46 15 54 2 73 l-14 21 -32 -26 c-41 -35 -41 -16 0 78 39 87 53
223 26 246 -14 11 -22 8 -57 -20 -22 -18 -43 -30 -46 -27 -3 3 -1 32 5 64 20
107 10 287 -13 228 -3 -9 -11 -58 -16 -108 -13 -125 -49 -243 -88 -288 -14
-16 -13 -18 4 -18 28 0 113 44 147 76 16 14 31 24 34 21 3 -3 0 -36 -6 -73
-21 -117 -154 -363 -212 -390 -26 -13 -51 -23 -114 -48 -30 -11 -34 -15 -17
-15 14 -1 21 -5 17 -12 -4 -6 10 -1 31 10 60 32 71 40 196 133 65 48 118 84
118 80 0 -5 -14 -30 -31 -57 -51 -81 -131 -149 -236 -201 -52 -26 -97 -53
-100 -61 -3 -7 -13 -13 -23 -13 -10 0 -20 -4 -22 -9 -4 -11 -118 -1 -118 10 0
5 11 9 25 9 14 0 25 4 25 9 0 10 -56 41 -72 41 -6 0 -21 9 -35 20 -14 11 -34
20 -45 20 -15 0 -6 16 44 75 82 98 168 223 168 244 -1 15 -1 15 -10 -1 -8 -13
-140 -88 -157 -88 -3 0 2 11 11 24 38 58 86 198 94 270 8 75 1 120 -13 77 -3
-11 -10 -21 -15 -21 -5 0 -13 -12 -19 -27 -10 -26 -11 -24 -5 12 3 22 7 60 10
85 4 45 4 44 -14 -15 -24 -76 -51 -140 -57 -133 -3 3 2 21 10 41 14 33 45 164
45 188 0 5 -6 9 -14 9 -15 0 -22 19 -32 98 -4 32 -11 52 -19 52 -18 0 -28 70
-16 104 6 15 11 37 11 49 l-1 22 -18 -22 -19 -22 -17 57 c-34 116 -54 152 -81
152 -8 0 -25 -22 -38 -48 -27 -54 -112 -162 -127 -162 -5 0 -9 6 -9 14 0 27
-20 28 -30 2 -5 -14 -12 -26 -16 -26 -3 0 -4 6 -1 14 3 8 3 17 -1 20 -5 6 -29
-26 -80 -106 -19 -32 -39 -36 -45 -10 -2 11 -15 -5 -35 -48 -18 -36 -32 -71
-32 -77 0 -15 -16 -17 -25 -3 -27 43 -48 -45 -40 -168 6 -107 -6 -101 -26 13
-25 147 -53 17 -30 -143 4 -29 4 -55 1 -57 -12 -8 -82 48 -137 109 -61 67
-106 156 -123 244 -12 60 -11 117 6 323 8 93 -5 126 -86 213 -111 121 -117
136 -78 214 24 46 105 127 170 169 21 13 148 79 281 147 133 68 313 160 399
205 187 96 201 98 338 45 83 -32 211 -61 512 -118 161 -30 330 -110 370 -175
21 -33 21 -34 3 -68 -10 -18 -65 -74 -122 -124 -57 -50 -109 -103 -115 -117
-16 -39 -15 -107 4 -190 14 -61 15 -90 6 -174 -12 -122 -6 -158 33 -202 40
-46 87 -66 165 -71 37 -2 69 -7 73 -12 130 -187 221 -234 353 -182 29 12 93
27 143 35 67 10 99 20 129 41 43 31 106 107 131 161 10 20 29 38 53 48 71 29
100 69 127 174 9 36 34 102 57 147 39 78 41 84 36 155 -3 42 -13 90 -24 113
-62 132 -491 461 -805 619 -112 57 -834 479 -859 504 -3 2 4 9 14 16 10 6 30
21 44 32 l26 21 -25 8 c-13 3 -43 15 -66 26 -24 10 -59 19 -78 19 l-35 0 0 55
c0 30 -4 55 -10 55 -5 0 -10 -7 -10 -15 0 -18 -17 -20 -22 -3 -3 8 -18 7 -53
-5 -27 -10 -63 -17 -81 -17 -49 0 -54 -4 -148 -105 l-87 -94 48 21 c26 11 75
39 108 62 33 23 72 43 88 44 15 1 27 0 27 -2 0 -2 -25 -21 -55 -41 -30 -21
-53 -40 -51 -42 6 -7 61 18 93 43 17 13 40 24 50 24 16 -1 15 -3 -6 -21 -13
-11 -21 -23 -17 -26 4 -4 44 -2 89 5 46 7 99 12 118 11 31 -1 29 -2 -21 -16
-30 -8 -59 -18 -65 -23 -5 -4 -27 -11 -48 -15 -42 -8 -68 -39 -39 -48 9 -3 78
-23 153 -45 75 -22 147 -45 160 -52 32 -17 182 -105 359 -210 203 -122 343
-201 430 -244 77 -39 117 -65 70 -48 -15 6 -109 51 -210 101 -101 50 -190 91
-197 91 -27 0 -2 -19 72 -54 41 -20 75 -40 75 -46 0 -13 -26 -4 -135 44 -33
14 -85 30 -115 35 -59 10 -131 30 -195 55 l-40 16 50 -5 c28 -4 61 -8 75 -11
22 -5 23 -4 10 9 -17 16 -125 37 -188 37 -42 0 -86 14 -179 56 -28 13 -56 24
-62 24 -6 0 -60 14 -120 31 -120 33 -199 38 -98 5 68 -21 71 -28 7 -16 -66 12
-145 4 -230 -24 -124 -40 -292 -102 -339 -125 -25 -11 -57 -21 -72 -21 -30 0
-47 -15 -27 -23 7 -2 -4 -5 -24 -5 -26 0 -38 4 -38 14 0 20 -14 17 -36 -7 -16
-19 -43 -38 -112 -84 -9 -5 -24 -17 -34 -25 -10 -8 -24 -15 -31 -16 -33 -3
-38 -5 -32 -14 3 -5 -1 -10 -9 -10 -9 0 -16 -4 -16 -10 0 -5 -6 -10 -14 -10
-8 0 -21 -6 -28 -14 -8 -7 -24 -17 -36 -20 -12 -4 -20 -11 -17 -16 5 -8 -111
-70 -131 -70 -5 0 -27 -5 -49 -11 -35 -10 -37 -13 -20 -20 16 -8 15 -8 -6 -4
-15 3 -44 -2 -65 -9 l-39 -15 38 0 c51 -1 47 -21 -5 -21 -84 0 -168 21 -193
48 -13 14 -27 24 -29 21 -12 -12 91 -110 129 -124 l40 -13 -29 -7 c-15 -4 -31
-4 -35 1 -3 5 -20 9 -38 10 -18 1 -48 13 -68 28 -40 30 -46 22 -13 -19 20 -25
20 -27 2 -23 -53 9 -69 143 -34 278 42 161 100 242 242 336 61 39 115 49 63
11 -47 -34 -106 -89 -101 -94 2 -2 27 10 54 27 70 43 233 111 257 108 14 -2
-4 -17 -60 -48 -105 -59 -75 -64 52 -9 54 23 113 48 131 55 52 23 37 2 -35
-45 -37 -25 -61 -47 -54 -49 19 -6 99 27 166 70 33 20 90 53 126 72 36 19 92
51 125 70 78 47 89 45 34 -5 -25 -22 -36 -37 -25 -33 11 4 70 24 131 45 62 21
136 50 165 65 85 42 293 214 260 214 -22 0 -95 -42 -137 -79 -56 -48 -173
-117 -222 -131 -23 -6 -58 -8 -79 -5 -38 6 -62 -3 -288 -110 -64 -30 -188 -59
-228 -52 -38 6 -226 -18 -317 -41 -35 -9 -84 -30 -110 -47 -25 -17 -63 -43
-84 -58 -41 -28 -86 -34 -142 -18 -18 5 -52 5 -81 0 -74 -14 -120 5 -161 67
-31 44 -34 54 -30 107 3 34 11 64 20 73 9 9 44 22 79 30 98 21 525 92 602 100
75 7 91 22 62 54 -16 18 -15 19 38 25 31 4 77 4 104 1 108 -14 108 -14 107 19
0 17 -6 64 -12 105 -6 41 -10 76 -8 77 1 2 31 7 65 11 60 8 63 8 71 -14 12
-32 28 -38 53 -21 29 19 54 88 68 192 12 84 21 101 34 68 11 -31 35 14 35 67
0 43 -29 194 -45 233 -5 12 -2 17 8 17 50 0 4 76 -100 164 l-70 59 34 30 c28
25 44 57 28 57 -3 0 -58 -13 -123 -30 -64 -16 -126 -31 -137 -33 -24 -5 -19
-7 82 -36 53 -16 93 -37 153 -82 45 -33 80 -62 78 -65 -3 -2 -34 3 -69 11 -96
21 -292 56 -296 51 -2 -2 25 -22 59 -44 181 -118 270 -272 272 -469 1 -121
-16 -143 -33 -40 -18 110 -37 175 -63 213 -38 56 -69 35 -32 -21 9 -14 12 -25
7 -25 -4 0 -42 45 -83 100 -41 54 -79 99 -83 100 -5 0 1 -13 12 -29 12 -16 41
-71 65 -122 93 -199 126 -271 126 -276 0 -3 -28 -3 -63 0 -42 4 -97 21 -169
51 -59 25 -112 46 -117 46 -25 0 -7 -22 49 -60 33 -22 60 -43 60 -45 0 -2 -21
4 -47 14 -154 58 -164 60 -128 22 31 -34 113 -82 171 -101 18 -6 42 -23 53
-38 25 -33 29 -8 5 26 -23 33 -11 38 14 7 19 -24 39 -101 29 -111 -2 -2 -109
-5 -238 -7 -207 -2 -240 0 -287 17 -29 10 -55 16 -58 13 -9 -9 80 -56 167 -88
121 -44 122 -45 28 -58 -46 -7 -192 -30 -324 -51 -132 -21 -278 -41 -325 -45
-47 -3 -154 -15 -237 -25 -221 -28 -749 -38 -851 -17 -138 30 -254 108 -336
225 -38 55 -86 177 -93 236 l-6 49 29 -7 c16 -5 54 -10 84 -12 30 -2 91 -16
135 -33 185 -67 311 -76 477 -32 83 23 243 93 304 135 46 31 66 32 130 7 27
-11 130 -45 230 -75 99 -30 216 -71 259 -91 43 -19 80 -34 82 -32 5 6 -186 93
-242 110 -27 9 -95 28 -150 42 -111 30 -225 73 -225 85 0 10 61 59 110 89 20
12 52 21 73 21 56 0 426 -108 612 -178 88 -34 161 -59 163 -58 6 7 -218 96
-349 140 -74 24 -194 61 -268 82 -109 30 -131 40 -117 48 60 37 136 98 136
111 0 19 23 19 175 0 164 -20 380 -61 446 -84 91 -32 95 -33 59 -13 -73 41
-250 79 -540 117 -102 14 -209 29 -238 35 -30 6 -59 9 -65 7 -7 -2 11 -8 38
-12 75 -11 84 -20 32 -33 -30 -8 -55 -23 -75 -47 -37 -41 -52 -43 -246 -26
-178 16 -191 11 -51 -22 66 -16 127 -31 135 -33 10 -4 -2 -20 -40 -54 -55 -50
-58 -51 -117 -34 -20 5 -22 3 -20 -25 2 -25 5 -30 21 -25 12 4 17 2 14 -7 -6
-18 -140 -84 -233 -115 -173 -57 -390 -39 -535 44 -54 31 -69 46 -93 93 -19
36 -30 77 -33 115 l-4 59 67 53 c38 29 119 77 181 107 119 58 187 105 195 135
3 10 -6 34 -19 53 -50 74 -198 89 -344 35 -47 -17 -110 -33 -140 -35 -51 -4
-59 -2 -113 36 -32 23 -64 41 -72 41 -42 0 1 58 92 127 41 31 81 65 88 77 22
33 204 550 205 579 0 9 3 16 8 15 4 -1 19 6 35 16 32 21 52 84 63 191 3 39 11
78 16 87 12 23 63 49 101 51 17 1 32 7 34 14 5 14 -68 11 -107 -5 -22 -8 -29
-5 -56 24 -29 31 -37 34 -85 34 -30 -1 -67 -7 -84 -14z m49 -47 c11 -56 7 -65
-15 -31 -12 18 -18 39 -15 47 9 25 23 17 30 -16z m76 6 c0 -9 -6 -12 -15 -9
-12 5 -14 0 -9 -27 4 -26 3 -30 -5 -19 -15 21 -14 57 2 63 21 9 27 7 27 -8z
m-136 -21 c9 -22 -3 -32 -14 -14 -12 19 -12 30 -1 30 5 0 12 -7 15 -16z m-37
-163 c30 -44 29 -50 -7 -57 -29 -6 -104 -77 -97 -92 2 -4 -8 -18 -21 -32 l-24
-25 7 44 c9 56 40 147 61 179 21 32 53 25 81 -17z m27 -147 c14 -15 26 -36 26
-48 0 -18 -3 -16 -19 11 -11 17 -29 34 -40 38 -12 3 -19 11 -16 16 10 15 21
11 49 -17z m-144 -177 c-59 -100 -86 -251 -64 -368 7 -41 16 -83 19 -94 5 -16
-1 -22 -32 -32 -21 -6 -39 -10 -41 -8 -2 1 -6 43 -9 91 -4 70 0 110 16 184 23
101 69 211 103 247 29 31 33 22 8 -20z m98 -41 c5 -37 -13 -71 -44 -85 -46
-21 -74 12 -54 65 17 44 31 55 64 52 26 -3 32 -8 34 -32z m-122 -163 c-11 -11
-19 6 -11 24 8 17 8 17 12 0 3 -10 2 -21 -1 -24z m-209 -169 c-3 -3 -12 -4
-19 -1 -8 3 -5 6 6 6 11 1 17 -2 13 -5z m143 -359 c76 -62 93 -66 172 -34 103
42 174 59 241 59 68 0 128 -17 142 -41 6 -9 3 -10 -11 -4 -10 5 -47 11 -82 13
-69 4 -93 -3 -240 -67 -51 -23 -107 -41 -125 -41 -27 0 -122 54 -206 117 -8 6
19 53 30 53 7 0 42 -25 79 -55z m510 -42 c0 -5 -36 -8 -79 -8 -44 0 -74 3 -68
7 16 10 147 10 147 1z m-537 -140 c59 -67 115 -127 125 -135 26 -19 30 -26 63
-145 28 -101 29 -108 13 -120 -41 -30 -134 -2 -195 59 -19 18 -52 69 -73 111
-39 77 -40 79 -45 217 -3 77 -3 139 0 138 3 -2 54 -58 112 -125z m-308 22 c91
-15 154 -37 161 -57 3 -11 2 -24 -3 -28 -11 -10 -232 -32 -245 -24 -10 6 -3
98 8 116 3 5 13 7 22 4 10 -3 35 -8 57 -11z m3251 -141 c18 -31 28 -65 32
-109 2 -36 2 -65 -1 -65 -3 0 -13 26 -22 57 -18 62 -68 168 -85 178 -5 3 -10
11 -10 16 0 21 61 -34 86 -77z m-3067 -53 c30 -103 86 -191 151 -237 27 -20
50 -39 50 -42 0 -31 25 -146 40 -191 25 -69 25 -69 -2 -45 -13 11 -32 26 -43
34 -19 14 -19 14 -5 -5 8 -11 24 -28 35 -38 17 -16 15 -16 -10 1 -44 30 -173
175 -205 232 -5 8 -11 13 -14 10 -2 -3 13 -31 36 -63 78 -115 16 -62 -86 73
-31 41 -80 122 -108 180 -28 58 -54 113 -59 122 -5 10 -5 20 2 23 15 10 97 22
149 24 l45 1 24 -79z m-917 -15 c127 -12 168 -19 210 -39 56 -26 111 -74 132
-116 26 -52 60 -204 57 -253 -1 -18 -98 -128 -113 -128 -5 0 6 15 26 33 19 19
40 47 47 63 14 37 13 149 -2 186 -13 32 -16 33 -38 14 -21 -17 -145 -48 -165
-40 -11 4 -16 1 -16 -10 0 -20 -19 -21 -26 -1 -16 40 -198 126 -342 161 -41 9
-76 23 -79 30 -8 20 26 74 60 94 38 24 46 24 249 6z m-337 -128 c238 -80 356
-142 408 -215 l30 -42 -40 -41 c-26 -26 -50 -40 -66 -40 -14 0 -27 -5 -29 -11
-2 -6 -26 -13 -53 -15 -40 -2 -58 2 -87 22 -21 13 -43 24 -50 24 -7 0 -61 25
-121 54 -59 30 -130 59 -157 65 -28 6 -69 20 -91 32 -36 18 -40 24 -34 46 3
14 9 39 12 55 7 36 62 95 95 101 36 7 85 -2 183 -35z m-205 -235 c160 -53 254
-113 321 -206 l28 -39 -30 -41 c-17 -23 -37 -41 -45 -39 -8 2 -14 -1 -14 -6 0
-6 -17 -13 -37 -17 -45 -8 -77 -37 -60 -54 6 -6 7 -14 3 -18 -4 -4 -21 8 -37
27 -19 21 -26 26 -19 13 6 -14 7 -23 1 -23 -5 0 -11 3 -13 8 -4 9 -82 71 -138
109 -47 32 -167 83 -194 83 -38 0 -9 -30 82 -85 103 -63 199 -145 213 -183 6
-14 5 -31 -3 -45 -6 -12 -14 -28 -18 -36 -3 -8 -15 -19 -26 -25 -10 -6 -31
-19 -46 -29 -23 -15 -36 -16 -85 -8 -32 5 -75 17 -97 26 -49 21 -60 11 -12
-11 33 -16 48 -34 28 -34 -14 0 -102 61 -102 71 0 5 -5 9 -12 9 -7 0 -27 14
-45 32 -18 17 -36 29 -39 25 -11 -11 45 -128 71 -149 13 -10 41 -47 61 -81 76
-127 146 -177 264 -190 41 -4 96 -9 121 -11 26 -2 52 -7 58 -10 6 -4 16 -4 21
-1 6 3 10 -1 10 -11 0 -12 6 -15 25 -12 19 4 25 1 25 -13 0 -25 8 -24 36 7 13
14 29 22 34 19 15 -10 12 -68 -6 -93 -27 -39 -8 -23 37 31 24 28 36 46 26 38
-20 -16 -23 -2 -4 21 15 19 90 48 120 47 15 0 8 -6 -21 -16 -55 -19 -48 -28 9
-12 24 7 52 13 61 14 10 1 26 9 36 18 9 9 40 21 67 27 51 11 119 46 213 108
29 19 55 32 57 30 3 -3 -16 -26 -42 -52 -61 -62 -174 -118 -304 -151 -144 -37
-177 -53 -224 -113 -70 -89 -182 -127 -296 -98 -143 36 -235 105 -343 255 -72
100 -183 316 -210 410 -20 68 -21 190 -2 236 20 48 59 70 125 71 44 0 58 5 73
24 14 17 16 26 7 36 -31 37 26 135 88 152 48 13 74 8 203 -35z m1117 -104 c18
-12 47 -44 63 -73 31 -53 37 -71 20 -61 -6 4 -10 -6 -10 -23 0 -16 -7 -35 -15
-42 -8 -7 -15 -20 -15 -29 -1 -11 -5 -8 -15 9 -11 20 -14 21 -15 7 0 -38 -44
-89 -97 -112 -17 -8 -35 -19 -38 -25 -4 -6 -30 -11 -58 -11 -29 -1 -95 -3
-147 -6 -92 -4 -97 -3 -125 22 -17 14 -42 33 -57 43 -60 36 -17 133 67 152 22
5 67 10 100 10 78 1 103 14 157 80 67 84 118 100 185 59z m4259 -34 c-25 -23
-46 -32 -46 -20 0 10 45 45 58 45 10 0 5 -9 -12 -25z m-4130 -218 c14 -98 -56
-221 -160 -282 -43 -25 -116 -43 -116 -29 0 5 28 25 61 44 110 63 179 167 187
284 5 66 18 58 28 -17z m4202 26 c-10 -2 -28 -2 -40 0 -13 2 -5 4 17 4 22 1
32 -1 23 -4z m-2216 -192 c-3 -42 1 -69 12 -92 9 -18 14 -34 12 -37 -6 -5 -32
46 -40 81 -5 23 8 107 18 107 1 0 0 -27 -2 -59z m-2832 22 c0 -48 -23 -130
-42 -151 -21 -22 -97 -62 -119 -62 -22 0 -7 39 19 49 50 19 108 87 118 141 6
26 24 44 24 23z m250 -60 c59 -63 176 -96 248 -70 22 8 22 8 -2 -18 -23 -25
-27 -26 -80 -16 -30 6 -73 19 -94 30 -41 21 -132 114 -132 135 0 6 7 2 16 -9
8 -11 28 -34 44 -52z m-150 23 c0 -3 -4 -8 -10 -11 -5 -3 -10 -1 -10 4 0 6 5
11 10 11 6 0 10 -2 10 -4z m2180 -51 c29 18 169 2 273 -31 14 -4 17 -3 12 6
-5 9 -1 10 16 5 13 -4 28 -11 34 -16 5 -5 21 -9 35 -9 24 0 32 -10 69 -90 24
-49 46 -90 50 -90 6 0 15 -19 74 -150 11 -25 22 -48 24 -52 2 -5 0 -8 -5 -8
-5 0 -21 23 -36 51 -16 28 -30 48 -32 46 -2 -2 7 -34 21 -71 35 -94 34 -109
-20 -231 -8 -16 -15 -39 -17 -50 -3 -14 -17 4 -46 63 -23 45 -44 82 -46 82 -5
0 23 -152 34 -184 13 -37 12 -45 -1 -26 -8 12 -9 9 -5 -13 5 -19 2 -29 -9 -33
-8 -4 -15 -17 -15 -31 l0 -25 -18 22 c-17 21 -17 21 -14 -24 2 -26 1 -54 -2
-63 -11 -26 -29 0 -76 107 l-41 95 5 -75 c3 -41 8 -92 12 -112 3 -24 2 -38 -5
-38 -6 0 -8 -7 -5 -15 10 -25 -23 -17 -51 13 -25 26 -65 118 -65 148 0 8 -8
29 -17 47 l-17 32 -8 -59 c-8 -65 -18 -82 -42 -73 -21 8 -31 36 -46 129 -11
65 -10 83 3 122 22 66 2 47 -35 -32 -26 -56 -32 -63 -36 -43 -8 46 9 130 34
166 32 47 31 65 -2 34 -24 -22 -26 -22 -22 -4 2 17 -2 20 -32 18 -19 -1 -36
-6 -38 -12 -6 -18 -22 -13 -22 7 1 9 29 38 64 63 57 42 65 53 84 111 12 35 22
76 22 90 0 38 -25 103 -71 182 -39 69 -40 70 -11 42 18 -16 35 -25 42 -21z
m-2540 -171 c-29 -46 -113 -94 -165 -94 l-40 1 45 22 c65 32 128 86 153 132
l22 40 3 -33 c2 -21 -5 -45 -18 -68z m3130 42 c0 -12 -5 -7 -19 24 -11 24 -11
24 3 6 9 -11 16 -24 16 -30z m2417 18 c-3 -3 -12 -4 -19 -1 -8 3 -5 6 6 6 11
1 17 -2 13 -5z m-428 -18 c-5 -5 -288 -151 -594 -306 -471 -240 -443 -221
-635 -410 -93 -92 -170 -164 -170 -159 0 36 219 245 392 372 92 68 257 167
278 167 8 0 47 19 85 41 39 23 85 48 103 55 18 8 62 32 97 54 36 22 72 40 81
40 8 0 25 7 37 16 30 22 346 148 326 130z m700 -72 c12 -11 -8 -10 -39 2 l-35
14 35 -6 c19 -4 37 -8 39 -10z m-1409 2 c0 -3 -4 -8 -10 -11 -5 -3 -10 -1 -10
4 0 6 5 11 10 11 6 0 10 -2 10 -4z m845 -41 c55 -19 143 -41 195 -49 172 -27
204 -34 330 -75 148 -48 274 -114 309 -162 l25 -34 -29 27 c-101 90 -335 171
-605 208 -108 15 -194 38 -266 72 -58 27 -87 48 -67 48 4 0 52 -16 108 -35z
m940 -57 c7 -7 2 -8 -15 -3 -14 4 -29 12 -35 17 -7 7 -2 8 15 3 14 -4 30 -12
35 -17z m-5765 -18 c-19 -13 -30 -13 -30 0 0 6 10 10 23 10 18 0 19 -2 7 -10z
m5763 -50 c7 0 21 -18 31 -40 11 -22 20 -40 22 -40 1 0 14 4 28 9 18 7 28 6
36 -5 7 -7 18 -14 24 -14 18 0 130 -61 149 -81 9 -10 12 -14 5 -9 -7 6 -20 10
-30 10 -14 0 -9 -10 22 -42 22 -24 35 -45 30 -46 -6 -2 4 -21 21 -43 38 -48
88 -163 89 -203 0 -16 18 -61 40 -101 24 -43 38 -80 34 -89 -3 -9 -2 -16 4
-16 13 0 22 -48 10 -52 -5 -2 -5 -30 1 -68 6 -36 11 -84 11 -107 0 -36 -3 -43
-19 -43 -11 0 -22 6 -24 13 -3 6 -6 2 -6 -11 -1 -18 -5 -22 -20 -17 -12 3 -21
0 -25 -10 -10 -26 -106 -16 -106 12 0 15 -40 52 -69 65 -14 6 -14 7 1 7 14 1
11 11 -20 56 -20 31 -47 58 -59 61 -12 3 -25 15 -28 25 -7 22 -21 25 -27 7 -3
-8 -9 -4 -17 9 -10 19 -14 21 -31 11 -15 -10 -23 -9 -39 6 -17 15 -23 16 -36
6 -12 -10 -16 -9 -21 4 -3 9 -13 16 -20 16 -8 0 -17 7 -21 16 -4 12 -8 11 -17
-8 -8 -15 -21 -23 -36 -23 -28 0 -70 -37 -70 -60 0 -9 -7 -15 -17 -13 -11 2
-22 -8 -31 -24 -8 -18 -21 -28 -35 -28 -18 0 -19 -2 -7 -10 13 -8 13 -10 -2
-10 -16 0 -18 -6 -34 -125 -13 -95 -28 -10 -29 160 0 88 -4 181 -9 207 -5 26
-6 58 -2 72 10 39 61 92 156 162 48 35 92 74 98 88 14 31 32 34 32 6 0 -30 19
-24 34 10 l13 31 11 -23 c11 -20 12 -18 8 20 -7 68 15 41 60 -73 6 -15 9 -6
14 34 3 30 11 56 18 59 6 2 12 -2 12 -9 0 -7 2 -10 5 -7 8 7 -63 163 -102 226
-18 29 -33 56 -32 60 0 4 3 1 6 -5 2 -7 10 -13 16 -13z m-5512 -175 c14 -27
20 -49 15 -61 -6 -16 -10 -13 -21 19 -7 20 -30 61 -52 90 -59 78 -61 87 -10
38 25 -24 56 -63 68 -86z m2705 -317 c-23 -16 75 -311 126 -380 39 -52 43 -67
8 -28 -43 48 -105 179 -130 275 -34 134 -43 242 -31 377 18 195 26 187 31 -32
3 -116 1 -208 -4 -212z m-992 170 c-7 -23 49 -235 77 -290 70 -139 178 -202
306 -178 131 24 229 108 309 265 28 55 62 129 74 165 25 69 66 143 57 103 -4
-19 0 -22 54 -28 l59 -7 0 -46 c0 -216 66 -435 173 -581 26 -35 51 -79 56 -99
43 -163 66 -237 99 -320 38 -99 43 -105 177 -226 l50 -46 -61 0 c-56 0 -208
27 -363 64 -35 8 -60 11 -55 6 5 -4 68 -22 139 -39 72 -18 139 -34 150 -37 11
-3 48 -7 83 -10 35 -2 73 -11 86 -19 13 -9 30 -13 38 -10 9 4 45 -12 85 -38
38 -25 123 -74 189 -111 117 -65 174 -82 174 -51 0 21 -52 122 -109 214 -55
88 -123 215 -141 263 -7 18 -14 27 -17 21 -2 -7 -11 -13 -18 -13 -15 0 -31
198 -20 249 13 61 22 38 28 -74 6 -111 8 -117 48 -192 24 -43 64 -103 90 -133
82 -97 120 -151 135 -194 19 -56 36 -86 47 -86 5 0 6 7 3 16 -8 21 11 44 38
45 14 0 16 2 6 6 -23 8 -70 55 -70 69 0 15 26 6 169 -63 54 -26 113 -63 141
-89 45 -42 51 -54 90 -177 23 -73 48 -142 56 -154 20 -32 56 -125 50 -131 -3
-2 -33 21 -67 52 -73 66 -132 88 -282 106 -101 12 -196 6 -367 -25 -97 -17
-220 -20 -220 -5 0 6 6 10 13 10 6 0 48 17 92 39 126 61 171 73 285 78 182 9
334 -31 429 -111 24 -20 46 -34 49 -32 2 3 -11 24 -29 48 -46 57 -55 77 -69
145 -23 109 -55 148 -163 199 -29 13 -61 23 -72 23 -11 0 -14 -3 -7 -6 6 -2
12 -11 12 -19 0 -8 7 -14 15 -14 8 0 15 -4 15 -10 0 -5 12 -10 27 -10 14 0 24
-3 20 -6 -3 -3 2 -14 11 -24 10 -10 25 -30 35 -44 10 -14 26 -26 36 -26 10 0
22 -10 28 -22 32 -67 44 -100 39 -105 -3 -3 -29 1 -58 10 -107 32 -166 40
-265 34 -145 -8 -278 -46 -463 -135 -47 -23 -240 -30 -269 -10 -18 13 -17 14
18 15 20 1 68 14 106 28 190 71 270 95 380 115 293 51 297 52 282 66 -16 16
-409 -63 -545 -109 -56 -19 -105 -31 -108 -26 -3 5 0 9 5 9 6 0 11 5 11 10 0
6 -22 10 -49 10 -81 0 -229 37 -361 89 -107 43 -260 126 -260 142 0 3 65 -16
144 -43 170 -56 286 -78 405 -77 116 1 164 17 56 18 -44 1 -96 6 -115 11 -19
6 -91 21 -160 35 -69 13 -173 39 -231 59 -59 20 -116 36 -127 36 -32 0 -230
150 -314 238 -72 75 -184 217 -210 265 l-10 20 33 -19 c21 -12 52 -49 80 -94
69 -111 119 -139 119 -67 0 34 -12 57 -67 121 -18 22 -33 44 -33 50 0 18 -89
227 -115 272 -26 44 -45 54 -112 54 -61 0 -57 -23 18 -90 49 -45 62 -63 68
-97 7 -35 2 -62 -16 -82 -2 -3 -10 4 -18 15 -21 26 -134 250 -152 299 -20 58
-42 202 -53 352 -11 140 -4 183 27 183 30 0 50 17 36 31 -9 9 -16 9 -29 -2
-16 -13 -17 -10 -11 43 3 32 9 63 13 70 10 15 46 -111 38 -134z m1305 126 c10
-9 -45 -3 -59 6 -11 7 -5 8 20 4 19 -4 37 -8 39 -10z m3170 -118 c100 -84 179
-168 196 -211 22 -51 19 -137 -6 -196 -12 -27 -25 -49 -30 -49 -14 0 -10 81 6
125 20 54 19 89 -4 133 -22 42 -96 122 -191 204 -89 78 -66 73 29 -6z m-3284
36 c-3 -3 -11 0 -18 7 -9 10 -8 11 6 5 10 -3 15 -9 12 -12z m2976 -19 c13 -16
12 -17 -3 -4 -10 7 -18 15 -18 17 0 8 8 3 21 -13z m-2521 3 c0 -2 -7 -7 -16
-10 -8 -3 -12 -2 -9 4 6 10 25 14 25 6z m2559 -52 c17 -38 6 -42 -14 -5 -8 17
-12 31 -7 31 5 0 14 -12 21 -26z m-4131 -124 c21 -74 39 -109 75 -147 17 -18
26 -33 19 -33 -7 0 -12 -4 -12 -10 0 -12 99 -86 125 -94 11 -3 2 -3 -19 -1
-105 12 -210 185 -221 365 -4 64 -4 64 6 20 6 -25 18 -70 27 -100z m1482 126
c0 -4 -103 -71 -140 -91 -42 -23 21 27 74 59 61 37 66 39 66 32z m-3872 -13
c-10 -2 -28 -2 -40 0 -13 2 -5 4 17 4 22 1 32 -1 23 -4z m2092 -34 c-12 -40
-20 -49 -20 -21 0 26 10 52 20 52 5 0 5 -14 0 -31z m117 -1 c-3 -8 -6 -5 -6 6
-1 11 2 17 5 13 3 -3 4 -12 1 -19z m786 -18 c-3 -10 -11 -24 -19 -31 -10 -8
-10 -3 2 20 18 35 24 40 17 11z m-12 -117 c-12 -20 -14 -14 -5 12 4 9 9 14 11
11 3 -2 0 -13 -6 -23z m822 -75 c-21 -83 -23 -107 -17 -220 4 -91 3 -128 -5
-128 -7 0 -11 22 -11 58 0 31 -5 85 -10 120 -9 55 -8 74 11 140 17 63 43 122
53 122 2 0 -8 -42 -21 -92z m-988 -53 c-16 -13 -36 -24 -44 -25 -8 0 1 11 20
24 45 32 62 33 24 1z m-1030 -35 c-3 -5 -11 -10 -16 -10 -6 0 -7 5 -4 10 3 6
11 10 16 10 6 0 7 -4 4 -10z m960 0 c-3 -5 -14 -10 -23 -9 -14 0 -13 2 3 9 27
11 27 11 20 0z m4162 -108 c9 -109 -24 -190 -95 -234 l-33 -21 3 38 c2 31 9
42 33 55 49 27 60 61 58 180 -1 98 0 103 14 77 8 -16 17 -58 20 -95z m-4257
82 c0 -2 -17 -4 -37 -4 -24 0 -33 3 -25 9 12 7 62 4 62 -5z m-2160 -132 c0 -4
21 -32 46 -62 25 -30 63 -81 85 -112 57 -83 144 -164 208 -195 31 -14 87 -31
126 -38 l70 -12 -41 -7 c-48 -9 -125 11 -182 46 -52 31 -158 134 -195 188 -16
25 -54 77 -84 116 -54 72 -60 84 -43 84 6 0 10 -3 10 -8z m3530 -33 c0 -37
-30 -160 -41 -173 -5 -6 -9 -1 -9 12 0 12 -5 31 -12 41 -9 15 -7 24 11 50 13
18 25 50 28 71 6 45 23 44 23 -1z m2194 10 c28 -7 61 -27 92 -56 36 -33 41
-40 19 -28 -16 10 -40 26 -51 37 -12 11 -48 28 -80 38 -64 21 -50 27 20 9z
m-1344 -69 c0 -5 -5 -10 -11 -10 -5 0 -7 5 -4 10 3 6 8 10 11 10 2 0 4 -4 4
-10z m1846 -133 c-22 -71 -54 -124 -98 -160 -28 -23 -58 -33 -135 -48 -54 -10
-126 -25 -161 -33 -80 -18 -113 -9 -170 46 -60 59 -76 93 -18 40 67 -61 83
-65 190 -47 50 9 117 20 150 25 100 15 189 95 221 200 26 84 28 88 33 57 2
-15 -4 -51 -12 -80z m-746 -22 c0 -23 -4 -25 -42 -25 -45 0 -93 19 -53 20 15
1 68 17 93 29 1 0 2 -10 2 -24z m-4926 -216 c-30 -30 -95 -42 -161 -30 -92 18
-96 30 -8 25 53 -4 97 0 130 9 28 8 52 15 55 16 2 0 -5 -8 -16 -20z m2468
-749 c9 -5 43 -5 83 1 48 8 70 8 78 0 17 -17 1 -24 -22 -9 -18 11 -22 10 -34
-6 -17 -23 -94 -38 -122 -24 -26 13 -65 49 -65 59 0 8 52 -5 82 -21z m-1801
-30 c-24 -22 -49 -40 -55 -40 -6 1 9 19 33 40 24 22 49 40 55 40 6 -1 -9 -19
-33 -40z m3639 -10 c-50 -21 -74 -25 -65 -10 7 11 60 28 90 29 11 0 0 -9 -25
-19z m-2280 -24 c47 -8 115 -22 151 -31 60 -15 71 -21 110 -68 24 -29 64 -74
88 -100 54 -57 75 -88 101 -144 10 -24 30 -58 44 -76 30 -39 50 -93 60 -159 4
-26 11 -50 17 -53 14 -9 11 -25 -6 -25 -8 0 -15 6 -15 14 0 8 -16 61 -35 118
-48 140 -117 253 -214 348 -104 102 -186 155 -147 95 16 -24 16 -25 -5 -25
-12 0 -23 8 -26 20 -3 11 -13 20 -22 21 -9 1 -5 4 9 8 21 7 18 9 -25 15 -27 4
-70 14 -94 22 -25 8 -52 14 -62 14 -10 0 -21 5 -24 10 -8 12 -8 12 95 -4z
m2390 -21 c-6 -8 -36 -26 -65 -40 -61 -30 -228 -51 -280 -36 -16 5 -23 10 -15
10 12 1 11 5 -4 16 -19 14 -18 15 13 15 18 0 83 9 145 19 240 42 227 41 206
16z m-1953 -60 c175 -30 316 -77 361 -121 19 -19 13 -18 -101 20 -101 33 -304
76 -363 76 -20 0 -39 9 -54 25 -29 31 -33 31 157 0z m981 -48 c7 -5 10 -13 6
-18 -3 -6 -11 -3 -18 7 -11 14 -23 16 -74 10 -34 -4 -62 -3 -62 1 0 4 -3 18
-6 29 l-6 21 74 -21 c40 -12 79 -25 86 -29z m-565 16 c10 -6 9 -33 -2 -33 -5
0 -37 11 -72 25 l-64 25 65 -6 c36 -3 68 -8 73 -11z m1050 -10 c-7 -2 -21 -2
-30 0 -10 3 -4 5 12 5 17 0 24 -2 18 -5z m353 -22 c-36 -39 -205 -55 -291 -26
l-40 13 37 1 c50 1 58 19 11 23 -21 2 38 5 131 6 166 2 169 2 152 -17z m-346
-35 c85 -23 117 -33 137 -45 31 -18 -84 -12 -157 8 -53 15 -66 22 -68 40 -3
18 0 22 15 17 10 -3 43 -12 73 -20z m1814 -42 c125 -32 269 -122 358 -224 24
-27 77 -112 117 -189 108 -206 174 -272 376 -374 210 -105 342 -267 431 -527
26 -76 29 -98 29 -210 0 -146 -15 -191 -86 -260 -77 -74 -108 -85 -234 -83
-92 2 -120 6 -170 27 l-60 25 53 1 c37 0 51 -3 46 -11 -5 -8 11 -10 55 -7 72
5 107 27 135 82 10 20 20 35 23 33 9 -9 -26 -75 -53 -100 -15 -15 -26 -28 -23
-31 7 -8 124 52 144 74 27 30 6 24 -27 -7 -38 -36 -42 -26 -9 22 46 69 61 118
61 209 0 194 -60 362 -172 482 -83 88 -150 138 -291 215 -155 84 -216 146
-310 319 -111 202 -200 294 -347 362 -90 41 -170 58 -272 58 -49 0 -88 4 -88
9 0 21 49 78 85 98 49 28 138 31 229 7z m-1985 -49 c21 -40 25 -63 25 -139 -1
-134 -47 -257 -141 -377 -79 -102 -166 -156 -368 -229 -49 -18 -144 -59 -211
-90 -66 -32 -172 -81 -235 -109 -63 -28 -136 -62 -163 -76 -72 -37 -83 -32
-46 19 52 72 105 111 154 112 28 1 58 11 87 29 127 81 338 176 537 241 94 31
110 42 183 128 109 128 153 243 152 396 0 52 -5 108 -12 123 -19 49 11 27 38
-28z m173 28 c40 -15 65 -29 56 -31 -21 -4 -138 37 -138 49 0 12 0 12 82 -18z
m-636 -23 c62 -43 65 -51 6 -20 -43 23 -72 44 -72 54 0 11 8 7 66 -34z m-2186
3 c-16 -28 -60 -79 -60 -70 0 13 54 87 63 87 4 0 3 -8 -3 -17z m2080 -21 c0
-4 -14 -16 -31 -26 -25 -15 -28 -20 -18 -33 22 -25 69 -44 122 -48 29 -2 54
-4 57 -5 3 0 -2 -5 -10 -10 -32 -21 -150 -4 -135 20 3 5 -1 10 -10 10 -20 0
-75 37 -75 50 0 5 19 18 43 29 48 22 57 24 57 13z m190 -2 c0 -5 -4 -10 -9
-10 -6 0 -13 5 -16 10 -3 6 1 10 9 10 9 0 16 -4 16 -10z m-325 -61 c20 -12 34
-24 31 -26 -3 -3 -15 2 -28 11 -12 9 -30 16 -40 16 -10 0 -18 5 -18 10 0 15
15 12 55 -11z m2698 -56 c23 -9 49 -23 57 -31 13 -13 13 -14 -5 -7 -11 4 -56
18 -100 31 -44 13 -84 26 -90 29 -25 12 102 -8 138 -22z m-286 -9 c-30 -16
-44 -14 -32 5 3 6 18 11 33 11 l27 -1 -28 -15z m-2709 -1 c-10 -2 -26 -2 -35
0 -10 3 -2 5 17 5 19 0 27 -2 18 -5z m2641 -24 c-6 -12 -9 -45 -7 -75 l5 -54
-30 0 c-17 0 -39 -7 -49 -17 -26 -23 -23 -5 13 73 34 78 46 94 66 94 11 0 11
-4 2 -21z m138 -35 l43 -47 58 6 57 6 -25 -20 c-38 -30 -154 -24 -197 11 -48
37 -39 81 16 89 3 1 24 -20 48 -45z m-3127 22 c0 -2 -7 -7 -16 -10 -8 -3 -12
-2 -9 4 6 10 25 14 25 6z m-13 -68 c-3 -8 -6 -5 -6 6 -1 11 2 17 5 13 3 -3 4
-12 1 -19z m232 -24 c17 -48 6 -56 -13 -9 -18 43 -19 45 -8 45 4 0 14 -16 21
-36z m421 32 c0 -2 -9 -6 -20 -9 -11 -3 -18 -1 -14 4 5 9 34 13 34 5z m-1600
-46 c27 0 362 -113 435 -145 17 -7 57 -21 90 -30 33 -9 135 -42 228 -72 147
-49 188 -67 176 -77 -12 -9 -602 179 -789 252 -63 24 -141 53 -172 64 -32 11
-58 23 -58 28 0 4 17 2 38 -6 20 -7 44 -13 52 -14z m1525 20 c-27 -12 -43 -12
-25 0 8 5 22 9 30 9 10 0 8 -3 -5 -9z m-536 -78 c12 -42 8 -74 -5 -36 -3 10
-12 36 -20 57 -8 20 -14 43 -14 49 0 22 26 -26 39 -70z m3012 62 c12 -14 11
-16 -5 -13 -11 2 -21 10 -24 17 -5 17 13 15 29 -4z m-2534 0 c-3 -3 -12 -4
-19 -1 -8 3 -5 6 6 6 11 1 17 -2 13 -5z m-64 -19 c-18 -8 -56 -18 -85 -24 -29
-5 -66 -14 -81 -20 -38 -15 -47 -14 -47 4 0 8 6 12 13 10 6 -3 55 6 107 19
109 28 139 31 93 11z m2842 -15 c-16 -4 -48 -7 -70 -7 l-40 0 45 7 c25 4 56 7
70 7 22 1 21 0 -5 -7z m-390 -30 c3 -5 -1 -10 -10 -10 -9 0 -13 5 -10 10 3 6
8 10 10 10 2 0 7 -4 10 -10z m4 -34 c-2 -3 -20 -23 -38 -45 -34 -41 -51 -51
-51 -30 0 12 71 79 84 79 5 0 7 -2 5 -4z m-2702 -58 c-3 -8 -6 -5 -6 6 -1 11
2 17 5 13 3 -3 4 -12 1 -19z m-1216 -296 c17 -62 29 -118 26 -125 -8 -25 -58
98 -77 191 -11 53 -24 113 -30 132 -5 19 -10 46 -9 60 0 32 50 -111 90 -258z
m1226 196 c-3 -7 -5 -2 -5 12 0 14 2 19 5 13 2 -7 2 -19 0 -25z m2843 -47 c0
-6 -4 -13 -10 -16 -5 -3 -10 1 -10 9 0 9 5 16 10 16 6 0 10 -4 10 -9z m-1570
-42 c147 -56 200 -91 200 -130 0 -36 -13 -37 -28 -4 -6 14 -17 25 -24 25 -7 0
-20 10 -27 22 -14 23 -14 23 -27 -12 l-12 -35 -1 38 c-1 34 -8 42 -34 38 -14
-2 -189 58 -203 70 -23 19 -4 31 40 24 22 -4 75 -20 116 -36z m-1263 -102 c-2
-23 -3 -1 -3 48 0 50 1 68 3 42 2 -26 2 -67 0 -90z m2908 113 c7 -11 -75 -51
-129 -64 -29 -7 -29 -7 -14 16 8 12 29 26 46 30 17 5 34 13 37 18 8 13 52 13
60 0z m-2918 -246 c-4 -36 -14 -92 -23 -125 -14 -51 -23 -64 -58 -88 -49 -33
-126 -65 -126 -52 0 5 21 25 48 44 102 76 136 129 148 231 9 78 18 70 11 -10z
m-1252 -29 c8 -73 -7 -165 -42 -264 -28 -80 -79 -149 -228 -311 -48 -52 -97
-109 -109 -127 -11 -17 -46 -66 -77 -110 -145 -204 -278 -471 -383 -770 -42
-117 -96 -324 -96 -364 0 -37 -14 -37 -29 -1 -20 48 51 311 153 572 113 286
246 514 514 878 26 36 41 37 22 2 -24 -45 10 -8 67 73 117 166 160 272 178
441 9 79 21 71 30 -19z m4220 65 c4 -6 -11 -10 -39 -10 -87 0 -176 -52 -420
-247 -96 -77 -405 -383 -491 -487 -67 -80 -90 -102 -141 -126 -59 -29 -105
-38 -104 -22 1 4 24 18 53 32 38 18 73 49 131 115 121 139 151 169 322 330
210 197 429 362 541 405 52 21 138 26 148 10z m911 -47 c-6 -6 -76 30 -76 39
0 5 18 -1 40 -13 22 -12 38 -24 36 -26z m-5210 -41 c-13 -12 -17 8 -9 44 l8
39 3 -39 c2 -21 1 -41 -2 -44z m4484 14 c0 -23 -53 -86 -72 -86 -12 0 -10 7
23 60 34 55 49 63 49 26z m-7344 -31 c32 -8 110 -40 172 -71 176 -88 294 -213
419 -444 39 -72 104 -256 117 -330 8 -47 -55 85 -74 155 -53 198 -197 413
-345 515 -93 64 -230 121 -320 134 -36 5 -34 3 20 -17 33 -12 74 -30 90 -39
51 -29 113 -92 119 -121 l7 -28 -28 18 c-92 61 -153 89 -163 74 -6 -10 -12
-10 -29 -2 -31 17 -26 4 17 -36 22 -22 29 -33 17 -28 -11 4 -36 14 -55 21 -19
7 -87 36 -150 63 -63 28 -126 51 -139 51 -21 0 -22 2 -10 17 12 15 12 16 -6 9
-11 -4 -49 -12 -85 -16 -36 -5 -74 -12 -85 -16 -19 -7 -19 -7 -2 13 26 30 146
82 213 93 75 11 223 4 300 -15z m7842 -61 c26 -18 27 -34 6 -77 -20 -39 -103
-127 -121 -127 -21 0 -15 18 10 31 12 6 37 25 55 42 36 35 42 73 18 120 -17
32 -4 37 32 11z m-603 -24 c-3 -5 -12 -10 -18 -10 -7 0 -6 4 3 10 19 12 23 12
15 0z m-80 -10 c3 -5 2 -10 -4 -10 -5 0 -13 5 -16 10 -3 6 -2 10 4 10 5 0 13
-4 16 -10z m544 -34 c-2 -2 -24 -6 -49 -9 -30 -4 -38 -3 -25 3 19 8 83 14 74
6z m-8089 -17 c94 -21 274 -123 395 -224 170 -142 311 -319 421 -530 151 -292
219 -383 477 -645 173 -175 393 -424 484 -547 101 -137 243 -476 243 -584 0
-62 -48 -156 -95 -186 -50 -33 -56 -30 -48 19 18 100 -2 188 -82 353 -64 132
-239 358 -466 603 -409 441 -435 473 -593 735 -124 207 -155 252 -252 367
-164 195 -327 321 -504 389 -135 52 -272 65 -328 31 -40 -25 -42 -25 -42 -2 0
17 67 118 122 185 13 16 39 32 58 37 50 11 157 11 210 -1z m6660 -4 c-7 -8
-17 -15 -22 -15 -6 0 -5 7 2 15 7 8 17 15 22 15 6 0 5 -7 -2 -15z m1325 -5
c-3 -5 -11 -10 -16 -10 -6 0 -7 5 -4 10 3 6 11 10 16 10 6 0 7 -4 4 -10z
m-7768 -42 c68 -28 120 -61 259 -167 76 -58 174 -151 174 -165 0 -6 -4 -5 -9
3 -5 8 -17 11 -28 7 -13 -4 -28 3 -48 24 -16 16 -24 30 -19 30 6 0 21 -11 34
-25 13 -14 26 -23 28 -20 9 9 -49 55 -69 55 -12 0 -27 12 -37 30 -9 16 -21 30
-26 30 -4 0 -33 25 -64 56 -54 54 -156 114 -193 114 -10 0 -26 8 -36 19 -10
10 -35 24 -55 30 -21 7 -38 15 -38 18 0 9 50 -7 127 -39z m6383 12 c0 -5 -4
-10 -10 -10 -5 0 -10 5 -10 10 0 6 5 10 10 10 6 0 10 -4 10 -10z m-1523 -154
c16 -31 16 -31 -5 -13 -11 10 -39 46 -62 80 l-42 62 47 -49 c25 -27 53 -63 62
-80z m1063 -21 c0 -10 -140 132 -140 143 0 4 32 -25 70 -63 39 -38 70 -74 70
-80z m1500 95 c-10 -10 -29 -38 -41 -61 -17 -35 -20 -53 -15 -97 4 -30 11 -63
17 -74 9 -16 8 -19 -3 -16 -7 2 -22 29 -32 60 -17 49 -18 60 -6 102 14 50 58
106 84 106 13 0 13 -3 -4 -20z m149 -35 c1 -11 4 -45 7 -76 5 -52 4 -58 -22
-78 -37 -29 -101 -48 -116 -33 -17 17 -22 117 -8 152 18 42 44 58 94 57 36 -1
44 -5 45 -22z m1010 -41 c17 -73 20 -105 13 -123 -5 -13 -40 133 -42 172 0 36
17 7 29 -49z m-669 -44 c0 -5 -4 -10 -9 -10 -6 0 -13 5 -16 10 -3 6 1 10 9 10
9 0 16 -4 16 -10z m-8300 -23 c119 -33 199 -70 312 -144 171 -112 351 -312
472 -524 94 -163 205 -335 258 -395 94 -110 271 -306 353 -394 403 -431 591
-714 603 -911 4 -72 3 -77 -22 -96 -93 -73 -355 -9 -582 142 -126 84 -204 156
-323 300 -46 55 -92 111 -103 124 -11 12 -53 67 -94 121 -104 137 -170 193
-314 265 -79 39 -236 155 -296 217 -105 109 -304 350 -341 413 -138 238 -168
306 -200 455 -20 100 -12 273 16 327 31 62 108 122 156 123 11 0 58 -11 105
-23z m8020 -61 c0 -22 -67 -67 -108 -72 -35 -5 -36 -5 -18 10 11 9 27 16 36
16 9 0 31 13 50 30 41 34 40 34 40 16z m-6239 -68 c140 -94 236 -288 221 -446
-7 -77 -27 -42 -27 49 -1 97 -19 145 -90 244 -51 72 -101 114 -163 138 -53 21
-81 21 -111 1 -19 -14 -25 -14 -32 -3 -20 32 22 59 93 59 38 0 57 -8 109 -42z
m-899 -60 c18 -23 28 -39 21 -35 -6 4 -26 26 -45 49 -18 23 -28 39 -21 35 6
-4 26 -26 45 -49z m5136 -115 c174 -86 346 -166 382 -178 55 -19 61 -23 41
-30 -43 -13 -140 19 -221 75 -35 24 -109 61 -225 115 -154 71 -241 117 -277
147 -18 15 -29 28 -25 28 5 0 151 -70 325 -157z m2959 105 c-3 -7 -5 -2 -5 12
0 14 2 19 5 13 2 -7 2 -19 0 -25z m-440 -101 c25 -26 43 -50 41 -53 -7 -7
-128 126 -128 140 1 6 10 0 21 -14 11 -14 41 -47 66 -73z m-6705 -45 c22 -29
38 -55 35 -58 -3 -3 -19 15 -37 40 -17 25 -37 46 -44 46 -7 0 -23 12 -37 28
-13 15 -17 21 -9 15 29 -26 33 -12 4 20 -28 31 -28 31 9 -3 21 -19 57 -59 79
-88z m-857 18 c3 -5 1 -10 -4 -10 -6 0 -11 5 -11 10 0 6 2 10 4 10 3 0 8 -4
11 -10z m471 -155 c25 -51 34 -83 34 -120 0 -97 -32 -99 -44 -2 -4 28 -20 87
-36 131 -15 45 -31 90 -35 101 -14 43 47 -41 81 -110z m5214 91 c0 -2 -21 -19
-46 -39 -55 -43 -124 -55 -194 -34 l-45 13 81 12 c44 6 103 20 130 31 47 19
74 25 74 17z m-5605 -126 c-4 -13 0 -22 13 -29 27 -14 64 -80 57 -100 -6 -14
-8 -13 -22 4 -29 39 -66 120 -68 150 -1 17 -5 39 -9 50 -4 11 2 3 14 -18 12
-22 18 -46 15 -57z m612 -62 c63 -95 81 -137 88 -208 7 -66 -7 -132 -24 -114
-11 12 -45 113 -66 198 -10 38 -28 93 -41 121 -21 48 -22 65 -5 65 3 0 25 -28
48 -62z m-96 16 c12 -16 10 -16 -18 1 -18 11 -33 23 -33 28 0 11 34 -8 51 -29z
m302 -29 c22 -4 37 -11 37 -20 0 -14 -50 -11 -98 6 -26 10 -22 29 6 24 9 -2
34 -7 55 -10z m-336 -67 c-2 -13 -4 -3 -4 22 0 25 2 35 4 23 2 -13 2 -33 0
-45z m245 45 c2 -5 20 -21 41 -36 43 -32 47 -47 14 -47 -15 0 -35 14 -55 39
-18 22 -32 42 -32 45 0 9 28 7 32 -1z m-644 -78 c-3 -3 -9 2 -12 12 -6 14 -5
15 5 6 7 -7 10 -15 7 -18z m971 -12 l42 -38 3 -110 c2 -60 2 -101 -1 -90 -2
11 -11 60 -20 109 -15 74 -21 90 -40 99 -17 8 -27 7 -35 -1 -7 -7 -19 -12 -27
-12 -12 0 -11 3 2 18 10 11 14 26 10 40 -8 34 18 28 66 -15z m-585 -30 c-8
-26 -12 -53 -10 -60 6 -15 -10 -27 -18 -15 -7 12 24 122 34 122 5 0 2 -21 -6
-47z m125 -48 c1 -17 -1 -17 -9 -5 -5 8 -9 26 -9 40 0 23 1 23 9 5 5 -11 9
-29 9 -40z m-411 -20 c-3 -3 -9 2 -12 12 -6 14 -5 15 5 6 7 -7 10 -15 7 -18z
m720 -20 c-2 -25 -6 -45 -10 -45 -5 0 -8 -7 -8 -15 0 -8 5 -15 10 -15 6 0 10
-7 10 -15 0 -26 -19 -16 -33 18 -25 60 -28 95 -9 106 34 20 42 13 40 -34z
m-115 28 c3 -5 8 -32 12 -60 6 -45 4 -53 -9 -53 -10 0 -16 9 -16 24 0 14 -5
37 -10 51 -10 27 -6 45 10 45 5 0 11 -3 13 -7z m516 -242 c-6 -17 -17 -35 -25
-42 -17 -14 -18 -8 -1 22 29 56 42 66 26 20z m-688 -208 c13 -16 12 -17 -3 -4
-10 7 -18 15 -18 17 0 8 8 3 21 -13z m60 -70 c13 -16 12 -17 -3 -4 -10 7 -18
15 -18 17 0 8 8 3 21 -13z m866 -325 c8 -7 6 -25 -10 -71 l-21 -62 -17 70
c-10 39 -18 73 -18 78 -1 9 49 -2 66 -15z m-63 -109 c16 -57 11 -87 -29 -155
-44 -76 -49 -61 -24 85 5 30 9 75 9 99 0 38 2 43 14 32 8 -6 22 -34 30 -61z
m-204 -10 c17 -32 37 -87 45 -121 32 -138 12 -237 -73 -350 l-47 -63 -3 37
c-2 27 9 60 44 132 l46 95 -4 98 c-4 72 -12 118 -31 171 -30 85 -19 86 23 1z
m-125 -383 c9 -49 13 -91 11 -93 -3 -3 -8 12 -11 33 -4 22 -13 64 -21 95 -17
67 -17 76 -4 63 5 -5 17 -50 25 -98z"/>
<path d="M1010 6938 c0 -16 91 -200 96 -195 5 5 -25 100 -44 137 -24 48 -52
79 -52 58z"/>
<path d="M4540 6740 c0 -5 5 -10 10 -10 6 0 10 5 10 10 0 6 -4 10 -10 10 -5 0
-10 -4 -10 -10z"/>
<path d="M4560 6685 c0 -8 4 -15 10 -15 5 0 7 7 4 15 -4 8 -8 15 -10 15 -2 0
-4 -7 -4 -15z"/>
<path d="M4570 6646 c0 -9 5 -16 10 -16 6 0 10 4 10 9 0 6 -4 13 -10 16 -5 3
-10 -1 -10 -9z"/>
<path d="M8117 6149 c20 -33 43 -57 43 -43 0 16 -40 74 -50 74 -6 0 -3 -13 7
-31z"/>
<path d="M4667 5655 c-49 -13 -91 -26 -94 -29 -9 -9 34 -130 82 -233 53 -113
162 -281 188 -289 10 -3 39 -3 62 1 l44 6 -36 62 c-20 34 -45 73 -55 86 -27
35 -23 46 21 60 94 28 115 108 57 226 -36 75 -64 107 -109 124 -38 15 -57 13
-160 -14z m157 -128 c14 -19 29 -48 32 -65 6 -30 4 -33 -31 -47 -46 -20 -55
-13 -86 62 -22 54 -22 56 -4 69 32 23 62 17 89 -19z"/>
<path d="M4310 5581 c-54 -6 -55 -7 -52 -35 4 -34 26 -82 52 -111 10 -11 30
-46 45 -78 15 -31 41 -68 57 -82 28 -24 28 -26 22 -90 l-7 -65 41 -39 c29 -28
63 -46 119 -65 43 -14 85 -26 93 -26 21 1 -44 28 -85 36 -43 8 -56 22 -15 16
104 -15 153 74 95 173 -18 31 -36 47 -67 60 -54 21 -60 31 -41 70 10 22 13 45
9 68 -7 38 -63 121 -102 150 -27 20 -87 27 -164 18z m114 -97 c20 -8 52 -61
61 -101 6 -30 5 -33 -18 -33 -30 0 -72 46 -82 90 -10 44 3 58 39 44z m141
-271 c30 -45 34 -93 7 -93 -32 0 -97 85 -86 114 11 30 51 19 79 -21z"/>
<path d="M4730 4975 c46 -18 64 -17 25 0 -16 8 -37 14 -45 14 -8 0 1 -7 20
-14z"/>
<path d="M4802 4955 c21 -21 324 -78 473 -89 l70 -5 -55 10 c-30 5 -98 18
-150 29 -99 20 -324 60 -336 60 -4 0 -5 -2 -2 -5z"/>
<path d="M5378 4853 c12 -2 32 -2 45 0 12 2 2 4 -23 4 -25 0 -35 -2 -22 -4z"/>
<path d="M6818 4303 c7 -3 16 -2 19 1 4 3 -2 6 -13 5 -11 0 -14 -3 -6 -6z"/>
<path d="M8079 3873 c-15 -28 -15 -32 -1 -38 21 -8 24 -2 20 37 l-3 33 -16
-32z"/>
<path d="M993 3143 c9 -2 23 -2 30 0 6 3 -1 5 -18 5 -16 0 -22 -2 -12 -5z"/>
<path d="M855 3130 c-8 -13 5 -13 25 0 13 8 13 10 -2 10 -9 0 -20 -4 -23 -10z"/>
<path d="M640 2565 c-81 -16 -174 -63 -220 -110 -33 -35 -35 -39 -35 -109 0
-64 3 -78 30 -116 42 -60 80 -74 178 -65 43 3 98 13 120 21 23 8 87 26 141 40
120 30 152 46 160 77 8 35 -12 96 -46 139 -40 49 -141 114 -198 127 -53 12
-48 13 -130 -4z m167 -63 c11 -7 -19 -11 -93 -14 -147 -6 -230 -34 -260 -86
-20 -34 -20 -41 -8 -83 10 -32 22 -50 41 -60 16 -8 31 -19 35 -25 4 -6 18 -10
30 -8 13 2 70 10 128 19 169 25 178 26 153 15 -40 -17 -232 -50 -289 -50 -50
0 -59 4 -85 31 -16 17 -32 42 -35 55 -10 39 6 113 29 138 19 20 119 61 192 80
29 7 142 -2 162 -12z m157 -168 c-5 -15 -20 -34 -34 -42 l-25 -16 23 25 c12
14 22 38 22 54 0 23 3 26 12 17 8 -8 9 -20 2 -38z"/>
<path d="M1013 2135 c-33 -20 -79 -32 -200 -50 -184 -29 -218 -39 -238 -68
-47 -67 21 -170 179 -276 37 -24 47 -26 155 -26 124 1 229 21 264 53 11 9 30
34 43 54 13 20 36 43 50 50 18 8 32 27 40 53 l13 40 -2 -45 c-2 -41 -5 -47
-41 -65 -53 -28 -58 -45 -12 -45 51 0 98 44 98 91 0 73 -65 173 -150 229 -61
40 -137 42 -199 5z m153 -40 c17 -13 12 -14 -53 -15 -40 0 -73 4 -73 9 0 22
98 27 126 6z m-182 -44 c3 -5 -13 -11 -37 -15 -23 -4 -106 -23 -185 -42 -79
-20 -146 -34 -149 -31 -11 12 8 24 64 41 162 47 295 68 307 47z m153 -247
c-26 -23 -143 -55 -194 -53 -17 0 5 10 54 24 45 12 97 32 115 42 42 26 59 17
25 -13z"/>
<path d="M1230 1674 c-80 -19 -174 -41 -209 -49 -72 -17 -101 -37 -101 -71 0
-76 87 -155 251 -229 81 -37 85 -38 173 -32 109 6 307 52 340 78 55 43 37 126
-46 215 -70 75 -159 124 -222 123 -23 0 -106 -16 -186 -35z m247 -39 c41 -17
40 -31 -1 -15 -40 15 -85 12 -178 -9 -46 -11 -128 -27 -182 -36 -55 -8 -105
-20 -112 -26 -15 -12 -31 8 -18 21 5 5 77 20 159 35 83 14 164 30 180 35 48
13 113 11 152 -5z m178 -140 c16 -40 16 -47 2 -68 -8 -13 -36 -29 -68 -39
-124 -39 -314 -67 -344 -51 -12 7 7 12 68 16 161 13 304 54 325 94 7 12 6 30
-3 56 -18 53 0 46 20 -8z"/>
<path d="M1740 1173 c-124 -20 -231 -48 -246 -65 -17 -18 -17 -21 4 -63 34
-70 97 -132 170 -166 64 -31 67 -32 181 -27 131 6 187 23 226 70 28 33 31 64
11 111 -39 89 -139 148 -251 146 -38 -1 -81 -4 -95 -6z m20 -60 c-48 -7 -185
-34 -202 -39 -10 -3 -18 -1 -18 5 0 9 63 25 135 34 40 5 117 5 85 0z m266
-170 c-15 -13 -35 -23 -44 -23 -11 0 -5 7 16 20 18 11 36 28 39 37 5 13 8 14
11 3 3 -7 -7 -24 -22 -37z m-198 -60 c-10 -2 -28 -2 -40 0 -13 2 -5 4 17 4 22
1 32 -1 23 -4z"/>
<path d="M2030 815 c-8 -2 -64 -11 -124 -21 -148 -24 -162 -41 -104 -129 40
-60 80 -89 271 -192 206 -112 279 -132 353 -97 37 18 50 48 40 89 -10 40 -36
32 -29 -9 4 -27 1 -36 -18 -50 -13 -9 -36 -16 -51 -16 -26 0 -216 64 -227 76
-8 8 47 0 138 -20 94 -21 115 -16 108 30 -5 29 -3 34 14 34 l21 0 -20 33 c-11
17 -25 50 -31 73 -17 63 -67 130 -124 165 -45 28 -63 33 -127 35 -41 2 -82 1
-90 -1z m68 -50 c-8 -8 -260 -36 -266 -30 -3 3 1 5 9 6 8 0 52 7 99 14 91 14
167 18 158 10z m112 -256 c-67 -11 -139 -11 -120 1 8 5 49 9 90 9 70 -1 72 -2
30 -10z m88 -26 c-10 -2 -26 -2 -35 0 -10 3 -2 5 17 5 19 0 27 -2 18 -5z"/>
<path d="M7148 9323 c7 -3 16 -2 19 1 4 3 -2 6 -13 5 -11 0 -14 -3 -6 -6z"/>
<path d="M3790 8610 c-34 -39 -60 -73 -57 -76 6 -6 137 125 137 137 0 21 -21
5 -80 -61z"/>
<path d="M3704 8563 c-28 -38 -36 -53 -30 -53 8 0 46 42 57 63 15 27 -5 20
-27 -10z"/>
<path d="M3586 8535 c-15 -19 -24 -35 -21 -35 9 0 55 52 55 61 0 15 -7 10 -34
-26z"/>
<path d="M2707 8550 c-49 -9 -56 -18 -21 -25 16 -3 55 -13 88 -21 32 -8 60
-13 63 -11 5 6 -73 67 -83 66 -5 -1 -26 -5 -47 -9z"/>
<path d="M3229 8513 l-24 -28 28 24 c25 23 32 31 24 31 -2 0 -14 -12 -28 -27z"/>
<path d="M3625 8520 c-16 -17 -16 -20 -3 -15 9 4 19 13 22 21 7 19 2 18 -19
-6z"/>
<path d="M2971 8464 c0 -11 3 -14 6 -6 3 7 2 16 -1 19 -3 4 -6 -2 -5 -13z"/>
<path d="M4030 8211 c-22 -6 -23 -8 -7 -14 11 -4 23 -4 29 -1 5 3 29 -1 54
-11 62 -23 79 -12 21 14 -52 22 -58 23 -97 12z"/>
<path d="M4058 8041 c-82 -12 -65 -21 38 -21 55 0 126 -5 158 -11 79 -14 104
-6 31 11 -59 14 -60 14 -25 21 46 9 -139 9 -202 0z"/>
<path d="M5630 7805 c0 -3 20 -46 45 -95 25 -49 45 -96 45 -104 0 -35 -51 -24
-123 26 -41 30 -41 18 1 -30 29 -32 50 -45 95 -57 43 -13 61 -14 71 -5 14 11
11 45 -6 65 -5 5 -25 44 -46 85 -46 91 -64 120 -74 120 -5 0 -8 -2 -8 -5z"/>
<path d="M5416 7745 c10 -8 23 -15 28 -15 6 0 1 7 -10 15 -10 8 -23 15 -28 15
-6 0 -1 -7 10 -15z"/>
<path d="M5446 7420 c15 -15 30 -20 50 -18 l29 4 -25 11 c-14 6 -36 14 -50 18
l-25 7 21 -22z"/>
<path d="M5271 7396 c-9 -11 -3 -15 31 -21 l43 -8 -55 -8 c-30 -4 -58 -5 -62
-3 -15 9 -51 -7 -40 -18 16 -16 281 -10 304 6 16 12 9 14 -62 20 -44 4 -80 11
-80 16 0 4 -14 13 -31 19 -39 13 -34 14 -48 -3z"/>
<path d="M5047 7339 c7 -7 15 -10 18 -7 3 3 -2 9 -12 12 -14 6 -15 5 -6 -5z"/>
<path d="M5025 7292 c-52 -4 -71 -22 -23 -22 19 0 64 -3 99 -7 110 -11 37 -22
-166 -23 -151 -1 -185 -4 -165 -13 37 -16 325 -16 373 1 45 16 44 36 -3 40
-18 2 -42 9 -54 16 -12 6 -39 10 -61 8z"/>
<path d="M3334 7213 c26 -28 71 -62 100 -77 51 -25 215 -66 268 -66 30 0 38
14 12 24 -22 9 -26 8 -18 -5 4 -7 0 -9 -12 -6 -11 3 -38 9 -61 12 -24 4 -43
10 -43 14 0 4 -15 7 -34 8 -41 1 -157 60 -218 111 l-43 36 49 -51z"/>
<path d="M4455 7160 c69 -33 119 -36 290 -19 134 13 149 17 115 31 -32 13
-310 19 -310 7 0 -5 8 -9 18 -9 16 -1 16 -1 -1 -11 -14 -8 -33 -6 -76 10 -83
30 -106 24 -36 -9z"/>
<path d="M4220 7161 c27 -16 168 -41 227 -40 77 0 46 13 -82 34 -107 17 -169
20 -145 6z"/>
<path d="M4055 7125 c65 -31 168 -46 290 -43 l120 3 -120 18 c-66 10 -145 20
-175 22 -30 2 -75 6 -100 9 l-45 5 30 -14z"/>
<path d="M3720 7115 c7 -8 18 -15 25 -15 8 0 15 -5 17 -12 3 -7 34 -12 84 -14
l79 -3 -75 23 c-41 13 -90 26 -109 29 -29 6 -32 5 -21 -8z"/>
<path d="M3865 7122 c6 -6 35 -20 65 -31 58 -22 180 -29 180 -11 0 6 -1 10 -3
10 -13 0 -216 32 -232 36 -14 4 -17 3 -10 -4z"/>
<path d="M6890 6911 c0 -9 24 -21 43 -21 6 0 2 7 -9 15 -22 17 -34 19 -34 6z"/>
<path d="M7028 6863 c6 -2 18 -2 25 0 6 3 1 5 -13 5 -14 0 -19 -2 -12 -5z"/>
<path d="M7085 6850 c3 -5 16 -10 28 -10 18 0 19 2 7 10 -20 13 -43 13 -35 0z"/>
<path d="M5765 6620 c-22 -10 -62 -28 -90 -40 l-50 -21 40 4 c22 3 66 16 97
31 31 14 61 26 67 26 5 0 13 5 16 10 10 16 -36 10 -80 -10z"/>
<path d="M3578 6427 c-33 -16 -57 -37 -82 -74 -25 -38 -29 -50 -16 -43 10 6
22 15 25 20 3 6 11 10 18 10 6 0 -15 -26 -48 -57 -34 -32 -74 -75 -89 -96 -28
-36 -377 -277 -434 -298 -14 -5 -22 -12 -19 -15 8 -8 101 39 175 89 34 23 103
65 153 92 121 67 160 96 195 147 49 73 140 192 163 212 21 19 28 36 14 36 -5
0 -29 -10 -55 -23z"/>
<path d="M3545 6240 c-48 -49 -58 -73 -18 -45 27 19 88 95 76 95 -5 0 -31 -22
-58 -50z"/>
<path d="M3619 6253 c-13 -15 -12 -15 9 -4 23 12 28 21 13 21 -5 0 -15 -7 -22
-17z"/>
<path d="M3730 6261 c-33 -10 -90 -40 -90 -47 0 -15 138 25 144 42 6 15 -14
17 -54 5z"/>
<path d="M2940 5800 c0 -5 5 -10 11 -10 5 0 7 5 4 10 -3 6 -8 10 -11 10 -2 0
-4 -4 -4 -10z"/>
<path d="M6855 5623 c-7 -38 -25 -105 -64 -238 -26 -86 -22 -116 6 -53 13 28
48 72 87 109 70 67 82 92 19 40 -40 -33 -56 -24 -34 18 14 24 14 148 2 156 -6
3 -13 -11 -16 -32z"/>
<path d="M6988 5474 c-3 -5 -6 -36 -7 -69 -2 -71 -25 -168 -50 -210 -35 -61
-34 -71 6 -34 21 20 61 53 88 73 65 49 125 104 125 116 0 13 -27 13 -34 1 -4
-5 -28 -25 -56 -45 l-50 -36 1 83 c1 77 -11 142 -23 121z"/>
<path d="M7172 4933 c-23 -19 -54 -56 -69 -81 -15 -26 -45 -74 -66 -107 -34
-51 -36 -56 -13 -35 16 14 37 43 48 65 24 46 89 129 127 162 43 37 18 34 -27
-4z"/>
<path d="M7174 4887 c-27 -30 -66 -92 -98 -154 -17 -35 -50 -73 -98 -114 -90
-77 -88 -74 -58 -59 85 44 128 90 205 215 74 122 90 160 49 112z"/>
<path d="M7022 4610 c-7 -11 -9 -20 -4 -20 10 0 32 22 32 32 0 15 -15 8 -28
-12z"/>
<path d="M4225 4150 c19 -8 73 -14 64 -6 -2 2 -22 6 -44 9 -28 5 -34 4 -20 -3z"/>
<path d="M4361 4116 c13 -14 128 -26 165 -17 l39 9 -35 1 c-19 1 -66 4 -105 7
-38 4 -67 4 -64 0z"/>
<path d="M4700 4060 c34 -11 60 -11 35 0 -11 5 -29 8 -40 8 -16 0 -15 -2 5 -8z"/>
<path d="M7154 3218 c-26 -18 -50 -39 -52 -47 -3 -9 0 -11 8 -6 7 4 6 -4 -4
-24 -18 -33 -50 -161 -43 -168 3 -2 13 19 22 47 9 28 43 91 76 140 32 50 55
90 50 90 -5 0 -30 -15 -57 -32z"/>
<path d="M7051 2944 c0 -11 3 -14 6 -6 3 7 2 16 -1 19 -3 4 -6 -2 -5 -13z"/>
<path d="M3090 1970 c0 -5 5 -10 11 -10 5 0 7 5 4 10 -3 6 -8 10 -11 10 -2 0
-4 -4 -4 -10z"/>
</g>
</svg>
