<?xml version="1.0" standalone="no"?>
<!DOCTYPE svg PUBLIC "-//W3C//DTD SVG 20010904//EN"
 "http://www.w3.org/TR/2001/REC-SVG-20010904/DTD/svg10.dtd">
<svg version="1.0" xmlns="http://www.w3.org/2000/svg"
 width="1250.000000pt" height="1300.000000pt" viewBox="0 0 1250.000000 1300.000000"
 preserveAspectRatio="xMidYMid meet">

<g transform="translate(0.000000,1300.000000) scale(0.100000,-0.100000)"
fill="#000000" stroke="none">
<path d="M4237 12180 c-29 -23 -120 -204 -190 -380 -66 -166 -109 -408 -117
-655 0 -5 -9 1 -20 15 -10 14 -21 23 -23 20 -2 -3 0 -45 4 -95 4 -49 13 -159
19 -244 19 -269 56 -407 167 -623 59 -115 74 -152 69 -172 -4 -15 -38 -60 -77
-100 -64 -68 -79 -78 -187 -126 -164 -72 -219 -83 -374 -77 -71 2 -128 1 -128
-4 0 -5 18 -36 40 -70 22 -34 40 -66 40 -70 0 -4 -19 -9 -42 -11 -42 -3 -43
-4 -40 -35 7 -95 203 -464 350 -660 58 -77 232 -255 303 -310 20 -15 87 -72
150 -126 129 -111 329 -241 463 -300 50 -21 95 -43 100 -48 11 -10 -34 -88
-81 -140 -50 -55 -111 -91 -261 -153 -231 -96 -299 -145 -563 -403 -68 -67
-146 -140 -174 -163 -61 -50 -194 -132 -254 -156 l-44 -18 -55 60 c-67 71
-132 169 -132 199 0 13 31 55 76 105 79 88 114 141 134 203 11 35 14 37 53 37
103 0 219 54 296 135 120 126 167 318 107 432 -18 35 -72 86 -111 106 -29 15
-31 20 -42 105 -26 206 -137 316 -380 378 -52 13 -136 26 -186 30 -122 7 -200
-13 -382 -102 -185 -90 -242 -144 -317 -301 -29 -59 -65 -128 -80 -153 -42
-66 -87 -218 -105 -350 -26 -195 -4 -351 73 -520 23 -52 59 -149 78 -215 45
-152 95 -280 185 -475 22 -48 27 -105 11 -115 -5 -3 -32 14 -58 39 -27 26 -52
46 -55 46 -12 0 13 -63 61 -152 27 -51 59 -119 72 -150 39 -100 122 -160 278
-202 l87 -23 -58 -37 c-33 -21 -55 -42 -51 -48 5 -7 53 -9 153 -5 184 6 268
28 421 106 63 32 165 77 225 99 61 22 183 70 273 106 89 36 166 66 172 66 5 0
14 -17 20 -38 5 -21 35 -99 66 -173 30 -74 80 -197 110 -274 118 -300 264
-549 475 -812 102 -127 109 -139 92 -151 -10 -7 -85 -56 -168 -109 -295 -189
-371 -259 -419 -384 -97 -251 -182 -406 -312 -566 -23 -28 -47 -60 -53 -70
-11 -20 -10 -21 -90 44 -57 46 -182 93 -250 93 -98 0 -188 -64 -205 -145 -6
-26 -1 -38 30 -74 20 -23 48 -47 62 -52 20 -8 22 -12 12 -24 -7 -8 -20 -15
-29 -15 -35 0 -172 53 -236 91 -37 23 -82 47 -100 55 -25 10 -42 29 -65 72
-39 74 -144 213 -212 283 -123 124 -295 227 -453 270 -114 32 -305 32 -389 1
-114 -42 -177 -91 -344 -265 -139 -145 -158 -178 -173 -306 -19 -168 28 -344
142 -536 169 -285 419 -537 670 -678 47 -27 113 -70 146 -97 54 -44 68 -64
124 -172 86 -170 141 -248 250 -355 243 -237 457 -356 616 -340 112 11 175 63
243 200 28 56 77 140 110 187 62 89 131 221 181 349 45 113 88 166 152 187 83
27 189 78 224 108 17 14 42 48 54 74 20 41 23 62 23 165 l-1 118 111 74 c61
40 148 104 193 142 91 76 259 258 346 374 61 82 103 111 217 148 72 23 249 61
286 61 13 0 56 -22 96 -49 198 -134 439 -222 738 -271 148 -24 228 -25 276 -5
54 22 146 100 277 233 l118 120 14 -29 c42 -79 155 -80 230 0 33 34 45 39 45
16 0 -22 69 -88 115 -109 38 -18 109 -30 262 -43 l72 -6 44 -56 c105 -134 285
-189 466 -142 46 12 101 31 122 41 102 53 159 143 167 266 10 160 -44 295
-172 431 -104 110 -187 172 -326 240 -172 84 -210 113 -314 239 l-94 112 247
5 c146 3 292 12 359 21 179 26 507 94 591 122 111 39 289 120 341 156 83 58
151 111 146 115 -2 2 -52 -1 -110 -8 -143 -16 -155 -4 -50 49 94 47 314 220
432 340 77 78 202 226 202 239 0 13 -63 -9 -173 -62 -65 -31 -121 -54 -124
-51 -3 3 21 40 53 81 257 331 308 410 432 672 87 182 165 399 212 588 24 100
55 209 86 308 18 58 -160 -46 -268 -157 -43 -44 -80 -77 -84 -73 -3 3 -1 29 5
58 6 28 18 135 26 238 22 266 61 531 105 716 39 162 89 279 188 444 18 30 30
56 28 58 -9 10 -167 -79 -223 -126 -34 -28 -63 -51 -66 -51 -5 0 68 205 98
275 81 190 282 453 435 570 70 53 184 119 235 135 22 7 87 32 145 55 58 23
138 50 178 60 39 9 72 21 72 25 0 15 -152 81 -300 132 -440 150 -962 195
-1350 118 -256 -52 -629 -195 -786 -303 -27 -18 -71 -48 -99 -67 -56 -38 -155
-120 -227 -189 -26 -25 -50 -42 -54 -39 -10 11 14 75 81 216 35 72 62 132 59
132 -15 0 -99 -50 -161 -97 -131 -98 -327 -322 -443 -508 -169 -267 -359 -713
-360 -843 0 -26 6 -24 -130 -51 -195 -39 -429 -89 -438 -95 -17 -10 -367 -95
-417 -101 -27 -3 -115 -2 -195 2 l-145 8 55 59 c50 53 133 106 168 106 32 0
375 140 527 214 127 63 201 107 295 177 135 101 357 315 458 442 66 83 132
194 132 220 0 22 -11 21 -111 -3 -46 -11 -84 -18 -86 -16 -2 2 18 17 44 34 26
17 66 49 87 71 45 46 47 44 -69 56 -90 9 -240 64 -323 119 -76 50 -211 174
-230 212 -10 19 -7 25 27 47 21 14 79 65 129 112 193 183 374 520 433 803 67
323 43 911 -51 1248 -50 180 -86 234 -159 234 -97 0 -379 -175 -705 -439 -38
-31 -83 -67 -101 -81 -148 -116 -383 -345 -511 -497 -52 -62 -97 -113 -101
-113 -17 0 -182 132 -331 266 -91 82 -172 144 -186 144 -21 0 -37 -105 -30
-193 l7 -78 -49 29 c-27 16 -98 48 -157 71 -241 94 -454 107 -495 31 -13 -24
-13 -24 -8 10 8 45 -4 67 -106 192 -126 156 -193 251 -311 442 -59 96 -124
188 -143 205 -41 36 -80 40 -117 11z m3283 -119 c0 -5 -21 -22 -47 -37 -108
-63 -261 -171 -371 -263 -116 -97 -258 -239 -249 -248 3 -2 29 14 58 36 30 23
57 41 62 41 9 0 -53 -92 -159 -235 -179 -242 -337 -636 -346 -860 -3 -85 12
-125 54 -145 43 -21 137 -178 299 -502 132 -262 151 -290 227 -329 15 -8 36
-22 47 -32 20 -18 20 -18 -8 -8 -47 18 -43 13 19 -25 193 -119 269 -141 418
-120 88 13 69 -13 -31 -40 -117 -32 -273 -47 -359 -34 -128 18 -124 7 13 -36
196 -60 432 -89 536 -65 20 5 37 6 37 1 0 -14 -59 -86 -111 -136 -114 -107
-246 -186 -491 -292 -94 -41 -49 -51 107 -26 l40 7 -19 -21 c-22 -25 -290
-159 -430 -214 -55 -22 -129 -54 -165 -73 -68 -33 -435 -151 -641 -205 -244
-63 -340 -75 -625 -75 l-260 0 -135 34 c-247 61 -516 189 -646 306 -50 46 -56
54 -36 55 12 0 39 -7 60 -16 20 -9 53 -16 73 -15 20 1 91 -11 157 -28 66 -16
167 -35 224 -42 206 -24 541 4 733 62 95 29 323 132 418 191 204 125 453 364
502 482 l16 37 42 -23 c46 -25 87 -86 87 -130 0 -36 16 -44 31 -16 18 34 13
103 -11 153 -65 134 -253 194 -395 126 -63 -30 -134 -85 -124 -95 3 -3 19 1
36 9 33 16 166 25 179 12 32 -31 -207 -318 -351 -422 -192 -137 -458 -239
-763 -291 -209 -35 -369 -32 -569 12 -125 27 -313 173 -313 242 0 5 39 22 88
37 48 15 106 34 129 43 112 44 232 163 233 230 0 43 -39 109 -95 161 -25 23
-45 46 -45 51 0 6 -7 10 -14 10 -8 0 -51 11 -94 25 -44 14 -117 30 -163 35
-141 18 -155 21 -138 30 8 5 78 25 154 44 248 63 370 114 379 159 3 12 12 54
20 92 8 39 19 97 23 130 7 58 8 59 11 18 2 -28 8 -43 16 -43 16 0 23 32 32
145 4 44 13 109 20 145 16 76 6 95 -29 55 -16 -19 -29 -26 -40 -22 -27 10 -20
38 19 74 l37 33 -27 0 c-14 0 -26 -4 -26 -10 0 -5 -4 -10 -8 -10 -4 0 -9 26
-10 59 -5 127 -56 257 -124 316 l-45 39 31 23 c17 13 60 37 95 55 l65 32 61
-23 c90 -32 281 -41 369 -17 61 17 96 39 83 52 -3 3 -61 9 -129 14 -138 10
-210 23 -242 45 -20 15 -20 15 -1 15 11 0 38 5 60 12 40 12 40 12 -48 19 -67
6 -102 14 -150 37 -70 35 -115 67 -105 77 24 25 350 11 598 -25 82 -12 138
-16 144 -10 6 6 0 13 -15 19 -113 44 -187 91 -282 180 -37 34 -117 142 -117
157 0 18 175 -23 310 -73 95 -34 333 -154 425 -212 64 -41 73 -39 37 7 -64 81
-104 170 -117 262 l-6 45 93 -90 c98 -96 163 -151 239 -202 69 -48 70 -50 53
-117 -8 -31 -14 -81 -12 -109 l3 -52 28 59 c104 220 458 592 897 943 194 154
230 179 414 284 87 50 96 54 96 40z m65 -183 c53 -237 59 -300 59 -558 l-1
-255 -39 -116 c-68 -199 -177 -368 -324 -505 -60 -56 -140 -110 -140 -95 0 6
5 13 10 16 6 3 10 14 10 24 0 24 87 201 113 230 17 19 18 23 5 18 -133 -48
-169 -59 -175 -54 -3 4 16 30 41 58 26 29 65 82 86 119 22 37 51 75 65 84 14
9 25 21 25 26 0 5 -36 12 -80 16 l-80 7 20 27 c35 49 87 167 126 285 43 131
41 140 -29 139 -32 0 -69 -15 -157 -64 -132 -73 -259 -157 -312 -208 -21 -20
-40 -33 -44 -30 -7 8 13 46 87 165 172 273 379 489 595 620 66 39 122 72 126
72 4 1 10 -9 13 -21z m-3358 -110 c162 -644 183 -732 165 -713 -5 6 -37 47
-71 92 -70 93 -97 117 -149 134 -20 6 -43 16 -49 21 -9 7 -15 5 -20 -8 -8 -22
11 -187 38 -313 23 -115 23 -108 -1 -114 -31 -8 -46 15 -63 95 -62 289 -38
519 86 816 16 39 33 72 36 72 4 0 16 -37 28 -82z m178 -283 c33 -99 90 -205
112 -205 16 0 16 33 -3 170 l-6 45 50 -49 c28 -27 49 -53 46 -58 -3 -4 3 -20
14 -36 11 -15 31 -65 46 -112 15 -47 33 -101 40 -121 17 -45 5 -63 -54 -84
-57 -20 -97 -19 -109 2 -5 10 -13 14 -17 10 -5 -4 -3 -17 4 -27 7 -11 12 -29
12 -40 0 -13 7 -20 20 -20 11 0 20 -7 20 -15 0 -8 -7 -15 -16 -15 -9 0 -14 -6
-11 -12 11 -30 41 -134 43 -148 3 -30 17 -60 28 -60 6 0 3 -5 -7 -11 -9 -5
-22 -7 -27 -4 -14 9 -67 183 -90 295 -10 52 -40 183 -65 290 -82 346 -95 405
-94 425 0 11 9 -16 19 -60 10 -44 30 -116 45 -160z m2741 -401 c-62 -124 -137
-204 -280 -297 -60 -40 -103 -73 -94 -75 13 -3 288 50 332 64 22 7 19 2 -34
-71 -112 -152 -302 -255 -470 -255 l-71 0 7 48 c13 93 56 219 111 330 47 93
60 111 75 106 10 -3 18 -1 18 4 0 27 441 273 449 250 2 -6 -18 -53 -43 -104z
m-2815 -57 c90 -91 109 -115 119 -154 6 -26 27 -84 46 -128 l35 -81 -70 -73
-70 -74 -23 19 c-49 39 -140 147 -159 187 -17 40 -25 87 -14 87 3 0 29 -13 58
-29 54 -31 135 -56 145 -47 3 3 -22 32 -55 63 -33 32 -72 78 -86 103 -24 41
-64 164 -82 250 l-7 35 28 -25 c16 -14 76 -73 135 -133z m713 66 c11 -13 16
-23 13 -23 -10 0 -37 31 -37 42 0 6 1 9 3 7 1 -2 11 -14 21 -26z m-981 -261
c20 -45 32 -80 28 -78 -10 7 -68 124 -76 156 -13 47 12 7 48 -78z m3634 -74
c-16 -180 -157 -471 -330 -679 -60 -72 -252 -233 -268 -224 -20 13 -6 32 52
75 137 100 293 302 387 500 92 196 115 254 142 358 16 64 24 51 17 -30z
m-3628 -138 c22 -85 58 -211 80 -280 22 -68 38 -126 36 -128 -6 -6 -91 179
-113 248 -20 62 -43 176 -57 285 -12 90 12 36 54 -125z m111 -1 c15 -28 5 -23
-15 7 -9 15 -12 23 -6 20 6 -4 16 -16 21 -27z m420 -96 c16 -9 33 -26 38 -37
28 -59 70 -176 76 -211 4 -22 10 -49 13 -59 3 -12 -8 -4 -28 19 -61 69 -130
82 -222 41 -62 -27 -103 -75 -148 -170 -49 -105 -58 -150 -48 -257 5 -52 11
-107 14 -124 4 -17 3 -25 -2 -18 -5 7 -29 15 -53 19 l-45 6 60 -30 c36 -19 89
-60 134 -106 l73 -74 -53 -7 c-83 -11 -203 -49 -333 -104 -127 -54 -161 -77
-182 -128 -36 -83 9 -357 76 -471 37 -63 11 -47 -81 48 -90 93 -175 207 -163
219 3 3 23 -12 43 -34 72 -76 85 -82 43 -20 -22 33 -66 85 -97 115 -31 30 -74
77 -95 105 -36 47 -153 265 -146 272 1 2 21 -3 43 -11 64 -22 189 -39 246 -33
28 3 77 14 107 23 l55 17 -75 13 c-83 14 -132 30 -206 67 -89 45 -87 53 18 60
155 9 327 90 455 215 70 67 110 135 195 332 73 172 108 229 176 293 56 51 70
55 112 30z m2530 -13 c0 -25 -65 -122 -111 -165 -88 -83 -182 -108 -230 -62
-13 13 -39 33 -56 46 -35 24 -42 41 -18 41 20 0 155 46 222 75 29 13 70 27 89
31 34 6 35 6 23 -14 -7 -12 -22 -23 -34 -26 -25 -6 -145 -95 -145 -107 0 -44
186 91 226 164 14 27 34 37 34 17z m-2817 -92 c-10 -22 -11 -22 -18 -3 -3 11
-13 36 -21 55 l-15 35 32 -32 c28 -28 31 -35 22 -55z m266 -227 c11 -7 6 -16
-20 -41 -29 -27 -31 -30 -11 -25 67 19 124 -93 75 -147 -46 -51 -92 -52 -131
-4 -11 14 -22 26 -25 26 -3 0 -11 -23 -17 -51 -24 -100 8 -193 87 -254 46 -35
51 -37 116 -33 68 4 74 0 57 -31 -11 -22 -129 -71 -168 -71 -49 1 -104 49
-146 130 l-38 75 4 110 c4 100 8 117 40 185 36 77 52 96 103 123 34 18 54 20
74 8z m2478 -470 c21 -29 95 -106 166 -169 70 -64 127 -117 127 -120 0 -2 -13
6 -29 17 -16 12 -34 21 -39 21 -6 0 -68 57 -140 128 -119 117 -133 134 -176
222 -60 125 -59 148 3 40 27 -47 67 -109 88 -139z m3186 163 c282 -30 537 -81
570 -113 17 -16 13 -17 -70 -14 -56 2 -108 -2 -143 -11 l-55 -14 78 5 c85 6
95 -1 50 -37 l-28 -22 30 8 c17 3 63 17 104 30 74 24 137 32 127 15 -3 -4 -24
-11 -46 -15 -48 -8 -271 -120 -332 -167 -77 -59 -228 -212 -287 -289 -170
-224 -258 -442 -295 -735 -27 -207 -48 -296 -74 -313 -20 -13 -25 -13 -32 -1
-11 17 -21 93 -23 179 -2 59 0 65 19 68 20 3 21 -3 27 -85 3 -48 4 -103 2
-120 -3 -18 0 -33 5 -33 6 0 10 53 10 133 0 235 25 368 116 610 48 130 52 142
28 109 -16 -24 -74 -183 -74 -206 0 -7 -9 -25 -21 -40 -11 -14 -18 -29 -15
-34 3 -5 0 -27 -6 -50 -8 -31 -16 -42 -29 -42 -11 0 -19 -7 -19 -15 0 -10 -11
-15 -35 -15 -19 0 -35 5 -35 10 0 6 7 10 15 10 22 0 18 14 -7 25 -21 9 -26 5
-59 -60 -20 -38 -40 -86 -44 -105 -14 -72 -67 -287 -81 -330 -7 -25 -25 -109
-38 -188 -13 -79 -26 -146 -30 -149 -10 -10 -25 41 -47 157 -11 63 -36 171
-54 240 -42 152 -64 276 -57 318 2 19 0 32 -6 32 -14 0 -20 -47 -10 -84 4 -15
3 -50 -3 -77 -13 -61 -4 -528 12 -619 7 -39 11 -170 11 -327 0 -145 3 -263 6
-263 4 0 18 35 30 78 13 42 32 96 42 119 11 23 31 86 45 140 15 54 28 100 31
102 12 12 11 -10 -2 -64 -8 -33 -23 -98 -33 -145 -39 -173 -53 -215 -143 -435
-32 -79 -102 -220 -110 -223 -5 -2 -8 -10 -8 -17 0 -64 -201 -285 -363 -398
-120 -85 -200 -136 -214 -136 -16 -1 -83 -70 -103 -106 -9 -16 -29 -36 -44
-43 -16 -8 -35 -30 -43 -50 -8 -20 -25 -49 -37 -63 -11 -15 -27 -35 -34 -45
-7 -11 -4 -1 7 22 22 46 41 116 72 264 18 84 23 151 27 332 7 346 -16 430
-229 853 -77 154 -150 304 -161 333 -32 84 -144 211 -266 300 l-105 76 44 18
c24 11 45 21 48 24 11 11 -39 34 -90 40 -31 3 -61 9 -68 13 -13 9 15 132 58
246 89 241 189 448 292 605 65 99 251 341 257 335 1 -1 -3 -15 -9 -31 -6 -16
-31 -91 -55 -167 -65 -206 -80 -328 -26 -221 64 128 268 320 537 506 248 171
646 325 926 357 52 6 108 13 124 15 82 9 322 4 448 -10z m-5723 -24 c0 -58 56
-115 123 -124 43 -7 46 -9 37 -27 -15 -26 -69 -25 -105 3 -15 11 -35 39 -45
62 -10 23 -27 51 -39 63 -28 29 -27 43 4 43 19 0 25 -5 25 -20z m-213 -555
c34 -8 82 -23 105 -34 24 -10 59 -24 78 -31 70 -26 55 -31 -65 -23 -173 12
-347 9 -384 -7 -21 -8 -31 -19 -31 -34 0 -27 45 -99 117 -189 30 -38 53 -70
51 -72 -4 -5 -82 82 -136 151 -41 54 -72 121 -72 160 0 37 30 68 80 82 53 15
187 14 257 -3z m374 -319 c-12 -13 -57 -39 -99 -59 -120 -55 -138 -54 -27 1
55 28 109 60 119 71 11 12 22 19 24 16 3 -3 -5 -16 -17 -29z m-548 -125 c26
-18 63 -39 83 -47 21 -9 47 -33 67 -62 18 -26 61 -77 96 -114 35 -38 62 -71
59 -74 -3 -3 -30 1 -59 10 -91 24 -111 28 -104 16 13 -20 -23 -9 -63 20 -78
56 -159 179 -203 309 -27 79 -24 82 30 25 26 -28 69 -65 94 -83z m-936 -100
c185 -36 275 -83 334 -174 48 -74 62 -124 57 -199 -3 -44 -12 -69 -34 -100
-47 -67 -59 -56 -19 18 34 64 36 74 31 128 -11 114 -71 176 -227 235 -116 44
-161 53 -269 54 -116 1 -180 -18 -242 -72 -24 -21 -65 -50 -93 -64 -73 -37
-131 -105 -144 -170 -6 -27 -11 -32 -36 -32 -26 0 -30 4 -33 32 -8 81 92 196
198 228 34 10 87 37 117 58 64 46 148 76 215 76 26 1 91 -8 145 -18z m6829
-423 c-64 -222 -73 -280 -126 -793 -12 -110 -28 -233 -36 -273 -20 -96 -52
-200 -64 -207 -13 -8 -13 4 5 70 27 103 37 219 66 700 5 94 14 196 19 227 9
57 117 297 134 298 4 0 5 -10 2 -22z m-7436 -3 c0 -3 -26 -31 -58 -63 -67 -65
-92 -120 -123 -267 -30 -146 -22 -339 22 -482 26 -84 85 -145 180 -186 59 -25
61 -27 24 -22 -57 9 -137 49 -183 94 -90 88 -136 286 -114 499 18 175 68 341
115 380 8 7 39 21 68 31 59 21 69 24 69 16z m813 -185 c0 -62 -19 -108 -66
-157 -46 -49 -50 -40 -12 23 48 79 58 116 53 192 -4 66 -4 66 10 32 8 -19 15
-60 15 -90z m344 53 c22 -28 28 -47 27 -83 -1 -102 -112 -262 -216 -314 -58
-29 -121 -33 -178 -11 -33 12 -31 13 35 8 132 -10 212 47 295 210 52 103 52
143 1 169 -24 12 -40 14 -58 7 -26 -10 -26 -7 9 43 23 34 42 27 85 -29z m3869
-78 c10 -8 17 -15 14 -15 -59 -14 -94 -27 -91 -35 3 -8 154 -74 170 -75 2 0
-3 -7 -10 -16 -12 -15 -11 -18 5 -28 39 -23 164 -136 212 -193 152 -177 256
-339 365 -568 101 -212 129 -337 129 -575 0 -226 -25 -412 -72 -539 -23 -62
-95 -141 -128 -141 -24 0 -26 13 -3 31 31 26 92 130 112 192 68 212 88 544 46
754 -27 130 -147 389 -257 551 -18 27 -60 89 -92 138 -63 95 -295 338 -303
317 -6 -16 11 -47 62 -113 64 -82 139 -220 127 -232 -7 -7 -3 -24 13 -52 28
-51 40 -108 28 -131 -8 -14 -22 -5 -89 60 -67 65 -80 74 -90 61 -6 -9 -18 -16
-27 -16 -18 0 -66 20 -84 35 -7 5 -46 37 -87 69 -69 54 -74 61 -61 76 34 38
18 47 -98 55 -45 4 -101 11 -125 17 -38 10 -45 9 -65 -10 -12 -11 -58 -30
-102 -42 -121 -33 -249 -77 -323 -112 -127 -58 -207 -90 -232 -93 -14 -1 -38
-3 -55 -4 -26 -2 -27 -3 -10 -11 19 -8 19 -9 -2 -9 -13 -1 -23 -5 -23 -11 0
-5 -11 -12 -25 -16 -14 -3 -25 -12 -25 -18 0 -7 -11 -19 -25 -26 -14 -7 -25
-17 -25 -21 0 -5 -19 -17 -42 -29 -62 -30 -89 -47 -88 -54 2 -15 -28 -33 -64
-40 -26 -5 -36 -4 -31 3 4 7 -4 11 -19 11 -19 0 -26 5 -26 20 0 15 -7 20 -25
20 -14 0 -25 5 -25 11 0 5 -5 7 -11 3 -8 -4 -9 3 -4 26 5 22 3 35 -6 40 -8 5
-14 40 -17 94 -3 65 -9 90 -21 99 -10 7 -16 25 -15 42 0 17 -3 35 -8 42 -16
21 38 105 97 152 104 80 184 101 401 101 139 0 155 3 604 122 179 47 420 96
476 97 30 1 58 -5 70 -14z m-2576 -164 c130 -50 222 -64 399 -59 138 5 172 9
292 41 74 20 190 53 257 75 67 22 122 36 122 31 0 -5 -8 -9 -19 -9 -10 0 -29
-9 -43 -19 -13 -11 -37 -23 -52 -27 -15 -4 -23 -9 -18 -13 6 -4 -1 -23 -19
-49 -34 -49 -34 -52 -14 -52 12 0 8 -11 -15 -45 -66 -97 -106 -209 -141 -405
-36 -205 -60 -293 -96 -357 -39 -72 -32 -82 16 -23 69 86 171 320 171 393 0
41 17 40 23 -1 2 -20 10 -64 17 -97 8 -33 14 -127 14 -210 1 -182 -24 -304
-86 -424 -42 -83 -103 -171 -117 -171 -5 0 4 32 21 71 29 70 88 284 87 317 0
9 -12 -17 -27 -58 -47 -128 -115 -242 -241 -400 -118 -146 -302 -320 -340
-320 -6 0 -1 21 10 48 12 26 32 99 45 162 13 63 37 158 53 210 17 52 28 96 27
98 -2 2 -18 -23 -36 -55 -81 -146 -190 -320 -281 -453 -55 -80 -122 -189 -149
-242 l-49 -97 -38 42 c-49 53 -179 226 -220 292 -107 173 -169 338 -179 479
-5 56 -10 83 -16 73 -14 -26 -47 -206 -60 -324 -14 -132 -19 -133 -77 -9 -66
138 -92 236 -98 371 -8 184 31 328 130 468 65 93 65 95 32 72 -73 -47 -190
-84 -270 -85 -29 0 -28 1 40 71 39 39 140 130 225 202 213 181 323 300 479
514 l52 72 57 -35 c31 -19 91 -47 132 -63z m-1850 -34 c0 -60 -25 -121 -64
-156 -38 -36 -39 -23 -1 38 35 56 59 138 48 167 -4 12 -3 15 5 10 7 -4 12 -30
12 -59z m-194 -190 c-8 -40 -55 -109 -91 -133 -32 -21 -94 -35 -122 -27 -32 7
-18 23 20 23 88 1 176 88 178 174 0 36 2 38 11 19 6 -12 8 -37 4 -56z m1423
-40 c-53 -45 -197 -156 -241 -186 -46 -31 -240 -252 -264 -300 -26 -52 -27
-78 -5 -100 23 -23 82 -27 174 -12 49 8 53 6 37 -19 -6 -10 -23 -13 -54 -11
-68 4 -92 -17 -101 -87 -4 -31 -13 -71 -20 -89 -7 -17 -11 -34 -7 -37 3 -3 -3
-6 -12 -6 -12 0 -16 -5 -12 -15 4 -10 -1 -15 -17 -16 -21 0 -21 -1 3 -11 l25
-10 -32 -14 c-18 -8 -33 -19 -33 -24 0 -6 -6 -10 -14 -10 -8 0 -16 -3 -18 -7
-5 -12 -95 -73 -106 -73 -24 0 -152 -70 -152 -82 0 -5 -13 -8 -30 -8 -19 0
-30 -5 -30 -14 0 -10 -17 -17 -55 -21 -61 -8 -97 -2 -119 20 -8 8 -18 15 -21
15 -4 0 -18 9 -32 20 -14 11 -34 20 -44 20 -11 0 -19 5 -19 10 0 6 -6 10 -13
10 -7 0 -26 14 -42 30 -16 17 -37 30 -47 30 -22 0 -22 2 1 -46 19 -39 19 -39
0 -48 -13 -6 -24 -5 -31 2 -9 9 -9 12 0 12 7 0 12 7 12 15 0 9 -9 15 -23 15
-30 0 -62 61 -82 157 -17 81 -18 83 -6 83 5 0 12 -17 16 -38 7 -41 48 -102 61
-89 4 4 0 21 -10 37 -13 23 -14 30 -4 30 9 1 8 5 -4 13 -22 17 -30 102 -13
143 12 30 55 66 55 46 0 -17 110 -117 142 -129 18 -7 27 -12 19 -12 -11 -1
-11 -4 -1 -16 13 -16 45 -21 35 -6 -3 5 4 11 15 13 17 3 13 10 -28 53 -67 69
-129 151 -137 178 -4 12 -20 50 -37 85 -17 34 -28 65 -25 68 3 3 16 -14 29
-39 13 -25 46 -70 73 -99 46 -48 140 -157 238 -276 35 -42 67 -65 67 -47 0 4
-7 34 -15 66 -9 33 -13 64 -10 69 3 6 0 10 -8 10 -14 0 -27 20 -27 41 0 5 37
27 83 50 121 61 265 168 407 304 204 196 337 298 456 349 73 31 87 32 53 3z
m-1134 -48 c-9 -23 -24 -56 -35 -73 -28 -46 -148 -158 -200 -188 -87 -50 -94
-40 -15 19 98 73 204 184 229 241 24 54 40 55 21 1z m3991 -58 c-4 -5 -41 -23
-84 -41 -93 -39 -418 -205 -522 -268 -149 -89 -261 -193 -362 -332 -139 -191
-212 -355 -260 -575 -20 -97 -15 -325 10 -416 45 -166 104 -246 281 -378 156
-118 248 -227 322 -385 53 -115 71 -198 73 -341 1 -102 -3 -131 -23 -193 -54
-164 -208 -335 -383 -423 -117 -59 -290 -103 -503 -129 -282 -33 -568 -99
-641 -147 -21 -14 -24 -14 -24 0 0 63 295 157 610 196 190 23 429 88 541 147
301 158 433 474 333 794 -58 189 -149 315 -334 461 -241 191 -314 339 -314
629 0 214 38 366 146 572 87 168 261 371 411 481 149 110 420 256 582 313 123
44 150 51 141 35z m192 -38 c31 -21 125 -105 208 -188 138 -137 155 -157 192
-235 77 -163 66 -187 -19 -42 -99 167 -273 350 -436 457 -24 15 -43 32 -43 36
0 20 45 7 98 -28z m-175 -260 c4 -92 14 -195 22 -228 22 -90 20 -98 -24 -123
-173 -98 -250 -405 -136 -540 14 -17 25 -37 25 -46 0 -48 -235 -271 -385 -365
-94 -59 -331 -175 -423 -205 l-75 -26 -31 33 c-164 174 -166 554 -4 872 158
311 329 469 728 670 125 64 283 134 291 129 3 -2 9 -79 12 -171z m177 70 c93
-81 143 -129 173 -168 l32 -40 -40 33 c-46 38 -95 44 -95 12 0 -13 -7 -20 -19
-20 -17 0 -21 8 -24 53 -3 45 -4 42 -5 -20 -2 -63 0 -73 16 -74 10 0 12 -3 5
-6 -15 -6 -18 -63 -3 -63 6 0 10 -6 10 -13 0 -11 -51 -37 -72 -37 -18 0 -54
309 -42 357 8 31 13 29 64 -14z m-4958 -80 c9 -10 35 -63 58 -118 59 -140 84
-173 153 -208 33 -15 57 -31 54 -34 -3 -2 -37 11 -77 31 -39 20 -73 36 -76 36
-14 0 1 -48 29 -93 18 -29 48 -81 66 -117 88 -168 276 -434 322 -457 22 -10
89 -26 166 -40 35 -6 149 30 237 74 162 82 622 255 614 232 -3 -10 -184 -92
-303 -138 -107 -41 -247 -103 -345 -152 -91 -45 -266 -109 -300 -109 -9 0 3
15 28 36 23 20 42 39 42 43 0 5 -53 10 -117 13 -107 5 -124 8 -180 36 -57 30
-103 67 -57 47 24 -10 99 -30 144 -39 l35 -6 -46 44 c-25 24 -59 61 -75 82
-16 20 -44 55 -62 77 -54 65 -137 214 -176 317 -21 52 -54 136 -76 185 -36 84
-90 244 -90 266 0 14 15 11 32 -8z m7619 -135 c-54 -250 -205 -593 -368 -838
-122 -182 -178 -256 -308 -401 -138 -155 -158 -174 -220 -210 -52 -30 -273
-104 -283 -95 -7 8 -6 9 73 49 134 68 380 285 506 447 169 217 361 548 444
767 103 269 127 327 146 355 12 16 23 27 26 24 2 -2 -5 -46 -16 -98z m-3971
72 c8 -5 11 -10 5 -10 -5 0 -17 5 -25 10 -8 5 -10 10 -5 10 6 0 17 -5 25 -10z
m1704 -296 c33 -13 65 -24 72 -24 7 0 16 -5 19 -10 4 -7 -46 -8 -157 -4 -189
7 -279 -6 -376 -55 -71 -36 -105 -74 -144 -160 -35 -76 -41 -168 -13 -220 21
-42 12 -51 -20 -21 -77 72 -50 278 51 389 44 49 83 71 180 100 149 46 284 47
388 5z m-4713 -361 c13 -15 12 -15 -8 -4 -24 12 -29 21 -14 21 5 0 15 -7 22
-17z m246 -39 c-3 -3 -12 -4 -19 -1 -8 3 -5 6 6 6 11 1 17 -2 13 -5z m5765
-49 c5 -36 4 -53 -5 -60 -22 -17 -48 -78 -38 -88 6 -6 -1 -19 -17 -34 -22 -20
-24 -26 -12 -33 12 -8 10 -10 -8 -10 -14 0 -21 -4 -17 -11 4 -6 -2 -13 -14
-16 -11 -3 -19 -9 -16 -13 8 -13 -93 -80 -122 -80 -14 0 -24 -3 -20 -6 7 -8
-17 -34 -32 -34 -6 0 -11 -4 -11 -10 0 -5 -19 -22 -41 -37 -23 -16 -60 -40
-83 -55 -23 -16 -58 -33 -79 -40 -20 -6 -42 -17 -48 -25 -6 -7 -29 -13 -49
-13 -26 0 -48 -8 -68 -25 -17 -14 -33 -25 -36 -25 -4 0 -19 -9 -34 -19 -54
-39 -295 -119 -423 -141 -138 -23 -333 -63 -423 -86 -91 -24 -253 -52 -344
-60 l-84 -7 31 62 c36 70 31 78 -38 62 -46 -10 -111 -4 -111 10 0 5 -11 9 -25
9 -14 0 -25 -4 -25 -8 0 -11 -64 -30 -137 -42 -58 -10 -65 -8 -168 41 -22 10
-34 19 -27 19 8 0 25 9 39 20 27 21 25 27 -5 10 -18 -10 -232 -60 -257 -60
-34 0 -11 19 53 45 313 129 479 229 635 385 l97 99 0 -51 c0 -27 7 -65 16 -84
22 -46 133 -147 219 -197 l69 -42 136 -7 c400 -22 430 -21 516 1 97 25 140 42
177 71 20 16 27 18 27 7 0 -8 -7 -17 -15 -21 -27 -10 -17 -29 11 -22 28 7 54
28 54 44 0 12 60 67 145 130 38 29 107 87 152 128 45 41 119 105 165 142 46
36 121 104 167 150 47 45 92 81 100 80 11 -2 18 -20 23 -53z m-6412 -20 c13
-14 19 -25 13 -25 -5 0 -20 11 -33 25 -13 14 -19 25 -13 25 5 0 20 -11 33 -25z
m4630 -161 c-50 -94 -38 -190 31 -248 61 -52 115 -69 214 -69 98 0 179 24 264
78 36 22 41 23 32 7 -14 -26 -97 -78 -163 -104 -36 -14 -78 -21 -130 -21 -67
-1 -84 3 -144 33 -86 42 -148 99 -170 156 -24 63 -8 134 43 186 21 21 41 38
45 38 5 0 -5 -25 -22 -56z m-1788 -40 c-1 -21 -8 -52 -14 -67 -21 -53 15 -46
88 19 39 34 76 42 104 24 11 -7 15 -30 15 -91 0 -57 4 -83 13 -86 6 -3 12 4
13 14 0 10 13 59 29 108 33 102 33 101 30 -97 -1 -107 6 -145 31 -168 3 -3 13
-23 23 -44 10 -22 30 -58 45 -81 27 -43 201 -220 367 -375 86 -79 95 -93 147
-200 31 -63 60 -141 66 -173 17 -92 -8 -190 -77 -300 -39 -64 -147 -167 -174
-167 -9 0 -20 -4 -23 -10 -3 -5 -15 -10 -26 -10 -10 0 -19 -4 -19 -10 0 -5 -9
-10 -21 -10 -11 0 -27 -7 -35 -15 -9 -8 -26 -15 -40 -15 -13 0 -24 -4 -24 -9
0 -4 -21 -11 -46 -15 -26 -3 -52 -10 -58 -15 -7 -6 -34 -14 -61 -20 l-50 -10
60 4 c59 5 59 4 32 -11 -16 -8 -52 -19 -80 -24 -137 -24 -290 -53 -362 -69
-111 -26 -197 -41 -226 -41 -43 0 -125 -29 -150 -53 -13 -12 -45 -39 -71 -60
-41 -33 -53 -37 -102 -37 -30 0 -58 -4 -61 -10 -3 -5 -23 -10 -44 -10 -35 0
-43 -6 -101 -76 -76 -92 -110 -124 -130 -124 -52 -1 -167 -59 -237 -121 -72
-64 -101 -78 -114 -58 -15 25 -10 63 15 100 41 61 97 169 87 169 -5 0 -49 -38
-98 -85 -48 -46 -90 -84 -93 -84 -3 0 -18 10 -34 23 -28 24 -28 24 -12 57 9
18 15 33 14 35 -4 2 -136 -145 -147 -165 -7 -10 -13 -11 -30 -2 -26 15 -27 29
0 57 11 12 39 49 62 83 23 34 73 105 111 159 89 124 247 434 240 471 -5 32 6
46 76 97 383 281 744 454 1075 516 109 20 471 18 562 -5 71 -17 122 -22 111
-11 -3 3 -39 18 -79 34 -41 15 -108 42 -151 59 -215 87 -404 72 -788 -60 -80
-28 -159 -59 -177 -69 l-32 -19 -87 92 c-109 116 -193 223 -287 368 -126 194
-247 455 -247 535 0 30 7 30 37 2 l23 -21 0 47 c0 69 22 58 96 -48 34 -49 103
-133 152 -187 50 -54 98 -114 108 -134 16 -35 57 -75 77 -75 6 0 8 19 4 50 -5
44 -2 58 34 130 22 43 58 102 79 129 22 27 55 74 74 103 69 105 84 113 67 37
-10 -42 -15 -149 -7 -149 16 0 389 273 415 304 22 26 36 13 33 -30z m2548
-229 c0 -15 -53 -86 -72 -96 -27 -15 -198 -25 -198 -12 0 5 38 16 85 25 71 13
93 22 128 52 40 33 57 43 57 31z m520 -353 c0 -11 -69 -46 -76 -39 -4 4 5 11
19 16 14 5 28 15 32 20 7 13 25 15 25 3z m744 -62 c-73 -60 -307 -200 -409
-245 -49 -21 -130 -60 -180 -86 -49 -26 -105 -50 -122 -54 -18 -4 -35 -11 -39
-16 -6 -10 30 -8 223 12 122 12 120 12 103 -5 -46 -46 -500 -132 -820 -156
-257 -19 -565 -7 -755 29 -55 11 -122 22 -150 26 -66 8 -303 62 -385 87 -62
19 -95 36 -87 45 2 2 60 -10 129 -26 213 -51 539 -101 698 -107 156 -7 504 16
634 41 101 20 216 51 267 73 24 11 95 36 157 56 70 22 170 66 260 114 453 242
580 298 476 212z m-2465 -550 c42 -11 106 -24 144 -31 37 -6 67 -15 67 -20 0
-6 -19 -38 -42 -72 -24 -34 -56 -93 -72 -130 -31 -73 -31 -73 -127 -80 l-57
-3 -5 160 c-3 89 -9 172 -13 185 -6 21 -5 23 11 17 11 -4 53 -16 94 -26z m472
-66 c111 -33 185 -81 272 -178 170 -190 201 -216 345 -288 179 -91 233 -127
327 -222 124 -125 171 -236 163 -386 -4 -82 -44 -182 -81 -202 -28 -15 -30 -6
-11 58 44 152 -29 370 -168 500 -70 66 -135 107 -284 182 -163 81 -229 133
-329 259 -77 96 -173 176 -232 193 -21 6 -73 14 -115 17 -43 3 -78 10 -78 15
0 5 13 23 29 39 35 34 77 38 162 13z m-108 -124 c5 -4 -5 -11 -21 -15 -37 -8
-112 -72 -142 -120 -12 -19 -26 -35 -31 -35 -17 0 -9 37 22 99 23 46 40 67 63
77 31 14 93 11 109 -6z m-248 -234 c140 -65 253 -239 285 -440 17 -109 -12
-176 -103 -233 -43 -27 -67 -25 -67 8 0 16 5 20 20 16 29 -7 62 37 95 127 25
68 27 85 21 149 -5 59 -13 83 -46 137 -43 71 -66 99 -95 117 -11 7 -45 28 -75
47 -58 36 -110 55 -110 39 0 -6 12 -15 26 -22 34 -15 25 -25 -10 -11 -15 5
-45 10 -67 10 -21 0 -39 3 -39 6 0 16 24 45 48 58 38 21 59 19 117 -8z m-4668
-247 c259 -80 484 -291 585 -549 24 -62 45 -160 34 -160 -3 0 -30 48 -60 108
-103 198 -239 347 -386 421 -45 22 -91 41 -101 41 -18 0 -18 -2 -5 -22 8 -13
17 -39 19 -58 3 -19 11 -48 20 -64 8 -16 13 -35 10 -42 -3 -8 -1 -14 4 -14 5
0 7 -16 5 -36 -3 -24 0 -40 9 -46 11 -7 11 -11 2 -15 -21 -8 19 -73 79 -129
29 -28 69 -68 88 -89 19 -22 -10 3 -65 54 -180 169 -327 275 -479 347 -105 49
-251 94 -307 94 -22 0 -39 4 -39 9 0 19 97 92 166 127 38 19 92 39 120 44 73
13 223 3 301 -21z m5063 -129 c11 -7 15 -30 15 -96 0 -78 -2 -87 -24 -105 -41
-33 -53 -25 -35 21 12 30 15 61 12 115 -5 76 0 86 32 65z m132 -17 c22 -20 23
-62 2 -134 -20 -68 -39 -99 -63 -99 -18 0 -18 2 1 58 11 31 20 87 21 124 2 71
8 79 39 51z m-442 -72 c0 -27 -7 -44 -25 -61 -35 -33 -40 -20 -16 35 12 26 21
54 21 62 0 8 5 11 10 8 6 -3 10 -23 10 -44z m575 17 c14 -6 25 -19 25 -29 0
-32 -47 -126 -71 -143 -47 -33 -51 -15 -14 68 14 31 25 70 25 86 0 34 0 34 35
18z m-2566 -90 c-48 -96 -127 -225 -188 -308 -75 -103 -296 -322 -411 -408
-52 -39 -109 -82 -126 -96 -40 -33 -44 -32 -44 3 0 30 22 57 39 46 6 -3 16 4
23 16 7 11 61 60 119 108 166 136 371 363 524 579 79 112 86 122 91 122 2 0
-10 -28 -27 -62z m-3214 37 c95 -24 275 -118 388 -203 172 -129 288 -256 419
-454 63 -95 136 -211 163 -258 88 -156 151 -245 260 -365 59 -66 125 -144 146
-175 21 -30 59 -81 84 -113 62 -81 127 -204 165 -317 45 -133 41 -195 -20
-304 -59 -104 -121 -148 -84 -61 26 62 16 184 -21 265 -76 167 -197 345 -347
511 -163 181 -210 244 -288 389 -97 179 -278 443 -382 555 -289 313 -473 424
-686 413 -56 -3 -99 -11 -120 -22 -43 -22 -49 -15 -23 27 72 116 184 153 346
112z m5070 -85 c-20 -38 -280 -300 -333 -335 l-39 -26 -144 26 c-177 32 -310
60 -369 78 -101 32 -291 116 -341 150 l-23 17 35 0 c19 0 73 -16 119 -36 178
-75 398 -133 584 -154 97 -10 101 -10 151 15 64 31 331 284 354 335 l16 35 3
-37 c2 -20 -4 -51 -13 -68z m843 50 c4 -38 -37 -92 -88 -117 -25 -12 -49 -22
-53 -23 -4 0 10 24 31 53 22 28 48 67 58 85 22 38 48 39 52 2z m45 -138 c-16
-26 -44 -57 -63 -70 -30 -20 -43 -23 -90 -18 -30 4 -95 9 -144 12 -85 6 -89 7
-126 44 -21 21 -46 43 -56 49 -46 26 48 9 137 -25 153 -58 155 -58 196 -46 21
6 67 36 103 66 36 31 67 51 69 45 1 -6 -10 -31 -26 -57z m475 -62 c6 -79 -12
-141 -54 -184 -61 -63 -132 -70 -248 -26 -99 38 -198 149 -155 175 5 4 31 -13
57 -37 42 -38 147 -98 155 -87 42 60 61 79 80 79 16 0 18 3 9 9 -9 5 -11 17
-6 34 6 26 4 27 -32 28 -35 1 -34 2 16 10 30 5 59 14 64 19 17 17 74 12 79 -7
3 -10 5 2 6 27 2 66 24 36 29 -40z m-4681 28 c43 -17 75 -40 123 -88 100 -100
124 -134 110 -160 -13 -24 -67 -60 -90 -60 -8 0 -67 41 -130 92 -63 50 -139
107 -168 126 -60 40 -62 56 -13 89 43 29 92 29 168 1z m-1751 -29 c99 -41 174
-99 318 -246 135 -139 168 -178 236 -279 25 -36 60 -87 79 -112 33 -44 120
-203 173 -314 18 -38 23 -58 15 -58 -18 0 -58 29 -86 63 -24 28 -101 74 -101
60 1 -5 7 -19 15 -33 27 -47 20 -68 -27 -82 -48 -14 -221 -17 -256 -4 -22 8
-23 7 -11 -12 7 -12 10 -24 6 -29 -15 -14 -101 44 -202 137 -126 117 -183 179
-274 300 -82 109 -114 167 -170 307 -35 87 -41 111 -41 176 0 93 18 119 100
147 69 24 129 18 226 -21z m2535 -132 l-23 -22 17 28 c10 15 20 25 23 22 3 -3
-5 -16 -17 -28z m-1287 -41 c29 -38 31 -207 3 -250 -35 -52 -42 -29 -42 132 0
90 4 151 9 149 6 -2 19 -16 30 -31z m165 -102 c42 -54 55 -225 19 -261 -25
-25 -38 -6 -38 55 0 31 -9 100 -20 152 -11 52 -20 96 -20 98 0 9 42 -22 59
-44z m351 -25 c28 -22 54 -48 57 -57 3 -9 15 -24 26 -34 18 -14 19 -19 8 -32
-20 -24 -30 -20 -47 24 -9 22 -38 60 -65 84 -27 24 -49 47 -49 50 0 14 21 3
70 -35z m388 -37 c127 -171 198 -358 209 -548 l6 -100 -33 -38 c-30 -33 -122
-96 -142 -96 -5 0 -8 9 -8 20 0 12 16 28 43 44 62 37 88 69 98 121 19 99 -39
336 -103 420 -18 24 -37 45 -41 45 -5 0 -24 12 -42 26 -27 20 -43 25 -80 23
-40 -3 -49 1 -78 30 -23 24 -28 35 -18 38 7 3 36 25 65 48 28 24 54 44 59 44
4 1 33 -34 65 -77z m-489 23 c39 -45 111 -191 111 -225 0 -78 -33 -80 -55 -3
-17 59 -60 149 -101 215 -13 21 -24 42 -24 47 0 18 41 -2 69 -34z m-133 8 c63
-41 120 -239 79 -273 -23 -19 -32 -4 -49 76 -8 39 -27 102 -41 139 -33 87 -33
87 11 58z m-629 -769 c21 -25 71 -84 112 -132 l75 -87 -55 -7 c-30 -4 -116
-12 -192 -19 l-137 -13 -68 66 c-37 37 -102 90 -144 117 -73 47 -99 71 -63 57
21 -8 298 31 350 49 66 22 80 19 122 -31z m1163 -24 c-5 -16 -18 -43 -30 -60
-26 -36 -103 -199 -160 -340 -32 -76 -54 -115 -82 -143 -43 -41 -58 -41 -58 2
0 18 12 39 39 65 27 27 54 72 87 145 25 58 56 122 67 141 21 38 141 220 144
220 1 0 -2 -13 -7 -30z m-878 -307 c24 -32 62 -87 83 -123 21 -36 54 -89 73
-118 44 -70 93 -203 94 -260 2 -93 -79 -109 -208 -42 -99 51 -164 101 -266
203 -131 131 -217 258 -234 346 l-6 31 123 1 c68 1 149 4 179 9 114 15 113 16
162 -47z"/>
<path d="M5780 11162 c0 -12 19 -26 26 -19 2 2 -2 10 -11 17 -9 8 -15 8 -15 2z"/>
<path d="M5819 10651 c-88 -57 -131 -119 -183 -264 -64 -180 -117 -254 -195
-277 -43 -12 -97 5 -123 40 -12 17 -25 30 -30 30 -18 0 -6 -79 20 -131 21 -42
37 -59 72 -76 l44 -23 -36 0 c-33 0 -36 -3 -40 -32 -3 -18 1 -60 9 -93 8 -33
18 -127 22 -208 7 -121 12 -152 27 -168 10 -11 26 -18 35 -16 25 7 148 -19
220 -46 35 -13 100 -27 144 -31 44 -4 84 -11 91 -16 7 -7 38 11 91 51 127 94
240 157 343 190 80 26 116 32 227 36 133 6 152 12 132 44 -6 10 -30 14 -88 14
l-80 -1 35 23 c19 13 34 28 34 33 0 18 -84 10 -153 -15 l-69 -24 9 27 c4 15 8
74 8 132 0 100 -2 108 -37 182 -49 104 -112 169 -207 216 -72 35 -80 37 -176
37 -98 0 -102 -1 -184 -42 l-83 -43 7 28 c9 39 62 124 115 184 94 108 222 161
335 139 27 -5 51 -8 53 -6 9 8 -20 44 -56 69 -65 45 -134 66 -215 66 -63 0
-79 -4 -118 -29z m402 -617 c46 -68 69 -142 69 -226 0 -107 -16 -132 -118
-188 -46 -26 -109 -66 -139 -91 -122 -98 -137 -104 -237 -103 -74 0 -104 6
-161 28 -38 15 -77 33 -86 42 -23 20 -31 108 -19 195 11 79 55 215 76 240 8 8
14 20 14 25 0 18 71 94 102 110 36 19 78 7 120 -33 23 -22 28 -35 28 -74 0
-41 -4 -51 -34 -77 -19 -17 -48 -33 -65 -37 -45 -10 -88 3 -127 37 l-34 30 0
-66 c0 -78 21 -127 80 -186 62 -62 112 -83 210 -88 78 -3 90 -1 140 25 144 74
202 293 120 455 -17 32 -30 61 -30 64 0 15 64 -43 91 -82z m-93 -226 c7 -7 12
-24 12 -39 0 -36 -78 -128 -128 -151 -38 -18 -115 -23 -171 -12 -44 9 -108 71
-117 114 l-6 34 23 -17 c114 -82 140 -89 230 -62 67 21 99 51 99 96 0 38 35
60 58 37z"/>
<path d="M7570 9074 c-53 -17 -68 -28 -99 -71 -29 -43 -19 -42 43 6 28 21 61
41 73 45 22 7 53 37 37 35 -5 0 -29 -7 -54 -15z"/>
<path d="M6896 10634 c-46 -24 -166 -103 -166 -110 0 -7 51 16 78 34 15 11 56
38 92 60 73 47 71 55 -4 16z"/>
<path d="M4225 9880 c-3 -5 -2 -10 4 -10 5 0 13 5 16 10 3 6 2 10 -4 10 -5 0
-13 -4 -16 -10z"/>
<path d="M6797 10323 c-26 -7 -10 -23 24 -23 20 0 29 4 27 13 -5 13 -24 17
-51 10z"/>
<path d="M10545 9625 c-22 -14 -36 -25 -31 -25 10 0 76 40 76 46 0 6 -2 5 -45
-21z"/>
<path d="M10133 9248 c-14 -17 -55 -98 -50 -98 7 0 68 102 64 107 -2 2 -9 -2
-14 -9z"/>
<path d="M8945 9080 c-3 -5 -1 -10 4 -10 6 0 11 5 11 10 0 6 -2 10 -4 10 -3 0
-8 -4 -11 -10z"/>
<path d="M9256 8079 c-4 -23 -5 -44 -2 -46 2 -2 7 14 11 37 4 23 5 43 2 46 -2
3 -7 -14 -11 -37z"/>
<path d="M6708 7705 c-20 -14 -40 -25 -44 -25 -3 0 -47 -26 -98 -57 -140 -87
-157 -106 -70 -77 77 26 204 93 204 107 0 5 14 20 30 34 29 24 39 43 22 43 -4
0 -24 -11 -44 -25z"/>
<path d="M4640 7461 c-60 -94 -90 -217 -90 -364 0 -102 17 -99 24 5 10 128 29
213 70 315 20 48 34 88 32 90 -2 2 -18 -19 -36 -46z"/>
<path d="M5584 5860 c3 -69 11 -138 16 -155 8 -23 9 -14 4 40 -3 39 -8 106
-10 150 -3 43 -7 82 -11 85 -3 3 -3 -51 1 -120z"/>
<path d="M5160 5906 c0 -9 5 -16 10 -16 6 0 10 4 10 9 0 6 -4 13 -10 16 -5 3
-10 -1 -10 -9z"/>
<path d="M5658 5043 c7 -3 16 -2 19 1 4 3 -2 6 -13 5 -11 0 -14 -3 -6 -6z"/>
<path d="M4688 4673 c-27 -14 -46 -28 -44 -31 5 -5 146 47 146 54 0 13 -62 0
-102 -23z"/>
<path d="M1990 3772 c0 -4 11 -23 24 -43 l24 -36 -86 -13 c-48 -7 -122 -15
-165 -17 -75 -5 -78 -6 -72 -27 3 -11 8 -36 12 -53 7 -39 7 -39 121 -14 48 11
131 25 185 30 103 12 140 24 135 44 -9 36 -178 159 -178 129z"/>
<path d="M2225 3521 c-3 -6 10 -34 29 -64 l35 -54 -95 -7 c-52 -3 -129 -13
-172 -21 -42 -8 -99 -15 -126 -15 -40 0 -47 -3 -42 -16 3 -9 9 -27 12 -41 6
-23 10 -25 43 -19 66 12 345 55 398 61 28 4 60 13 69 20 18 12 17 14 -1 50
-38 70 -131 136 -150 106z"/>
<path d="M2416 3248 c5 -7 21 -31 37 -53 l28 -40 -138 -13 c-76 -7 -173 -14
-215 -15 -43 -1 -78 -3 -78 -5 0 -6 50 -81 57 -85 5 -3 29 -1 54 3 25 5 108
16 185 24 150 17 224 38 224 63 0 25 -113 133 -139 133 -15 0 -20 -4 -15 -12z"/>
<path d="M3010 2368 c-30 -11 -85 -20 -122 -21 -37 -1 -68 -6 -68 -10 0 -4 7
-19 16 -32 9 -14 14 -32 10 -40 -7 -19 5 -19 179 0 155 17 181 26 165 55 -16
30 -75 70 -101 69 -13 -1 -49 -10 -79 -21z"/>
<path d="M3194 2180 c-6 -6 -66 -14 -132 -17 -67 -3 -122 -10 -122 -14 0 -12
62 -57 103 -74 51 -21 210 -21 231 1 21 21 20 36 -6 70 -35 46 -54 54 -74 34z"/>
<path d="M5850 11989 c-74 -5 -162 -13 -195 -18 l-60 -10 60 4 c305 20 627 26
833 16 125 -6 252 -10 282 -10 30 1 -33 8 -140 15 -219 14 -577 15 -780 3z"/>
<path d="M5523 11953 c15 -2 37 -2 50 0 12 2 0 4 -28 4 -27 0 -38 -2 -22 -4z"/>
<path d="M5408 11933 c7 -3 16 -2 19 1 4 3 -2 6 -13 5 -11 0 -14 -3 -6 -6z"/>
<path d="M6935 11915 c-22 -13 -35 -24 -30 -24 6 0 28 11 50 24 22 14 36 25
30 25 -5 0 -28 -11 -50 -25z"/>
<path d="M5338 11923 c6 -2 18 -2 25 0 6 3 1 5 -13 5 -14 0 -19 -2 -12 -5z"/>
<path d="M4995 11856 c-174 -37 -276 -66 -269 -77 2 -4 21 -1 42 6 20 7 89 25
152 39 219 50 275 64 250 64 -14 0 -92 -14 -175 -32z"/>
<path d="M6859 11863 c-13 -15 -12 -15 9 -4 23 12 28 21 13 21 -5 0 -15 -7
-22 -17z"/>
<path d="M7891 11713 c5 -21 15 -78 23 -128 l14 -90 -2 100 c0 55 -5 103 -11
107 -22 16 29 7 64 -11 33 -18 138 -52 158 -51 20 1 -223 110 -246 110 -4 0
-5 -17 0 -37z"/>
<path d="M4845 11630 c10 -11 20 -20 23 -20 3 0 -3 9 -13 20 -10 11 -20 20
-23 20 -3 0 3 -9 13 -20z"/>
<path d="M8170 11622 c0 -8 114 -62 131 -62 6 0 42 -18 82 -39 69 -38 187 -85
187 -75 0 3 -26 16 -57 30 -32 14 -94 43 -138 64 -84 41 -195 90 -201 90 -2 0
-4 -4 -4 -8z"/>
<path d="M4920 11546 c0 -2 8 -10 18 -17 15 -13 16 -12 3 4 -13 16 -21 21 -21
13z"/>
<path d="M3847 11505 c-15 -11 -15 -14 -3 -24 12 -10 16 -8 21 9 9 28 4 31
-18 15z"/>
<path d="M8602 11414 c10 -11 41 -28 70 -39 29 -10 71 -31 93 -45 22 -15 87
-53 145 -85 58 -31 108 -62 112 -68 4 -6 10 -8 14 -5 13 13 -285 187 -441 256
-5 3 -2 -4 7 -14z"/>
<path d="M1860 11410 c-8 -5 -10 -10 -5 -10 6 0 17 5 25 10 8 5 11 10 5 10 -5
0 -17 -5 -25 -10z"/>
<path d="M3600 11375 c-14 -8 -20 -14 -14 -15 5 0 19 7 30 15 24 18 16 19 -16
0z"/>
<path d="M3527 11339 c-22 -11 -37 -23 -34 -25 5 -5 77 35 77 42 0 6 -1 5 -43
-17z"/>
<path d="M3380 11255 c-95 -55 -131 -82 -80 -58 44 20 170 94 170 99 0 10 -20
1 -90 -41z"/>
<path d="M1644 11248 l-19 -23 23 19 c12 11 22 21 22 23 0 8 -8 2 -26 -19z"/>
<path d="M3188 11139 c-21 -11 -38 -24 -38 -29 0 -15 7 -12 52 20 47 34 41 38
-14 9z"/>
<path d="M9085 11135 c17 -13 46 -32 65 -41 19 -9 43 -23 53 -32 9 -8 19 -13
22 -10 6 6 -84 67 -135 92 l-35 17 30 -26z"/>
<path d="M9245 11030 c3 -5 32 -28 63 -50 31 -22 71 -49 87 -61 17 -11 10 -2
-15 20 -46 42 -147 110 -135 91z"/>
<path d="M3151 11015 c0 -5 6 -32 13 -60 8 -27 14 -41 14 -30 0 21 -25 107
-27 90z"/>
<path d="M3183 10835 c0 -22 2 -30 4 -17 2 12 2 30 0 40 -3 9 -5 -1 -4 -23z"/>
<path d="M9495 10840 c10 -11 20 -20 23 -20 3 0 -3 9 -13 20 -10 11 -20 20
-23 20 -3 0 3 -9 13 -20z"/>
<path d="M10326 10555 c-3 -8 -11 -15 -18 -15 -7 0 -19 -9 -26 -20 -7 -11 -21
-20 -31 -20 -29 0 -51 -43 -51 -99 0 -74 11 -94 25 -45 9 33 9 40 -4 46 -13 5
-12 7 4 7 12 1 25 13 33 31 7 16 34 52 59 80 27 31 39 50 30 50 -8 0 -17 -7
-21 -15z"/>
<path d="M1295 10330 c-25 -11 1 -11 35 0 20 6 21 8 5 8 -11 0 -29 -3 -40 -8z"/>
<path d="M1248 10313 c7 -3 16 -2 19 1 4 3 -2 6 -13 5 -11 0 -14 -3 -6 -6z"/>
<path d="M11335 10237 c84 -22 155 -64 170 -100 8 -18 14 -26 15 -18 1 53 -95
119 -184 127 l-51 4 50 -13z"/>
<path d="M1915 9960 c-3 -5 -2 -10 4 -10 5 0 13 5 16 10 3 6 2 10 -4 10 -5 0
-13 -4 -16 -10z"/>
<path d="M3618 9953 c6 -2 18 -2 25 0 6 3 1 5 -13 5 -14 0 -19 -2 -12 -5z"/>
<path d="M1078 9353 c7 -3 16 -2 19 1 4 3 -2 6 -13 5 -11 0 -14 -3 -6 -6z"/>
<path d="M11366 9087 c3 -10 9 -15 12 -12 3 3 0 11 -7 18 -10 9 -11 8 -5 -6z"/>
<path d="M7636 8769 c-9 -18 -14 -34 -12 -37 3 -2 12 10 21 28 9 18 14 34 12
37 -3 2 -12 -10 -21 -28z"/>
<path d="M1533 7962 c-33 -31 -112 -113 -175 -182 -126 -139 -479 -497 -604
-611 -44 -41 -129 -114 -188 -164 -152 -126 -196 -177 -225 -259 -15 -44 -20
-70 -14 -75 6 -3 12 -15 14 -25 3 -16 9 -12 31 21 14 22 57 66 95 99 263 228
617 570 958 927 88 92 166 167 174 167 29 0 -9 -345 -46 -418 -11 -20 -51 -96
-91 -169 -40 -72 -72 -133 -72 -136 0 -3 13 -8 29 -12 31 -7 59 -49 38 -59 -9
-5 -9 -7 1 -12 6 -3 10 -10 6 -15 -3 -5 3 -9 13 -9 24 0 29 -40 5 -40 -15 -1
-16 -2 -1 -13 20 -15 21 -47 1 -47 -9 0 -13 -3 -9 -6 3 -4 -2 -28 -13 -55 -10
-27 -17 -49 -15 -49 2 0 43 57 91 126 88 126 190 232 208 214 5 -5 26 -49 46
-97 209 -493 407 -809 807 -1285 71 -84 163 -196 204 -248 42 -52 93 -110 115
-128 21 -18 51 -45 66 -59 48 -48 42 -16 -12 59 -67 92 -121 158 -184 226 -28
29 -68 78 -90 110 -21 31 -67 95 -100 142 -34 47 -76 108 -93 136 -17 29 -73
107 -125 174 -148 195 -212 290 -299 441 -41 72 -124 263 -110 255 5 -3 28
-38 51 -78 159 -268 382 -582 427 -599 78 -29 170 -111 264 -234 221 -291 255
-329 549 -624 190 -191 371 -363 495 -471 l41 -35 -4 -137 c-2 -76 -7 -138
-11 -138 -4 0 -52 42 -107 93 -55 50 -124 112 -153 137 -66 55 -191 143 -191
134 0 -24 386 -418 420 -429 17 -6 20 -15 20 -75 0 -42 -5 -72 -12 -76 -6 -4
-14 -2 -16 4 -2 7 -12 12 -22 12 -10 0 -32 14 -48 30 -17 17 -35 30 -40 30
-10 0 -113 106 -183 189 -63 74 -79 67 -79 -33 0 -41 6 -103 14 -138 22 -95
25 -200 6 -206 -8 -3 -12 -1 -8 3 5 5 -7 18 -26 29 -49 30 -218 195 -213 209
2 6 18 15 35 19 18 5 32 14 32 21 0 7 -25 37 -54 68 -41 42 -53 62 -49 77 3
15 -8 34 -39 69 -73 79 -164 206 -220 305 -54 95 -109 177 -118 178 -6 0 7
-111 45 -385 l6 -40 -18 40 c-23 53 -64 122 -123 210 -26 39 -73 108 -103 155
-91 139 -300 402 -317 397 -4 -1 -28 21 -54 48 l-47 50 27 -50 c15 -27 43 -74
61 -103 18 -29 33 -55 33 -57 0 -3 26 -44 59 -93 32 -48 78 -118 101 -157 107
-177 295 -406 360 -440 21 -11 29 -30 54 -129 24 -96 27 -118 16 -131 -11 -13
-9 -19 10 -40 26 -27 45 -112 30 -130 -7 -8 4 -25 36 -56 63 -60 182 -210 228
-287 22 -36 54 -73 75 -86 l36 -24 31 67 c36 76 61 102 128 131 109 49 261 46
378 -7 43 -19 67 -24 95 -19 21 3 31 2 23 -2 -19 -8 -20 -34 -2 -40 6 -2 12 2
12 8 0 7 14 33 32 59 95 138 138 205 138 211 0 4 -18 27 -41 51 -49 54 -129
171 -129 191 0 12 -27 109 -56 201 -10 32 11 17 117 -86 58 -56 122 -115 141
-132 l34 -30 39 90 c30 68 53 105 97 151 l59 61 -53 33 c-110 69 -158 104
-207 152 -28 27 -51 54 -51 59 0 5 -7 9 -15 9 -8 0 -15 5 -15 10 0 15 48 -12
157 -86 51 -35 125 -82 163 -103 69 -40 70 -40 100 -23 32 18 39 32 16 32 -7
0 -20 7 -27 17 -8 9 -68 60 -134 114 -66 55 -176 150 -245 214 -69 63 -147
134 -175 157 -81 69 -386 397 -350 376 6 -3 71 -42 145 -87 222 -135 339 -209
378 -239 20 -16 66 -44 102 -62 36 -18 102 -56 146 -86 45 -29 131 -78 192
-108 60 -31 130 -71 156 -91 25 -19 56 -36 69 -36 17 -1 18 -2 5 -6 -19 -5
-25 -23 -7 -23 19 0 49 20 49 34 0 7 -25 39 -55 72 -40 43 -54 52 -49 35 6
-22 4 -23 -26 -16 -44 10 -149 67 -245 132 -85 59 -393 268 -535 364 -47 32
-143 98 -215 148 -71 49 -168 116 -214 147 l-85 57 28 14 c41 22 24 27 -31 10
-156 -50 -453 -49 -523 1 -14 11 -33 35 -42 55 -11 22 -45 57 -90 90 -146 110
-209 198 -259 362 -18 61 -35 138 -37 172 -4 61 -3 63 27 80 17 10 31 24 31
31 0 7 -15 52 -34 100 -19 48 -48 134 -66 192 -37 121 -84 215 -117 237 -13 9
-53 51 -90 95 -159 191 -496 568 -508 568 -5 0 -38 -26 -72 -58z m-96 -818
c-3 -3 -12 -4 -19 -1 -8 3 -5 6 6 6 11 1 17 -2 13 -5z m2553 -2050 c0 -9 -37
15 -51 33 -10 12 -5 11 19 -6 17 -12 32 -24 32 -27z m-229 -874 c22 -39 32
-67 26 -69 -6 -2 -13 1 -15 8 -2 6 -10 11 -18 11 -18 0 -74 77 -74 102 0 14 6
19 22 16 15 -2 34 -23 59 -68z"/>
<path d="M10625 7963 c-28 -32 -78 -87 -111 -123 -34 -36 -91 -99 -127 -140
l-66 -75 52 -17 52 -18 128 131 c91 92 132 128 140 120 13 -13 -15 -234 -39
-306 -15 -45 -86 -173 -195 -352 l-37 -61 33 5 c40 6 76 -4 57 -16 -10 -6 -10
-17 0 -57 7 -27 19 -54 26 -59 10 -8 5 -25 -23 -84 -37 -76 -41 -108 -6 -50
65 110 146 210 209 259 50 40 54 41 71 25 11 -9 25 -31 32 -48 6 -18 47 -106
90 -197 42 -91 103 -223 134 -295 52 -120 117 -242 187 -355 38 -61 180 -229
195 -229 6 -1 15 8 18 19 7 22 2 32 -86 162 -74 111 -181 298 -234 411 -51
110 -107 248 -102 253 8 9 116 -160 196 -309 49 -89 97 -176 107 -193 10 -17
40 -67 66 -110 62 -105 99 -154 110 -148 9 6 112 157 183 269 82 129 131 183
177 196 24 6 49 13 56 15 17 5 15 59 -4 102 -11 23 -145 165 -353 372 -310
309 -511 529 -721 790 -106 132 -141 170 -154 170 -6 0 -34 -26 -61 -57z"/>
<path d="M1706 6835 c-3 -9 -19 -18 -35 -21 -49 -10 -58 -29 -64 -144 -6 -117
-41 -262 -102 -425 -48 -131 -52 -144 -34 -127 7 6 22 12 34 12 11 0 38 9 60
20 21 11 41 17 44 15 2 -3 8 -80 11 -173 8 -185 20 -231 67 -255 15 -8 42 -35
59 -59 56 -77 135 -192 166 -240 28 -45 37 -52 64 -49 18 2 31 -20 53 -95 38
-130 72 -317 74 -406 l1 -88 23 28 c12 15 23 23 24 17 4 -37 -9 -138 -27 -196
-4 -14 10 -17 103 -21 93 -5 126 -11 238 -49 71 -24 154 -59 185 -78 120 -73
126 -76 111 -58 -7 9 -19 17 -26 17 -38 0 -86 90 -63 118 8 9 4 20 -15 40 -15
16 -27 35 -27 44 0 18 -42 54 -146 122 -65 42 -124 107 -124 137 0 7 12 10 30
7 17 -3 30 -1 30 4 0 19 -30 65 -65 98 -46 44 -151 170 -192 230 -17 25 -63
106 -103 180 -39 74 -74 137 -76 139 -2 3 -9 0 -15 -6 -7 -7 -7 -24 0 -54 18
-81 21 -121 8 -116 -7 2 -17 39 -23 83 -6 43 -28 147 -48 229 -34 142 -46 255
-27 255 11 0 128 -135 165 -192 17 -26 36 -48 43 -48 11 0 -17 49 -170 289
-101 158 -115 193 -138 342 -32 208 -49 357 -49 426 0 60 -11 81 -24 48z"/>
<path d="M10723 6817 c-12 -18 -28 -48 -34 -67 -7 -19 -18 -42 -25 -51 -8 -8
-14 -24 -14 -35 0 -26 -89 -278 -139 -394 -40 -93 -47 -109 -91 -200 l-22 -45
38 38 c42 42 102 77 134 77 27 0 26 -31 -5 -152 -28 -110 -40 -138 -102 -225
-24 -34 -39 -64 -34 -68 6 -3 2 -24 -10 -52 -22 -51 -20 -50 46 9 16 16 33 28
37 28 5 0 21 18 38 41 l29 41 19 -31 c10 -17 30 -63 43 -101 13 -39 27 -70 31
-70 3 0 20 24 37 54 33 56 67 86 99 86 18 0 19 8 18 101 -1 86 2 103 16 112
40 26 121 -94 147 -215 13 -62 32 -80 26 -25 -11 85 -20 117 -56 188 -22 43
-39 80 -39 83 0 4 -20 60 -44 125 -68 180 -96 369 -96 637 0 157 -6 171 -47
111z"/>
<path d="M1131 6799 c-32 -43 -21 -46 12 -4 15 19 24 35 19 35 -4 0 -18 -14
-31 -31z"/>
<path d="M1181 6694 c0 -11 3 -14 6 -6 3 7 2 16 -1 19 -3 4 -6 -2 -5 -13z"/>
<path d="M1131 6568 c-22 -58 -54 -147 -72 -199 -45 -135 -74 -192 -118 -231
-21 -18 -59 -64 -85 -102 l-47 -69 28 -13 28 -12 -36 -1 c-28 -1 -41 -7 -53
-26 -15 -22 -15 -25 -1 -25 13 0 14 -4 5 -20 -9 -16 -8 -20 5 -20 13 0 14 -4
4 -22 -8 -14 -14 -18 -17 -10 -5 16 -32 16 -32 0 0 -10 -3 -9 -9 1 -5 8 -14
10 -22 5 -9 -5 -3 -11 22 -20 26 -9 29 -13 12 -13 -18 -1 -74 -60 -65 -68 1
-2 2 -10 2 -18 0 -18 -26 -20 -33 -2 -3 6 -6 3 -6 -8 -1 -43 14 -44 53 -2 92
101 249 321 316 442 18 33 57 94 86 137 30 42 54 80 54 85 0 4 19 31 41 58 31
38 38 51 26 53 -12 2 -14 11 -10 37 5 30 2 36 -18 44 -13 5 -19 10 -14 11 6 0
4 4 -4 9 -11 7 -12 17 -3 52 19 74 6 55 -37 -53z m-296 -667 c-8 -17 -20 -33
-26 -37 -7 -4 -7 2 1 17 10 17 10 24 1 27 -17 6 -3 22 20 22 18 0 19 -2 4 -29z"/>
<path d="M10151 6501 c-6 -10 -16 -52 -22 -92 -12 -81 -35 -134 -74 -174 -15
-14 -24 -29 -20 -34 3 -5 -2 -11 -11 -13 -15 -3 -49 -86 -39 -96 7 -7 91 114
153 220 33 57 72 114 86 127 14 14 26 29 26 35 0 6 -8 2 -16 -9 l-16 -20 4 20
c4 21 -26 55 -48 55 -7 0 -18 -8 -23 -19z"/>
<path d="M11766 6335 c-22 -24 -53 -64 -68 -87 -16 -23 -47 -65 -69 -94 -22
-28 -64 -98 -95 -155 -66 -123 -168 -272 -243 -354 -30 -33 -102 -102 -160
-153 -59 -51 -107 -102 -109 -112 -2 -14 9 -22 50 -35 56 -18 78 -32 78 -46 0
-5 -53 -64 -117 -132 -119 -124 -223 -241 -223 -251 0 -2 14 -1 30 4 36 10 34
6 -24 -63 -44 -51 -112 -104 -122 -94 -4 3 3 19 15 35 12 17 21 37 21 46 0 8
8 20 18 25 13 8 6 10 -28 8 l-45 -2 2 120 c2 160 38 368 95 543 11 35 18 66
15 68 -10 10 -49 -42 -123 -162 -116 -190 -225 -334 -334 -442 -108 -106 -109
-112 -30 -112 21 0 41 -4 44 -9 4 -5 -10 -31 -31 -57 -20 -27 -51 -73 -70
-104 -81 -133 -161 -237 -218 -282 -32 -26 -62 -48 -65 -48 -3 0 -13 36 -21
80 -17 84 -12 95 27 65 10 -8 26 -15 35 -15 15 0 15 5 -2 61 -34 107 -23 296
27 504 24 99 31 175 17 175 -5 0 -24 -28 -44 -63 -212 -362 -230 -388 -333
-480 -42 -38 -76 -73 -76 -78 0 -5 11 -9 24 -9 33 0 56 -10 56 -24 0 -7 -43
-54 -96 -104 -53 -51 -93 -96 -90 -99 4 -4 24 11 46 32 64 62 56 35 -13 -46
-72 -84 -171 -181 -223 -218 -60 -42 -36 -71 60 -71 36 0 56 -4 56 -12 0 -13
-88 -145 -138 -207 -20 -23 -79 -75 -132 -114 -52 -38 -97 -74 -100 -78 -3 -4
-32 -23 -65 -41 -33 -19 -61 -41 -63 -50 -4 -21 54 -54 109 -63 80 -12 118
-25 114 -38 -4 -9 16 -13 69 -14 41 -1 91 -9 110 -17 43 -18 44 -15 -19 -186
-56 -151 -83 -269 -64 -281 16 -10 36 5 45 34 6 19 40 57 51 57 9 0 33 -29 31
-37 -3 -13 14 -56 27 -70 7 -7 15 -18 17 -25 4 -10 12 -10 34 -3 32 11 23 -13
105 290 17 61 33 118 35 128 7 24 25 22 123 -18 48 -19 127 -41 176 -49 74
-12 131 -27 154 -42 1 -2 -11 -41 -29 -87 -18 -47 -37 -111 -43 -143 -14 -68
-23 -75 -136 -99 -136 -28 -305 -20 -761 40 -473 62 -1172 96 -1935 93 -286
-1 -628 -2 -760 -2 -132 -1 -420 6 -640 14 -362 14 -388 16 -270 21 171 9 229
15 333 34 125 23 120 20 128 72 5 31 12 47 24 50 25 7 33 65 11 78 -21 14
-347 152 -391 166 -41 14 -326 153 -356 175 -20 14 -24 11 -80 -52 -126 -142
-353 -363 -438 -425 -185 -134 -171 -121 -174 -168 l-3 -43 278 8 c153 5 550
7 883 6 407 -2 658 1 767 9 135 11 236 10 605 -4 244 -9 544 -19 668 -22 397
-10 829 -39 1170 -79 330 -39 480 -57 536 -66 33 -6 94 -10 134 -10 48 0 71
-3 64 -10 -5 -5 -118 -63 -250 -129 -244 -121 -381 -204 -470 -284 -83 -75
-121 -88 -281 -103 -78 -7 -189 -24 -247 -38 -121 -29 -398 -76 -450 -76 -46
0 -46 15 -2 30 35 11 131 88 122 98 -3 3 -12 -1 -21 -8 -8 -7 -15 -10 -15 -6
0 3 -20 -9 -44 -28 -55 -42 -88 -49 -671 -151 -104 -18 -210 -38 -235 -45 -25
-7 -101 -23 -170 -35 -69 -12 -201 -38 -295 -58 -93 -20 -240 -50 -325 -66
-233 -46 -483 -98 -595 -125 -55 -14 -125 -29 -155 -35 -30 -5 -120 -24 -200
-41 -80 -17 -179 -38 -220 -46 -41 -9 -79 -20 -84 -25 -14 -13 186 -10 254 3
30 6 87 11 126 12 67 1 73 -1 103 -32 40 -39 45 -39 231 -6 133 23 248 41 515
79 113 16 185 19 185 7 0 -9 -195 -94 -327 -141 -45 -17 -101 -40 -124 -52
-23 -11 -83 -36 -133 -54 -50 -18 -116 -44 -146 -58 -87 -41 -256 -115 -362
-159 l-97 -41 -36 31 c-20 18 -45 32 -56 32 -30 0 -59 -18 -59 -38 -1 -25 -67
-52 -152 -61 -40 -5 -74 -7 -76 -6 -2 2 14 15 35 29 26 18 32 26 19 26 -30 0
-82 -30 -96 -55 -10 -19 -17 -22 -34 -15 -11 5 -42 12 -68 15 -35 4 -49 11
-53 26 -4 10 -14 19 -23 19 -9 0 -26 12 -36 27 -17 23 -18 26 -2 35 18 10 22
28 6 28 -6 0 -18 8 -29 19 -17 17 -43 19 -257 26 -435 14 -743 -3 -940 -51
-87 -21 -265 -95 -261 -108 11 -34 254 -76 441 -76 127 0 156 -7 156 -39 0 -6
5 -11 10 -11 6 0 10 -7 10 -15 0 -7 6 -18 14 -22 10 -5 16 -27 17 -61 2 -36 7
-52 16 -52 8 0 11 -4 8 -10 -3 -5 -36 -11 -73 -12 -37 0 -51 -3 -32 -5 282
-29 449 -43 560 -48 74 -3 202 -11 283 -17 144 -11 148 -11 167 10 11 11 30
24 42 27 13 4 61 29 108 56 111 64 306 148 500 216 254 89 280 99 405 148 66
26 131 51 145 55 14 5 61 23 105 40 175 69 404 146 532 180 110 29 213 39 213
21 0 -12 -37 -24 -49 -16 -5 3 -12 1 -16 -5 -3 -5 2 -10 12 -10 22 0 -161 -89
-199 -97 -16 -3 -28 -9 -28 -14 0 -5 -7 -9 -16 -9 -8 0 -12 4 -9 10 4 6 -8 10
-29 10 -27 0 -34 -4 -30 -14 4 -11 0 -13 -14 -9 -11 2 -23 0 -26 -6 -4 -6 -16
-11 -28 -11 -11 0 -34 -6 -51 -14 -18 -7 -75 -30 -127 -51 -52 -21 -121 -51
-152 -66 -31 -16 -87 -40 -124 -54 -37 -14 -150 -68 -250 -120 -100 -52 -190
-95 -199 -95 -10 0 -41 -13 -69 -29 -28 -16 -76 -34 -106 -41 -30 -7 -91 -32
-135 -55 -44 -23 -101 -48 -127 -55 -125 -33 -44 -38 822 -46 889 -8 1406 7
2205 66 201 15 601 57 810 85 99 13 254 34 345 45 90 11 169 25 175 31 7 8 1
9 -23 4 -51 -11 -214 15 -235 37 -13 13 -25 17 -40 11 -42 -14 -91 -9 -95 10
-3 13 3 17 27 17 17 0 31 3 31 7 0 20 -149 250 -180 278 -28 25 -25 36 7 24
47 -18 123 -80 185 -153 34 -39 67 -72 74 -74 9 -2 14 27 19 105 4 59 8 117
10 128 2 11 4 23 4 28 1 4 5 7 10 7 4 0 11 -20 14 -44 4 -24 15 -70 26 -103
11 -32 21 -71 23 -87 4 -37 34 -58 51 -35 31 41 129 141 134 136 3 -3 -7 -32
-21 -64 -15 -31 -31 -74 -35 -95 -10 -43 4 -58 56 -58 40 1 65 17 128 88 l57
62 -52 0 -52 0 19 33 c11 18 27 53 36 79 8 26 29 67 46 91 27 40 40 48 158 95
70 28 140 54 156 58 40 9 95 78 89 109 -6 32 -15 31 -60 -4 -62 -47 -256 -150
-308 -162 -67 -15 -145 -53 -238 -116 -43 -30 -81 -52 -84 -49 -13 14 -32 130
-32 201 0 57 5 90 18 114 17 35 121 116 247 194 93 57 588 218 609 197 14 -14
11 -168 -3 -204 -6 -16 -10 -30 -9 -32 2 -1 37 38 78 88 70 85 99 123 246 314
l55 72 -81 162 c-73 148 -90 190 -75 190 3 0 40 -13 83 -29 96 -37 242 -84
246 -79 2 1 17 25 35 51 31 46 32 49 13 54 -20 5 -20 6 -2 61 10 32 49 154 86
272 37 118 68 216 69 218 1 1 33 -18 71 -43 38 -25 75 -44 84 -43 24 5 172
267 349 618 108 214 109 215 100 265 -12 74 -11 135 2 135 7 0 26 -9 44 -20
l33 -20 30 72 c17 40 45 104 62 141 l31 69 -20 121 c-40 246 -63 527 -43 527
6 0 35 -30 64 -66 29 -36 54 -60 56 -54 2 6 -3 43 -12 83 -52 248 -54 342 -15
746 13 137 60 363 97 476 35 103 48 165 36 165 -5 0 -27 -20 -48 -45z m-149
-402 c-25 -94 -83 -241 -92 -231 -2 2 9 39 26 82 17 43 29 80 26 82 -2 2 -21
-33 -43 -79 -21 -45 -46 -93 -55 -107 -9 -14 -42 -64 -72 -112 -68 -106 -120
-148 -184 -148 -23 0 -43 4 -43 9 0 5 23 31 51 58 120 112 296 347 370 491 17
34 34 61 36 58 3 -3 -6 -49 -20 -103z m-284 -605 c-39 -57 -82 -125 -96 -153
-14 -27 -50 -85 -80 -127 -30 -42 -50 -79 -44 -81 6 -2 7 -9 3 -16 -7 -10 -10
-10 -16 -1 -5 8 -14 0 -29 -23 -23 -38 -26 -47 -12 -47 5 0 13 9 16 21 4 11 9
18 12 16 11 -11 -9 -45 -29 -51 -12 -3 -19 -8 -15 -12 4 -4 1 -14 -6 -23 -18
-21 -47 -96 -47 -121 0 -21 -55 -79 -110 -116 -48 -32 -280 -70 -280 -46 0 4
31 31 68 60 69 52 242 224 242 241 0 4 21 36 48 69 26 34 61 80 77 103 17 24
55 72 85 108 30 36 68 84 85 106 34 46 188 204 194 199 2 -2 -27 -50 -66 -106z
m-733 -112 c0 -10 -78 -164 -102 -201 -19 -31 -37 -44 -77 -59 -29 -10 -55
-16 -58 -12 -3 3 15 29 41 58 25 29 76 90 113 136 58 71 83 94 83 78z m-690
-263 c-7 -21 -27 -67 -45 -103 -18 -36 -38 -80 -45 -98 -9 -23 -25 -38 -58
-52 -88 -39 -93 -25 -16 50 60 59 109 127 145 202 27 55 36 56 19 1z m1240 37
c0 -5 -4 -10 -10 -10 -5 0 -10 5 -10 10 0 6 5 10 10 10 6 0 10 -4 10 -10z
m-690 -58 c0 -4 -4 -12 -9 -17 -5 -6 -34 -64 -63 -130 -62 -139 -148 -292
-216 -385 -40 -54 -54 -66 -87 -72 -72 -15 -74 -2 -8 65 67 68 173 209 204
270 11 21 35 60 54 85 18 26 45 74 59 106 15 33 31 65 37 73 13 14 29 17 29 5z
m-580 -142 c-7 -22 -17 -40 -21 -40 -4 0 -1 20 8 46 8 25 18 43 21 40 3 -3 -1
-24 -8 -46z m-163 -252 c-31 -62 -81 -153 -113 -203 -31 -49 -66 -107 -77
-127 -11 -21 -35 -44 -53 -53 -37 -17 -94 -20 -94 -5 0 6 22 33 48 59 54 54
204 251 244 321 37 63 89 133 95 127 2 -3 -20 -56 -50 -119z m1269 57 c-4 -12
3 -15 30 -15 50 0 40 -19 -26 -52 -61 -30 -125 -46 -119 -30 2 5 24 32 49 60
43 49 78 69 66 37z m-191 -234 c3 -5 1 -12 -4 -16 -17 -10 -191 -265 -181
-265 5 0 11 3 13 8 3 4 35 5 71 4 l65 -4 -16 -26 c-10 -15 -30 -42 -46 -61
-16 -19 -35 -46 -41 -60 -6 -14 -29 -52 -51 -85 -22 -32 -44 -66 -49 -76 -15
-28 -182 -100 -273 -118 -80 -15 -92 -15 -271 7 -135 16 -209 21 -260 15 -47
-4 -72 -3 -72 4 0 5 23 24 50 42 50 32 51 32 71 14 16 -14 34 -19 76 -17 170
6 393 156 713 477 152 153 189 182 205 157z m-741 -109 c12 -19 -70 -161 -84
-145 -4 4 -10 41 -14 81 l-6 72 49 0 c28 0 52 -4 55 -8z m60 -141 c-19 -51
-32 -97 -28 -102 10 -17 -25 -95 -49 -108 -12 -6 -37 -22 -55 -36 -19 -13 -57
-33 -85 -44 -29 -10 -61 -23 -72 -27 -12 -4 3 18 35 52 84 90 141 161 200 249
59 87 82 117 86 112 2 -2 -12 -45 -32 -96z m-374 29 c0 -5 -4 -10 -10 -10 -5
0 -10 5 -10 10 0 6 5 10 10 10 6 0 10 -4 10 -10z m194 -92 c-16 -27 -79 -98
-86 -98 -18 0 -6 23 33 65 39 42 70 61 53 33z m-495 -64 c-7 -16 -11 -33 -9
-39 8 -29 -4 -69 -29 -98 -50 -56 -100 -125 -94 -131 9 -8 -28 -46 -44 -46 -8
0 -12 -4 -9 -8 10 -16 -98 -52 -157 -52 -31 0 -57 3 -57 8 0 4 30 27 67 52 85
57 228 189 226 209 -2 21 75 131 92 131 8 0 15 6 16 13 0 7 2 8 5 1 3 -6 -1
-24 -7 -40z m1061 -303 c-18 -22 -59 -53 -93 -71 -49 -24 -56 -26 -33 -8 16
13 54 44 84 71 67 57 84 61 42 8z m-950 -71 c0 -5 -4 -10 -9 -10 -6 0 -13 5
-16 10 -3 6 1 10 9 10 9 0 16 -4 16 -10z m-102 -208 c-11 -2 -25 -27 -39 -70
-36 -111 -81 -222 -90 -222 -13 0 -12 5 36 148 58 173 60 176 88 160 19 -10
19 -13 5 -16z m686 -124 c-21 -64 -81 -217 -93 -239 -7 -13 -3 -15 23 -12 l31
2 -30 -8 c-16 -4 -40 -14 -52 -21 -29 -19 -38 -8 -19 22 8 12 37 73 65 135 70
159 83 184 88 179 3 -3 -3 -29 -13 -58z m476 11 c0 -11 -37 -111 -81 -222 -45
-111 -89 -222 -98 -247 -9 -25 -17 -47 -18 -48 -4 -9 -73 23 -69 33 66 150
211 450 238 494 14 23 28 18 28 -10z m-191 -26 l21 -18 -57 -145 c-32 -80 -71
-166 -86 -192 -46 -79 -73 -58 -58 42 9 56 74 278 92 312 13 23 60 24 88 1z
m-5446 -180 c-35 -2 -91 -2 -125 0 -35 2 -7 3 62 3 69 0 97 -1 63 -3z m-235
-10 c-16 -2 -40 -2 -55 0 -16 2 -3 4 27 4 30 0 43 -2 28 -4z m5346 -269 c15
-41 30 -82 33 -90 3 -9 -1 -14 -11 -14 -9 0 -19 7 -22 15 -15 38 -22 19 -93
-239 -24 -87 -37 -116 -63 -143 -49 -52 -126 -105 -139 -98 -6 4 -29 -11 -52
-33 -51 -50 -80 -58 -131 -37 -36 15 -37 17 -20 30 11 8 15 15 11 15 -15 0
-88 -41 -155 -88 -37 -25 -123 -84 -192 -131 -69 -46 -127 -87 -130 -91 -3 -3
-22 -19 -43 -34 -35 -27 -42 -28 -100 -23 -34 3 -71 9 -82 13 -18 7 -18 6 -6
-9 7 -9 21 -17 29 -17 12 0 13 -3 5 -11 -8 -8 -24 -1 -61 27 -106 84 -202 167
-202 176 0 27 326 340 420 405 25 16 140 80 255 140 116 60 219 114 230 121
115 67 419 190 476 191 12 1 25 -22 43 -75z m230 -570 c3 -8 2 -12 -4 -9 -6 3
-10 10 -10 16 0 14 7 11 14 -7z m-1787 -251 c63 -60 134 -125 156 -145 38 -34
39 -36 12 -23 -16 7 -56 13 -87 13 -41 0 -67 5 -93 21 -20 11 -39 21 -42 21
-12 0 11 -59 48 -122 21 -36 39 -71 39 -76 0 -22 -145 -216 -217 -289 -107
-109 -122 -116 -245 -111 -69 3 -102 8 -108 17 -4 8 -11 52 -15 100 -4 47 -9
89 -11 93 -10 15 -35 -7 -119 -103 -84 -96 -88 -99 -128 -99 -55 0 -84 9 -91
26 -3 7 -8 47 -12 88 -6 73 -6 77 25 125 63 98 469 408 696 532 39 21 72 39
74 39 2 0 55 -48 118 -107z m-717 -142 c0 -5 -7 -16 -15 -24 -8 -8 -12 -17 -9
-20 3 -2 -39 -40 -92 -83 -53 -44 -109 -89 -123 -101 -31 -26 -41 -28 -41 -8
0 8 -4 15 -9 15 -4 0 -25 21 -44 46 l-36 47 22 18 c13 9 52 25 88 34 35 9 68
20 74 23 13 9 157 59 173 61 6 0 12 -3 12 -8z m-390 -116 c0 -3 -11 -26 -24
-52 -14 -27 -36 -74 -49 -106 -23 -56 -24 -57 -42 -37 -10 11 -38 29 -62 41
-25 12 -47 28 -50 35 -3 8 -12 14 -21 14 -34 0 13 28 93 55 44 15 91 33 105
41 25 13 50 18 50 9z m-306 -112 c16 -57 46 -196 43 -200 -3 -2 -11 3 -19 11
-22 21 -80 34 -131 29 -30 -4 -56 0 -78 11 -18 9 -57 16 -91 16 -32 0 -58 4
-58 10 0 6 9 10 20 10 11 0 29 8 40 18 28 24 220 112 247 112 12 0 24 -8 27
-17z m371 -196 c29 -116 41 -207 27 -207 -6 0 -12 5 -14 12 -3 7 -32 14 -74
16 -55 3 -74 1 -86 -12 -15 -14 -19 -8 -48 64 -38 93 -51 148 -39 156 5 3 32
-27 60 -66 30 -41 59 -70 69 -70 19 0 40 45 40 83 0 11 5 50 11 85 14 78 20
71 54 -61z m-2557 -293 c-9 -9 -21 -13 -27 -9 -16 10 -3 25 22 25 20 0 20 -1
5 -16z m3949 -50 c-3 -3 -12 -4 -19 -1 -8 3 -5 6 6 6 11 1 17 -2 13 -5z"/>
<path d="M10315 3830 c-3 -6 1 -7 9 -4 18 7 21 14 7 14 -6 0 -13 -4 -16 -10z"/>
<path d="M10269 3799 c-23 -19 -23 -20 -2 -10 12 6 25 16 28 21 10 16 -1 12
-26 -11z"/>
<path d="M8968 1973 c7 -3 16 -2 19 1 4 3 -2 6 -13 5 -11 0 -14 -3 -6 -6z"/>
<path d="M8918 1953 c7 -3 16 -2 19 1 4 3 -2 6 -13 5 -11 0 -14 -3 -6 -6z"/>
<path d="M11906 6313 c-26 -82 -88 -334 -83 -340 3 -2 13 22 22 54 l17 58 14
-28 c8 -15 19 -27 24 -27 6 0 10 -10 10 -22 1 -27 32 -68 53 -68 20 0 60 -37
52 -49 -4 -7 4 -11 20 -11 15 0 33 -7 41 -15 9 -8 28 -15 44 -15 27 0 31 5 46
55 15 55 15 57 -12 133 -15 42 -49 124 -76 181 -46 98 -49 103 -74 97 -32 -8
-64 1 -64 19 0 34 -20 21 -34 -22z"/>
<path d="M3700 6210 c-79 -30 -169 -74 -135 -66 75 18 70 20 150 -41 43 -32
106 -78 140 -103 34 -25 116 -93 182 -153 66 -59 162 -139 214 -178 52 -39
106 -84 122 -102 15 -17 27 -29 27 -25 0 10 -110 219 -142 270 -16 25 -70 81
-120 124 -49 42 -142 128 -206 191 -75 73 -123 113 -136 112 -12 0 -55 -13
-96 -29z"/>
<path d="M593 6177 c-34 -28 -60 -53 -58 -55 8 -8 95 55 109 80 10 15 16 28
14 27 -2 0 -31 -23 -65 -52z"/>
<path d="M3510 6130 c-8 -5 -10 -10 -5 -10 6 0 17 5 25 10 8 5 11 10 5 10 -5
0 -17 -5 -25 -10z"/>
<path d="M332 5977 c-10 -12 -6 -41 23 -158 90 -356 119 -581 120 -912 0 -215
1 -236 15 -215 20 30 70 78 82 78 6 0 9 -70 7 -192 l-4 -193 29 -75 c16 -41
33 -79 37 -83 14 -17 21 190 14 413 -6 204 -5 231 10 264 22 46 35 46 36 -1 1
-21 3 -30 6 -20 2 9 8 17 13 17 17 0 24 -59 35 -277 3 -62 10 -124 15 -137 5
-14 10 -94 12 -179 l3 -153 -31 -39 c-17 -22 -34 -45 -38 -52 -3 -7 24 -81 61
-165 l68 -153 10 87 c6 47 13 90 17 93 9 9 28 -59 34 -125 8 -85 14 -104 26
-92 7 7 16 4 30 -10 17 -17 21 -33 20 -87 -1 -36 -4 -78 -7 -93 -5 -23 11 -63
85 -206 124 -237 150 -282 163 -282 7 0 30 11 52 25 22 13 43 25 48 25 9 0 50
-92 73 -165 l18 -55 -33 -33 c-32 -34 -32 -34 -13 -57 l19 -23 31 23 c18 13
35 20 39 16 5 -4 9 -44 10 -88 2 -80 2 -81 59 -167 31 -47 104 -152 162 -234
114 -159 113 -159 187 -131 22 8 112 32 200 54 88 21 213 56 278 76 116 36
118 36 138 18 14 -13 2 18 -35 92 -61 123 -92 157 -187 204 -32 17 -84 46
-115 66 -31 20 -58 33 -61 31 -3 -3 9 -13 26 -22 17 -8 31 -18 31 -22 0 -25
-91 -45 -105 -23 -3 5 -33 10 -65 10 -46 0 -62 4 -72 19 -7 10 -37 30 -65 45
-29 14 -53 31 -53 36 0 6 9 19 20 30 11 11 20 26 20 34 0 7 7 19 15 26 10 8
13 21 9 34 l-6 21 23 -20 c52 -45 62 -47 23 -4 -83 90 -229 277 -306 392 -167
252 -218 395 -218 619 0 171 42 293 125 364 62 52 116 105 203 198 56 60 87
84 138 107 l67 30 -114 117 c-107 110 -219 251 -219 277 0 6 17 19 37 29 l37
18 -95 91 c-133 128 -190 207 -361 500 -44 76 -83 136 -85 133 -2 -2 10 -55
27 -118 80 -288 132 -509 141 -608 12 -126 14 -136 39 -143 22 -6 60 -76 60
-112 0 -26 57 -89 92 -100 9 -3 19 -13 22 -22 5 -13 0 -14 -31 -8 -64 11 -106
37 -133 83 -16 27 -49 59 -90 86 -96 64 -235 180 -235 196 0 8 20 22 45 31 56
21 62 42 18 65 -116 59 -275 240 -433 492 -96 152 -216 330 -247 366 -29 33
-35 36 -46 23z m191 -407 c14 -41 35 -128 47 -192 11 -64 27 -143 35 -175 8
-31 15 -77 15 -100 0 -28 4 -43 13 -43 7 0 8 -3 2 -8 -5 -4 -20 -25 -31 -47
-12 -22 -26 -39 -30 -38 -5 2 -12 53 -16 115 -8 122 -42 401 -63 512 -16 83
-7 75 28 -24z m345 -805 c-3 -3 -9 2 -12 12 -6 14 -5 15 5 6 7 -7 10 -15 7
-18z m93 -140 l10 -20 -16 20 c-9 11 -21 29 -26 40 l-10 20 16 -20 c9 -11 21
-29 26 -40z m608 -131 c45 -37 41 -54 -13 -54 -37 0 -50 6 -87 40 l-44 39 57
1 c47 0 62 -5 87 -26z m-634 -236 c-10 -87 -15 -106 -32 -120 -15 -12 -16 -5
-11 70 5 68 4 82 -9 82 -8 0 -11 5 -8 10 3 6 20 10 37 10 l30 0 -7 -52z m235
-357 c13 -24 13 -34 1 -26 -6 3 -14 -3 -20 -12 -8 -15 -10 -11 -11 20 0 40 13
48 30 18z m904 -1500 c3 -4 -11 -5 -30 -3 -18 2 -32 8 -29 12 5 8 53 1 59 -9z
m-71 -93 c-16 -8 -32 -8 -55 0 -32 9 -31 10 22 10 46 1 52 -1 33 -10z"/>
<path d="M11805 5920 c-4 -23 -5 -44 -2 -46 3 -3 8 13 12 36 4 23 5 44 2 46
-3 3 -8 -13 -12 -36z"/>
<path d="M2095 5710 c3 -5 8 -10 11 -10 2 0 4 5 4 10 0 6 -5 10 -11 10 -5 0
-7 -4 -4 -10z"/>
<path d="M10195 5667 c-22 -24 -52 -58 -65 -77 -17 -25 -1 -14 58 39 45 40 82
75 82 77 0 2 -8 4 -17 4 -9 0 -35 -19 -58 -43z"/>
<path d="M10293 5572 c-43 -43 -94 -100 -112 -128 l-35 -49 50 44 c55 49 144
142 175 184 40 53 -2 26 -78 -51z"/>
<path d="M10825 5550 c-4 -17 -5 -34 -2 -36 3 -3 8 9 12 26 4 17 5 34 2 36 -3
3 -8 -9 -12 -26z"/>
<path d="M10336 5485 c-3 -9 -6 -22 -5 -28 0 -7 5 -1 10 12 5 13 8 26 5 28 -2
2 -6 -3 -10 -12z"/>
<path d="M10803 5375 c0 -27 2 -38 4 -22 2 15 2 37 0 50 -2 12 -4 0 -4 -28z"/>
<path d="M4559 5282 c6 -12 16 -24 22 -28 8 -4 8 -1 0 14 -6 12 -16 24 -22 28
-8 4 -8 1 0 -14z"/>
<path d="M10790 5270 c0 -5 5 -10 10 -10 6 0 10 5 10 10 0 6 -4 10 -10 10 -5
0 -10 -4 -10 -10z"/>
<path d="M10781 5204 c0 -11 3 -14 6 -6 3 7 2 16 -1 19 -3 4 -6 -2 -5 -13z"/>
<path d="M9509 4863 c-13 -16 -12 -17 4 -4 16 13 21 21 13 21 -2 0 -10 -8 -17
-17z"/>
<path d="M911 3624 c0 -11 3 -14 6 -6 3 7 2 16 -1 19 -3 4 -6 -2 -5 -13z"/>
<path d="M8480 3540 c-8 -5 -10 -10 -5 -10 6 0 17 5 25 10 8 5 11 10 5 10 -5
0 -17 -5 -25 -10z"/>
<path d="M8429 3515 c-14 -14 -138 -38 -229 -44 l-105 -8 83 -1 c85 -2 207 19
252 44 14 7 20 13 14 14 -6 0 -13 -2 -15 -5z"/>
<path d="M8008 3488 c5 -5 16 -8 23 -6 8 3 3 7 -10 11 -17 4 -21 3 -13 -5z"/>
<path d="M8058 3473 c6 -2 18 -2 25 0 6 3 1 5 -13 5 -14 0 -19 -2 -12 -5z"/>
<path d="M6300 3141 c0 -5 -18 -12 -40 -16 -22 -4 -43 -11 -46 -17 -4 -6 1 -8
12 -5 20 6 93 22 159 36 38 9 38 9 -22 10 -35 1 -63 -3 -63 -8z"/>
<path d="M8075 2700 c-16 -7 -12 -9 18 -9 23 -1 36 3 32 9 -7 12 -23 12 -50 0z"/>
<path d="M1938 2663 c7 -3 16 -2 19 1 4 3 -2 6 -13 5 -11 0 -14 -3 -6 -6z"/>
<path d="M8148 2613 c7 -3 16 -2 19 1 4 3 -2 6 -13 5 -11 0 -14 -3 -6 -6z"/>
<path d="M5820 2593 c-14 -2 -34 -8 -45 -13 -11 -4 -101 -14 -200 -20 -99 -6
-181 -15 -183 -20 -2 -6 -10 -10 -17 -10 -7 0 -37 -11 -67 -25 -29 -14 -70
-25 -90 -25 -20 0 -40 -4 -43 -10 -3 -5 -31 -10 -61 -10 -39 0 -53 3 -48 11 8
13 -57 6 -146 -16 -30 -8 -129 -26 -220 -40 -91 -14 -221 -37 -290 -50 -69
-13 -177 -33 -240 -45 -177 -33 -186 -36 -220 -90 -16 -26 -30 -49 -30 -52 0
-3 39 5 88 17 48 12 146 32 217 44 234 40 298 52 420 81 143 34 310 68 420 85
126 21 197 33 390 70 99 18 236 43 305 53 111 18 118 20 66 21 -69 1 -67 19 3
28 22 3 41 10 41 14 0 9 -6 9 -50 2z"/>
<path d="M5928 2563 c7 -3 16 -2 19 1 4 3 -2 6 -13 5 -11 0 -14 -3 -6 -6z"/>
<path d="M4285 2070 c-25 -11 1 -11 35 0 20 6 21 8 5 8 -11 0 -29 -3 -40 -8z"/>
<path d="M2683 2053 l19 -22 -134 -41 c-73 -22 -198 -61 -278 -86 -80 -25
-163 -51 -185 -58 -22 -7 -39 -17 -37 -22 6 -20 78 -104 94 -109 9 -3 34 3 56
14 21 11 72 29 113 40 41 11 117 32 169 46 52 15 109 30 126 35 18 4 38 11 45
16 8 5 19 9 26 10 7 1 35 10 63 19 28 9 65 15 82 13 l32 -5 -32 26 c-17 14
-54 46 -83 71 -29 25 -62 51 -73 59 -21 14 -21 14 -3 -6z"/>
<path d="M4200 2050 c-20 -6 -21 -8 -5 -8 11 0 29 3 40 8 25 11 -1 11 -35 0z"/>
<path d="M4060 2014 c-47 -13 -67 -22 -45 -19 42 5 171 43 145 43 -8 0 -53
-11 -100 -24z"/>
<path d="M2955 1768 c-22 -5 -125 -36 -230 -68 -104 -32 -245 -75 -312 -96
-99 -30 -121 -40 -112 -51 6 -7 18 -13 26 -13 8 0 11 -5 7 -12 -5 -7 -2 -9 7
-6 45 16 190 62 294 91 139 40 222 66 320 102 39 14 78 28 88 31 10 4 16 12
14 18 -5 15 -52 17 -102 4z"/>
<path d="M9765 1476 c-21 -14 -139 -81 -185 -106 -16 -8 -40 -28 -54 -43 -23
-25 -25 -30 -11 -43 8 -9 15 -20 15 -25 0 -5 8 -9 18 -9 15 0 86 67 207 198
41 44 43 49 10 28z"/>
</g>
</svg>
